<?xml version="1.0" encoding="UTF-8" standalone="no"?>
<svg
   xmlns:dc="http://purl.org/dc/elements/1.1/"
   xmlns:cc="http://creativecommons.org/ns#"
   xmlns:rdf="http://www.w3.org/1999/02/22-rdf-syntax-ns#"
   xmlns:svg="http://www.w3.org/2000/svg"
   xmlns="http://www.w3.org/2000/svg"
   xmlns:sodipodi="http://sodipodi.sourceforge.net/DTD/sodipodi-0.dtd"
   xmlns:inkscape="http://www.inkscape.org/namespaces/inkscape"
   version="1.1"
   id="Layer_1"
   x="0px"
   y="0px"
   viewBox="0 0 1861.3575 1596.397"
   enable-background="new 0 0 1854.073 1678.351"
   xml:space="preserve"
   sodipodi:docname="AfricanKid-Brushing-Teeth.svg"
   width="1861.3575"
   height="1596.397"
   inkscape:version="0.92.1 r15371"><metadata
   id="metadata4608"><rdf:RDF><cc:Work
       rdf:about=""><dc:format>image/svg+xml</dc:format><dc:type
         rdf:resource="http://purl.org/dc/dcmitype/StillImage" /><dc:title></dc:title></cc:Work></rdf:RDF></metadata><defs
   id="defs4606" /><sodipodi:namedview
   pagecolor="#ffffff"
   bordercolor="#666666"
   borderopacity="1"
   objecttolerance="10"
   gridtolerance="10"
   guidetolerance="10"
   inkscape:pageopacity="0"
   inkscape:pageshadow="2"
   inkscape:window-width="1366"
   inkscape:window-height="706"
   id="namedview4604"
   showgrid="false"
   fit-margin-top="0"
   fit-margin-left="0"
   fit-margin-right="0"
   fit-margin-bottom="0"
   inkscape:zoom="0.11196396"
   inkscape:cx="796.49737"
   inkscape:cy="580.04426"
   inkscape:window-x="-8"
   inkscape:window-y="-8"
   inkscape:window-maximized="1"
   inkscape:current-layer="g4601" />
<g
   id="g4601"
   transform="translate(-43.01684,-43.105905)">
	
	
	
	
	
	
	
	
	
	
	
	
	
	
	
	
	
	
	
	
	
	
	
	
	
	
	
	
	
	
	
	
	
	
	
	
	
	
	
	
	
	
	
	
	
	
	
	
	
	
	
	
	
	
	
	
	
	<g
   id="g4671"><path
     sodipodi:nodetypes="ccssscsscscccccccccccccccccccccccccc"
     inkscape:connector-curvature="0"
     id="path4485"
     d="m 753.91622,51.943 c 59.29568,-32.045981 36.92429,36.188262 98.98963,32.569756 65.41204,-53.621197 147.89155,7.276575 204.25335,10.831659 56.3618,3.555083 80.0243,-46.941636 136.4014,-43.626657 56.3771,3.31498 109.2692,67.023432 164.8544,75.208722 55.5852,8.18529 229.0446,-85.224954 283.0307,-67.058935 33.9355,12.327342 5.6505,110.222475 36.3105,153.731835 30.66,43.50936 120.265,32.63296 126.7098,64.36091 12.8897,63.45589 -30.4272,139.36674 -29.4197,213.84121 7.585,34.76814 62.5332,23.30846 79.1691,56.30449 16.636,32.99603 -5.0402,110.44778 18.9471,143.96269 30.1305,62.73059 65.0012,153.75962 -37.7467,248.58001 6.2977,52.04257 -61.9287,116.93491 -113.2301,154.53841 -8.8155,48.1642 -14.7134,150.4062 -69.4542,161.25 -33.2651,-22.3185 50.9433,-133.0113 -11.5082,-112.0199 -25.6011,23.8908 -65.3222,38.8603 -27.6473,-6.3961 17.7112,-30.3849 61.0387,-111.4542 1.4072,-96.7367 -16.4319,-64.2141 -26.7898,-131.76073 -67.2431,-187.81474 -40.265,-61.17464 -112.9002,16.37406 -163.9876,-28.13002 -36.398,-47.91902 -102.518,14.80744 -156.25,7.53925 -52.0877,2.8539 -119.0731,5.74327 -156.2971,-35.57107 -4.7426,-106.92836 -89.0903,49.13386 -120.215,12.70581 -8.0141,-35.92991 67.6193,-131.11548 -16.20659,-91.45092 -41.87195,22.85001 -117.3692,-19.63837 -52.88369,-55.4941 -65.21269,1.09623 -134.95378,6.39708 -197.84781,-21.45927 -59.0883,-35.3035 -107.54928,19.33961 -108.67654,108.22209 95.66802,106.64972 -80.20098,167.44163 -130.32795,187.45876 4.04882,76.54501 -40.79639,-23.04966 -82.12431,3.46381 -42.25963,-24.67055 -60.39316,-65.76226 -10.78811,-100.44079 7.07656,-17.80141 -29.74523,-39.84179 1.51069,-66.22527 34.2745,-62.4409 -27.89926,-251.03745 19.07816,-314.04315 58.74675,-64.77856 110.33955,-81.03055 87.14167,-147.44103 -22.36146,-44.45837 32.32012,-126.29208 63.50363,-57.29259 54.06109,63.60458 -39.17001,-103.06599 33.66768,-70.46442 20.96547,33.09071 104.48853,71.13892 70.54188,-0.90027 C 578.96021,52.244666 727.91039,107.11436 753.91622,51.943 Z"
     style="fill:#2b1100;stroke:#8e4a01;stroke-width:0.5" /><path
     sodipodi:nodetypes="ccccccccccccccccccccccccccccccccccc"
     inkscape:connector-curvature="0"
     id="path4487"
     d="m 641.565,556.808 c 59.20395,-11.68461 130.42921,52.48394 199.865,47.699 34.84579,14.09843 146.34442,-24.51639 77.487,26.323 -9.38899,69.35817 115.3482,2.14588 125.9082,27.56125 -15.2096,27.51365 -59.47823,102.47702 -12.1366,103.9265 21.4384,-29.72881 110.5983,-105.50489 97.1924,-29.89775 41.3112,54.63276 120.485,42.68538 180.3721,38.48146 51.6233,6.59564 121.4439,-63.62949 138.7569,1.53654 53.5443,31.3982 138.3544,-42.88931 166.2952,31.23262 103.9554,2.17142 -13.7685,396.74338 51.1563,315.52628 29.4215,-3.7253 69.3567,-81.4792 56.6369,-17.6863 11.788,41.0006 -54.2912,103.3071 11.5326,97.6934 51.6515,42.6195 1.7225,116.0198 -20.1239,163.6349 -15.7395,46.6062 -84.9183,79.2966 -110.7471,23.9331 -127.8065,162.9448 -334.2757,268.3219 -543.551,250.5272 -125.85235,-9.9001 -330.43288,-91.4647 -429.24572,-171.5816 49.88639,20.0142 96.81933,18.4922 142.76884,38.461 38.77345,-11.0712 73.70712,41.0703 120.49916,15.159 35.8938,28.3589 75.1329,-4.2177 107.55602,32.219 58.0108,19.1624 120.4801,-9.7416 158.3147,-53.6841 66.1619,5.2261 106.0723,-50.7869 155.6443,-76.6004 -19.1284,-42.6451 144.0516,-39.4721 124.0681,-67.1525 -35.9129,-6.187 -143.8713,33.0207 -129.4734,-21.6376 -19.9709,-80.226 -72.6658,-137.2871 -143.285,-107.362 -32.2018,-34.219 -94.9079,68.423 -110.8466,14.9447 -55.3421,-55.3475 -110.70264,-13.7501 -167.51066,-45.7688 -47.53053,29.3598 -65.72881,28.014 -118.56474,37.3971 -57.7428,7.5478 -104.98695,3.1351 -167.24425,-39.978 -45.56979,-6.5763 17.07556,80.7612 -3.1902,110.8295 -1.66786,31.3214 29.29978,78.0542 5.54845,94.7335 -60.74898,-83.4188 -101.83641,-181.2985 -117.915,-283.271 -58.00107,39.9353 -89.88263,-47.6002 -86.663,-93.8315 C 389.56917,965.50693 396.92313,804.91384 473.89117,872.58346 503.5298,923.9058 500.59573,846.85855 516.828,825.28625 543.51568,716.90519 537.0341,662.63221 641.565,556.808 Z"
     style="fill:#a4663d;fill-opacity:1;stroke:#fbe4ae;stroke-width:0.5" /><path
     style="fill:#b0744c;fill-opacity:1;stroke:#825430;stroke-width:0.5;stroke-opacity:1"
     id="path4493"
     d="m 825.115,733.745 c 14.835,-0.482 29.634,2.96 43.212,8.821 7.083,3.277 15.563,6.554 18.241,14.682 2.936,5.72 0.881,14.318 -5.791,16.221 -16.608,2.255 -33.334,-0.364 -50.013,0.305 -14.024,-0.493 -29.352,-0.082 -41.051,8.727 -17.243,11.593 -22.775,34.098 -40.182,45.491 -12.685,5.356 -30.128,-5.333 -28.93,-19.709 0.435,-15.61 6.566,-31.009 17.184,-42.473 13.742,-15.998 33.698,-25.288 53.983,-29.799 10.831,-3.193 22.224,-1.855 33.347,-2.266 z"
     inkscape:connector-curvature="0" /><path
     style="fill:#b0744c;fill-opacity:1;stroke:#825430;stroke-width:0.5;stroke-opacity:1"
     id="path4495"
     d="m 1345.708,845.435 c 23.738,-2.619 48.063,2.22 69.37,12.885 18.558,9.69 34.709,25.982 40.006,46.689 1.75,8.375 4.158,17.795 -0.247,25.77 -4.804,6.765 -13.12,11.663 -21.6,10.63 -4.98,-0.164 -8.551,-4.04 -11.898,-7.235 -12.451,-12.392 -18.793,-30.269 -33.757,-40.217 -11.816,-7.787 -26.475,-8.692 -40.217,-8.739 -15.187,1.21 -30.433,1.034 -45.656,0.963 -4.205,-0.164 -9.173,-2.02 -10.677,-6.296 -2.244,-7.564 1.316,-16.291 8.187,-20.144 14.177,-8.186 30.292,-12.579 46.489,-14.306 z"
     inkscape:connector-curvature="0" /><path
     id="path4497"
     d="m 797.501,877.184 c 16.174,-16.08 43.107,-19.38 62.851,-8.058 13.284,7.611 23.503,20.931 26.134,36.153 5.356,22.317 -6.871,46.795 -26.933,57.413 -3.218,2.255 -7.2,2.337 -10.841,3.406 -7.623,2.795 -15.892,1.386 -23.82,1.879 -2.196,-0.235 -5.004,0.67 -6.754,-0.951 7.752,0.364 15.516,0.446 23.268,0.611 16.785,-3.477 29.705,-20.073 28.8,-37.234 0.482,-15.998 -11.229,-30.468 -25.946,-35.695 -5.18,-3.876 -12.051,-2.443 -18.065,-2.349 -7.635,1.386 -15.305,4.816 -20.297,10.935 -7.024,7.177 -11.945,16.879 -11.205,27.133 -1.01,12.544 5.673,24.96 16.08,31.819 -7.435,-1.621 -12.944,-7.341 -17.783,-12.826 -17.418,-20.355 -15.363,-54.218 4.511,-72.236 z"
     inkscape:connector-curvature="0"
     style="fill:#fefefe;stroke:#fefefe;stroke-width:0.5" /><path
     style="fill:#b0744c;fill-opacity:1;stroke:#825430;stroke-width:0.5;stroke-opacity:1"
     id="path4499"
     d="m 1106.072,866.225 c 4.722,-2.784 9.784,3.03 7.881,7.635 -2.467,5.497 -7.094,9.62 -10.23,14.706 -20.226,30.386 -37.892,62.417 -54.089,95.117 -9.843,19.921 -19.075,40.276 -25.653,61.536 -2.032,7.787 -4.581,15.716 -3.923,23.879 0.082,4.393 3.101,8.774 7.517,9.784 9.925,3.183 20.015,-0.881 29.634,-3.23 8.351,-2.314 17.654,-5.685 26.076,-1.832 5.109,1.903 7.623,7.67 7.188,12.862 0.106,4.957 -3.488,8.856 -6.836,12.074 -7.083,6.343 -16.385,9.491 -25.465,11.722 -8.398,0.987 -16.914,0.681 -25.336,0.27 -10.959,-2.138 -21.26,-7.259 -30.034,-14.095 -3.982,-3.277 -8.328,-6.989 -9.091,-12.392 -1.433,-4.64 -1.186,-9.467 -0.364,-14.177 0.576,-10.924 4.264,-21.33 7.705,-31.62 7.083,-20.203 16.28,-39.595 25.829,-58.717 11.076,-22.035 23.644,-43.283 37.07,-63.955 6.296,-10.325 13.695,-19.909 21.036,-29.482 6.509,-7.176 12.159,-15.68 21.085,-20.085 z"
     inkscape:connector-curvature="0" /><path
     id="path4501"
     d="m 805.899,903.295 c 4.992,-6.12 12.662,-9.549 20.297,-10.935 6.014,-0.094 12.885,-1.527 18.065,2.349 -5.215,-0.294 -10.407,-1.926 -15.633,-0.963 -4.781,0.881 -9.761,1.55 -14.001,4.099 -2.961,1.726 -5.838,3.605 -8.728,5.45 z"
     inkscape:connector-curvature="0"
     style="fill:#8f8f8f;stroke:#8f8f8f;stroke-width:0.5" /><path
     sodipodi:nodetypes="ccccccccc"
     style="stroke:#000000;stroke-width:0.5"
     inkscape:connector-curvature="0"
     id="path4503"
     d="m 814.626,897.845 c 4.24,-2.549 9.22,-3.218 14.001,-4.099 5.227,-0.963 10.418,0.669 15.633,0.963 14.717,5.227 26.428,19.698 25.946,35.695 0.904,17.16 -12.016,33.757 -28.8,37.234 -13.72725,-0.46155 -19.96795,1.58928 -30.633,-5.392 -10.407,-6.859 -17.09,-19.275 -16.08,-31.819 -0.74,-10.254 4.181,-19.956 11.205,-27.133 2.891,-1.844 5.768,-3.723 8.728,-5.449 z" /><path
     id="path4505"
     d="m 1216.975,947.799 c 17.983,-16.127 47.065,-16.785 66.281,-2.384 13.061,9.784 22.058,25.982 21.107,42.555 1.304,21.377 -13.132,41.733 -32.559,49.814 -1.069,0.857 -4.968,0.411 -2.737,-1.316 8.198,-5.239 14.776,-13.226 17.172,-22.763 2.22,-10.442 1.198,-22 -4.968,-30.973 -9.537,-15.634 -31.326,-21.354 -47.688,-13.66 -9.925,4.452 -17.619,13.425 -20.625,23.867 -4.064,13.696 0.27,29.435 11.123,38.831 l 0.552,0.787 -0.505,0.904 c -3.418,-0.364 -5.814,-3.277 -8.304,-5.333 -7.646,-6.742 -12.779,-15.927 -15.704,-25.594 -5.52,-19.474 1.257,-41.779 16.855,-54.735 z"
     inkscape:connector-curvature="0"
     style="fill:#fefefe;stroke:#fefefe;stroke-width:0.5" /><path
     id="path4507"
     d="m 1233.584,969.071 c 16.362,-7.693 38.15,-1.973 47.688,13.66 6.167,8.974 7.188,20.531 4.968,30.973 -2.396,9.537 -8.974,17.525 -17.172,22.763 -8.985,5.203 -19.639,4.405 -29.587,3.782 -5.814,-1.292 -11.029,-4.51 -15.399,-8.48 -10.853,-9.397 -15.187,-25.136 -11.123,-38.831 3.006,-10.442 10.7,-19.416 20.625,-23.867 z"
     inkscape:connector-curvature="0"
     style="stroke:#000000;stroke-width:0.5" /><path
     style="fill:#b0744c;fill-opacity:1;stroke:#825430;stroke-width:0.5;stroke-opacity:1"
     id="path4509"
     d="m 672.715,1092.988 c 3.594,-0.059 7.353,-0.235 10.783,1.092 4.322,2.173 5.156,7.964 3.582,12.122 -1.844,2.584 -4.91,3.864 -7.588,5.379 -9.596,5.051 -20.919,7.834 -28.19,16.444 -10.031,10.935 -7.529,27.567 -15.739,39.454 -3.594,4.557 -11.393,2.455 -13.566,-2.502 -2.138,-9.408 -1.727,-19.157 0.317,-28.53 6.108,-18.993 21.001,-35.637 40.276,-41.721 3.253,-1.116 6.683,-1.644 10.125,-1.738 z"
     inkscape:connector-curvature="0" /><path
     id="path4511"
     d="m 701.01,1177.709 c 16.35,-12.768 37.363,-19.51 58.094,-18.688 9.949,0.129 19.991,-0.54 29.834,1.327 21.177,3.618 42.296,10.618 59.68,23.574 4.487,-2.866 8.821,-6.002 13.625,-8.304 8.986,-4.428 18.969,-6.026 28.812,-7.247 6.037,-0.364 11.969,1.222 17.854,2.384 9.584,2.138 17.865,7.717 25.23,14.001 6.73,-3.759 13.273,-7.928 20.508,-10.677 7.846,-3.453 16.315,-4.933 24.572,-7.047 8.668,-2.267 17.712,-1.045 26.557,-1.339 7.917,0.282 15.927,-0.705 23.773,0.716 12.239,2.772 24.478,6.93 34.615,14.541 5.932,4.546 11.405,9.714 16.303,15.387 6.26,7.329 10.501,16.045 15.41,24.29 9.079,-6.19 19.991,-9.032 30.903,-9.244 10.43,-0.153 21.518,0 30.821,5.38 3.794,1.985 6.249,5.614 9.455,8.351 4.463,-0.305 8.222,-3.301 12.415,-4.663 11.699,-4.123 24.079,-6.859 36.553,-6.249 12.932,-0.188 25.97,-0.247 38.608,2.937 22.728,4.581 44.798,13.32 63.908,26.533 18.582,12.11 32.571,30.927 39.783,51.81 2.337,7.74 5.568,15.457 5.403,23.691 -0.023,9.009 0.035,18.03 0.035,27.039 -0.822,9.209 -4.193,17.877 -6.39,26.757 4.299,4.651 9.596,8.539 12.509,14.365 2.631,4.311 2.854,9.526 4.687,14.154 2.819,2.654 6.589,4.24 8.915,7.458 3.994,5.473 7.423,11.381 10.195,17.583 3.688,7.952 3.23,16.902 2.937,25.453 -0.212,6.061 -3.536,11.417 -6.93,16.232 -10.806,14.118 -29.094,21.718 -46.724,20.578 -3.101,-0.493 -3.97,2.913 -5.286,4.968 -5.309,10.195 -13.801,18.429 -23.233,24.866 -14.929,9.843 -32.336,16.033 -50.201,17.301 -7.094,0.423 -14.118,2.349 -21.248,1.539 -2.702,-0.094 -6.143,-1.257 -7.811,1.644 -8.985,12.168 -20.896,21.718 -33.158,30.374 -17.09,12.791 -37.539,20.132 -58.094,25.159 -7.611,1.245 -15.352,1.527 -23.022,2.29 -13.672,-0.364 -27.344,-2.373 -40.523,-6.084 -7.893,-2.96 -15.563,-6.613 -22.693,-11.112 -6.319,-3.794 -11.111,-9.455 -16.655,-14.189 -6.906,2.843 -13.743,6.225 -21.178,7.47 -16.761,2.009 -34.509,-2.819 -47.03,-14.388 -6.578,1.668 -13.132,3.712 -19.956,4.029 -13.014,0.587 -26.287,1.785 -39.102,-1.198 -10.137,-3.265 -20.226,-7.905 -27.849,-15.528 -2.995,-2.784 -4.734,-6.824 -8.128,-9.091 -4.839,1.539 -9.173,4.487 -14.259,5.262 -14.694,2.655 -30.692,2.29 -44.164,-4.781 -7.318,-3.5 -12.627,-9.831 -16.855,-16.573 -22.211,5.121 -45.268,0.975 -66.739,-5.509 -9.126,-2.396 -17.478,-6.836 -26.216,-10.231 -7.576,-4.44 -14.576,-9.725 -21.929,-14.494 10.736,-0.951 21.542,-0.963 32.301,-1.727 0,0.693 0,2.067 -0.012,2.749 24.114,13.167 51.998,19.944 79.471,17.29 0.987,-3.207 1.597,-6.754 3.9,-9.314 2.69,-2.008 7.118,-1.41 8.88,1.609 4.217,6.084 5.826,13.883 11.382,19.063 5.485,4.839 12.779,6.871 19.792,8.328 10.113,2.009 20.508,-0.728 29.681,-4.992 5.509,-2.537 10.195,-6.519 15.645,-9.126 2.114,-1.339 4.24,0.787 5.156,2.584 -0.188,3.618 -2.455,6.707 -3.994,9.89 5.838,5.074 10.689,11.229 16.949,15.833 7.177,5.239 16.221,7.024 24.948,7.4 5.074,0.188 10.219,1.316 15.293,0.294 7.165,-1.456 14.647,-1.233 21.565,-3.806 0.458,-3.289 -0.211,-8.304 3.876,-9.408 2.208,-0.951 4.322,0.611 5.885,2.056 5.286,4.886 8.927,11.628 15.446,15.14 9.984,5.415 22.54,5.297 32.782,0.634 6.366,-2.748 12.955,-5.391 18.218,-10.043 2.831,-2.138 5.814,-5.638 9.772,-4.475 2.878,0.658 2.807,4.181 2.795,6.531 -0.023,3.911 -2.96,6.859 -4.24,10.383 4.452,4.416 10.442,6.801 15.833,9.866 13.977,7.106 29.235,12.133 44.963,13.073 10.348,0.176 20.884,0.623 31.02,-1.868 21.083,-4.863 40.875,-14.764 57.671,-28.378 5.838,-4.98 12.662,-9.091 17.078,-15.492 -8.41,-2.22 -17.043,-4.393 -24.525,-8.95 -2.666,-1.468 -3.9,-4.781 -2.314,-7.482 0.998,-3.077 4.616,-3.606 7.388,-3.195 6.859,0.822 13.578,2.572 20.496,3.042 7.083,0.517 13.977,2.666 21.13,2.467 11.734,-0.223 23.597,0.787 35.19,-1.656 12.92,-1.809 25.347,-7.823 34.309,-17.384 11.288,-11.112 18.347,-25.5 27.497,-38.244 1.339,-2.384 4.205,-2.267 6.566,-2.608 0.705,4.534 0.54,9.15 0.047,13.731 7.153,-0.493 14.083,-2.572 20.919,-4.651 6.589,-2.079 12.415,-6.883 14.835,-13.461 5.215,-13.895 1.21,-30.797 -9.796,-40.769 -3.63,5.368 -6.777,11.429 -12.169,15.281 -3.007,2.255 -8.21,-0.763 -7.012,-4.639 2.02,-8.457 8.703,-15.598 8.48,-24.631 -1.081,-6.366 -4.51,-12.544 -9.596,-16.55 -1.656,-1.292 -3.242,0.493 -4.475,1.433 -4.205,3.512 -9.197,7.505 -15.046,6.495 -3.089,-2.243 -0.752,-6.331 1.562,-8.175 8.492,-7.705 13.578,-18.488 16.15,-29.517 1.539,-9.913 2.008,-20.015 1.081,-30.01 -1.034,-24.842 -13.778,-48.298 -32.348,-64.519 -14.764,-12.815 -32.183,-23.562 -51.646,-27.109 -14.6,-3.336 -29.517,-5.791 -44.516,-5.532 -8.245,0.035 -16.738,-0.799 -24.654,2.044 -13.601,3.653 -25.112,12.016 -36.729,19.615 -5.098,3.113 -9.725,7.306 -15.539,9.021 -3.606,1.022 -7.811,-3.23 -5.532,-6.672 4.252,-7.341 10.465,-13.367 16.937,-18.77 -6.319,-6.719 -16.092,-8.433 -24.924,-8.257 -9.561,0.094 -19.979,1.609 -27.473,8.057 -3.442,2.913 0.07,7.787 -1.48,11.44 -1.891,1.468 -5.156,2.431 -6.93,0.305 -3.359,-4.405 -5.062,-9.772 -7.846,-14.506 -9.08,-16.021 -20.931,-31.22 -37.281,-40.288 -10.771,-6.131 -23.022,-9.091 -35.237,-10.536 -15.962,-1.304 -32.442,-0.576 -47.5,5.333 -17.677,6.472 -32.254,19.051 -44.974,32.594 -2.619,2.408 -4.992,5.791 -8.715,6.425 -4.405,0.634 -7.505,-4.992 -5.38,-8.633 4.041,-8.152 10.007,-15.176 16.115,-21.847 -9.032,-6.93 -20.379,-9.995 -31.572,-10.865 -8.68,-1.186 -17.818,1.069 -24.795,6.401 -9.138,6.918 -15.469,16.667 -23.315,24.866 -2.337,2.713 -7.47,4.581 -10.054,1.351 -2.208,-7.505 2.279,-14.635 4.628,-21.506 -10.16,-4.405 -20.426,-8.633 -30.926,-12.133 -11.452,-3.817 -23.303,-6.167 -35.178,-8.187 -10.771,-1.151 -21.8,-0.716 -32.195,2.514 -16.902,3.911 -31.185,15.68 -40.264,30.21 -2.843,4.393 -4.593,9.361 -7.282,13.848 -1.503,2.643 -5.309,4.51 -8.057,2.631 -1.691,-2.185 -2.49,-4.863 -3.465,-7.376 -10.066,-0.388 -20.637,-1.139 -30.081,3.077 -9.126,3.747 -18.335,10.806 -19.909,21.166 -0.74,6.249 -1.104,13.202 2.349,18.781 2.443,4.193 6.026,7.646 8.081,12.086 1.821,3.571 -0.775,8.445 -4.757,8.915 -3.03,-0.223 -5.885,-1.468 -8.903,-1.703 -7.318,5.814 -11.111,14.999 -13.484,23.82 -1.68,7.811 -3.23,16.785 1.21,24.008 5.109,8.046 14.236,12.568 19.11,20.813 1.045,1.915 1.116,4.37 0.235,6.39 -2.208,1.844 -5.039,2.748 -7.306,4.534 -1.832,6.531 -2.208,13.472 -1.809,20.238 0.446,7.682 3.829,14.764 7.858,21.201 -9.937,0.023 -19.944,1.233 -29.822,-0.188 l 0.2,-0.928 c 3.277,-0.188 6.566,-0.247 9.866,-0.364 -1.222,-5.344 -3.582,-10.348 -4.569,-15.728 -1.034,-8.328 -1.539,-17.29 2.267,-25.03 0.67,-1.997 2.009,-3.947 1.762,-6.096 -2.878,-3.841 -6.777,-6.895 -8.938,-11.241 -9.526,-17.759 -8.152,-39.877 0.646,-57.624 2.596,-4.557 6.096,-8.527 10.113,-11.887 0.975,-1.163 3.077,-2.15 2.431,-3.97 -0.987,-4.076 -3.277,-7.787 -3.629,-12.016 -0.564,-7.881 -0.716,-16.174 2.854,-23.444 3.829,-10.007 11.393,-18.206 20.555,-23.609 7.106,-3.371 14.823,-5.086 22.669,-5.415 7.611,-1.351 15.234,0.235 22.74,1.527 3.322,-9.578 8.901,-18.411 16.994,-24.66 z"
     inkscape:connector-curvature="0"
     style="fill:#94c5be;stroke:#94c5be;stroke-width:0.5" /><path
     id="path4513"
     d="m 741.345,1175.748 c 10.395,-3.23 21.424,-3.665 32.195,-2.514 11.875,2.02 23.726,4.369 35.178,8.187 10.501,3.5 20.766,7.729 30.926,12.133 -2.349,6.871 -6.836,14.001 -4.628,21.506 2.584,3.23 7.717,1.363 10.054,-1.351 7.846,-8.198 14.177,-17.947 23.315,-24.866 6.977,-5.333 16.115,-7.588 24.795,-6.401 11.194,0.869 22.54,3.935 31.572,10.865 -6.108,6.672 -12.075,13.696 -16.115,21.847 -2.126,3.641 0.975,9.267 5.38,8.633 3.723,-0.634 6.096,-4.017 8.715,-6.425 12.721,-13.543 27.297,-26.122 44.974,-32.594 15.058,-5.908 31.537,-6.636 47.5,-5.333 12.216,1.445 24.466,4.405 35.237,10.536 16.35,9.068 28.201,24.267 37.281,40.288 2.784,4.734 4.487,10.101 7.846,14.506 1.774,2.126 5.039,1.163 6.93,-0.305 1.55,-3.653 -1.962,-8.527 1.48,-11.44 7.494,-6.448 17.912,-7.964 27.473,-8.057 8.833,-0.176 18.605,1.539 24.924,8.257 -6.472,5.403 -12.685,11.429 -16.937,18.77 -2.279,3.441 1.926,7.693 5.532,6.672 5.814,-1.715 10.442,-5.908 15.539,-9.021 11.617,-7.599 23.127,-15.963 36.729,-19.615 7.917,-2.842 16.409,-2.008 24.654,-2.044 14.999,-0.258 29.916,2.196 44.516,5.532 19.463,3.547 36.882,14.294 51.646,27.109 18.57,16.221 31.314,39.677 32.348,64.519 0.928,9.995 0.458,20.097 -1.081,30.01 -2.572,11.029 -7.658,21.812 -16.15,29.517 -2.314,1.844 -4.651,5.932 -1.562,8.175 5.849,1.01 10.841,-2.983 15.046,-6.495 1.233,-0.94 2.819,-2.725 4.475,-1.433 5.086,4.005 8.516,10.184 9.596,16.55 0.223,9.032 -6.46,16.174 -8.48,24.631 -1.198,3.876 4.005,6.895 7.012,4.639 5.391,-3.852 8.539,-9.913 12.169,-15.281 11.006,9.972 15.011,26.874 9.796,40.769 -2.42,6.578 -8.246,11.382 -14.835,13.461 -6.836,2.079 -13.766,4.158 -20.919,4.651 0.493,-4.581 0.658,-9.197 -0.047,-13.731 -2.361,0.341 -5.227,0.223 -6.566,2.608 -9.15,12.744 -16.209,27.133 -27.497,38.244 -8.962,9.561 -21.389,15.575 -34.309,17.384 -11.593,2.443 -23.456,1.433 -35.19,1.656 -7.153,0.2 -14.048,-1.95 -21.13,-2.467 -6.918,-0.47 -13.637,-2.22 -20.496,-3.042 -2.772,-0.411 -6.39,0.118 -7.388,3.195 -1.586,2.701 -0.353,6.014 2.314,7.482 7.482,4.557 16.115,6.73 24.525,8.95 -4.416,6.401 -11.241,10.512 -17.078,15.492 -16.796,13.613 -36.588,23.515 -57.671,28.378 -10.137,2.49 -20.672,2.044 -31.02,1.868 -15.728,-0.94 -30.985,-5.967 -44.963,-13.073 -5.391,-3.066 -11.382,-5.45 -15.833,-9.866 1.28,-3.524 4.217,-6.472 4.24,-10.383 0.012,-2.349 0.082,-5.873 -2.795,-6.531 -3.958,-1.163 -6.942,2.337 -9.772,4.475 -5.262,4.651 -11.851,7.294 -18.218,10.043 -10.242,4.663 -22.798,4.78 -32.782,-0.634 -6.519,-3.512 -10.16,-10.254 -15.446,-15.14 -1.562,-1.445 -3.676,-3.007 -5.885,-2.056 -4.088,1.104 -3.418,6.12 -3.876,9.408 -6.918,2.572 -14.4,2.349 -21.565,3.806 -5.074,1.022 -10.219,-0.106 -15.293,-0.294 -8.727,-0.376 -17.771,-2.161 -24.948,-7.4 -6.26,-4.604 -11.111,-10.759 -16.949,-15.833 1.539,-3.183 3.806,-6.272 3.994,-9.89 -0.916,-1.797 -3.042,-3.923 -5.156,-2.584 -5.45,2.608 -10.137,6.589 -15.645,9.126 -9.173,4.264 -19.568,7 -29.681,4.992 -7.012,-1.456 -14.306,-3.488 -19.792,-8.328 -5.556,-5.18 -7.165,-12.979 -11.382,-19.063 -1.762,-3.019 -6.19,-3.618 -8.88,-1.609 -2.302,2.56 -2.913,6.108 -3.9,9.314 -27.473,2.655 -55.357,-4.123 -79.471,-17.29 0.012,-0.681 0.012,-2.056 0.012,-2.749 4.076,-0.529 8.163,-1.151 12.286,-1.175 8.997,-0.164 17.877,-1.997 26.862,-2.243 8.68,-0.258 17.184,-2.608 25.911,-2.314 4.757,0.2 9.385,-0.951 14.036,-1.785 15.328,-1.915 30.645,-3.935 45.902,-6.26 2.831,5.626 5.391,11.675 10.336,15.845 4.863,4.228 10.442,7.552 15.927,10.912 7.13,4.146 15.422,5.286 23.303,7.318 11.276,3.195 23.127,2.408 34.685,3.618 17.983,2.49 36.177,2.079 54.277,2.091 12.568,0.223 25.077,-1.292 37.645,-1.21 5.544,0.071 10.97,-1.257 16.468,-1.797 14.929,-0.716 29.67,-3.312 44.563,-4.428 21.589,-2.584 43.436,-5.767 63.591,-14.341 8.022,-3.571 15.669,-8.093 22.258,-13.919 13.049,-8.21 24.96,-19.463 29.928,-34.45 0.176,0.951 0.505,2.831 0.681,3.77 6.131,-4.851 10.489,-11.452 15.011,-17.736 3.489,-5.521 7.517,-12.227 4.992,-18.934 -1.092,-3.853 -5.109,-5.403 -8.269,-7.141 3.735,-7.658 9.585,-14.224 12.462,-22.27 2.537,-7.118 -7.047,-14.412 -12.885,-9.361 -4.722,3.559 -11.652,6.484 -11.898,13.308 -0.764,-2.725 -1.774,-5.368 -2.972,-7.905 4.252,-4.933 6.155,-11.264 9.279,-16.879 2.373,-4.393 3.665,-9.819 1.609,-14.577 -1.762,-4.393 -7.318,-6.601 -11.64,-4.91 -3.594,2.596 -6.413,6.072 -9.831,8.891 0.247,-5.062 1.985,-10.841 -1.315,-15.281 -2.502,-3.876 -7.823,-5.896 -12.086,-3.759 -5.814,2.748 -9.972,7.846 -14.107,12.591 -0.259,-3.688 0.153,-7.494 -0.858,-11.064 -2.138,-5.25 -9.173,-5.838 -13.496,-3.066 -7.752,4.052 -10.688,12.909 -17.184,18.288 1.445,-5.18 5.462,-9.69 4.945,-15.305 0.012,-3.359 -2.349,-6.319 -5.297,-7.67 -5.579,-1.774 -12.016,-0.258 -16.244,3.782 -3.418,3.277 -5.861,7.388 -8.797,11.076 -0.634,-5.203 -0.023,-10.83 -2.373,-15.645 -2.713,-2.725 -7.376,-2.831 -10.36,-0.47 -4.734,3.418 -7.999,8.398 -11.992,12.591 -1.339,-4.24 -1.609,-9.737 -5.943,-12.122 -4.886,-2.913 -11.288,-0.963 -15.035,2.925 -7,7.329 -10.665,16.949 -15.728,25.558 -1.515,2.232 -1.762,4.922 -1.55,7.553 -13.942,-0.164 -27.884,-0.082 -41.826,-0.129 -22.293,-1.151 -44.657,-1.163 -66.962,-0.552 9.678,-1.832 19.592,-0.576 29.376,-0.916 14.4,-0.329 28.836,0.81 43.212,-0.164 3.559,-10.031 10.571,-18.77 12.098,-29.505 1.128,-6.672 -7.036,-13.096 -13.085,-9.444 -5.979,2.725 -8.433,9.126 -11.722,14.342 -2.878,4.358 -5.52,9.208 -10.207,11.898 1.445,-6.39 5.015,-12.345 4.839,-19.016 -0.024,-4.827 -5.168,-8.469 -9.749,-7.188 -7.071,1.774 -11.064,8.457 -16.221,13.049 -1.01,-4.076 -1.257,-9.197 -5.356,-11.464 -4.334,-3.218 -9.831,-0.611 -13.672,2.091 -6.672,5.027 -9.855,13.19 -12.31,20.896 -0.681,2.455 -2.267,4.475 -4.017,6.284 0.117,-6.437 1.668,-12.744 1.844,-19.157 0.235,-3.911 -2.055,-7.975 -5.802,-9.314 -3.207,-0.94 -6.413,0.787 -8.856,2.749 -4.792,3.77 -6.824,9.761 -9.056,15.211 -3.43,-2.666 -6.014,-8.081 -11.029,-7.282 -7.658,1.785 -11.652,9.314 -15.363,15.54 -5.791,9.843 -10.301,21.906 -6.178,33.24 -5.791,6.014 -11.417,12.885 -12.732,21.412 -4.463,-0.893 -8.011,-4.687 -12.815,-4.005 -10.677,0.341 -21.26,-1.245 -31.866,-2.149 -45.785,-0.623 -91.581,-0.106 -137.378,-0.117 -12.486,-0.505 -24.854,1.668 -37.328,1.186 -4.029,-6.437 -7.412,-13.519 -7.858,-21.201 -0.399,-6.766 -0.024,-13.707 1.809,-20.238 2.267,-1.785 5.098,-2.69 7.306,-4.534 0.881,-2.02 0.81,-4.475 -0.235,-6.39 -4.874,-8.245 -14.001,-12.768 -19.11,-20.813 -4.44,-7.224 -2.889,-16.197 -1.21,-24.008 2.373,-8.821 6.166,-18.006 13.484,-23.82 3.019,0.235 5.873,1.48 8.903,1.703 3.982,-0.47 6.578,-5.344 4.757,-8.915 -2.055,-4.44 -5.638,-7.893 -8.081,-12.086 -3.453,-5.579 -3.089,-12.533 -2.349,-18.781 1.574,-10.36 10.783,-17.419 19.909,-21.166 9.444,-4.217 20.015,-3.465 30.081,-3.077 0.975,2.514 1.774,5.192 3.465,7.376 2.748,1.879 6.554,0.012 8.057,-2.631 2.69,-4.487 4.44,-9.455 7.282,-13.848 9.082,-14.533 23.365,-26.302 40.267,-30.213 m 28.025,34.227 c 0.681,3.888 6.049,4.193 6.719,8.187 -3.817,1.327 -8.022,0.305 -11.816,1.562 -4.346,4.804 1.362,10.23 5.861,11.969 8.093,1.903 16.573,-4.604 17.983,-12.544 0.223,-5.274 -3.03,-10.36 -7.506,-13.002 -3.912,-1.869 -10.454,-1.458 -11.241,3.828 m 214.441,13.249 c -4.299,3.629 -6.319,9.408 -6.084,14.941 -0.023,2.384 -0.035,5.544 2.631,6.625 2.009,0.223 5.039,1.01 6.155,-1.28 2.314,-3.63 3.359,-8.046 6.354,-11.229 6.213,-5.109 15.845,-6.284 22.563,-1.433 8.598,4.322 14.236,13.531 13.273,23.256 4.734,1.327 10.313,-1.433 10.912,-6.566 1.292,-7.623 -4.005,-13.977 -8.598,-19.369 -5.039,-4.933 -10.383,-10.536 -17.665,-11.71 -10.137,-2.455 -21.601,-0.106 -29.541,6.765 m -259.509,-1.034 c -7.188,0.916 -12.732,7.306 -13.848,14.283 -1.821,7.388 2.807,15.575 9.996,17.983 11.064,4.205 25.101,-3.348 26.557,-15.363 0,-4.698 -2.431,-9.244 -5.72,-12.486 -4.417,-4.334 -11.077,-5.497 -16.985,-4.417 m 213.736,11.523 c -3.7,0.893 -7.259,2.807 -9.467,6.002 -4.052,5.321 -7.376,12.92 -3.629,19.298 4.181,8.985 16.608,11.581 24.748,6.495 7.071,-3.324 9.796,-11.252 11.135,-18.394 0.893,-4.851 -2.795,-9.256 -7.024,-11.088 -4.874,-2.184 -10.465,-3.77 -15.763,-2.313 m -66.927,6.049 c -6.143,1.926 -9.667,9.972 -5.673,15.41 2.549,4.546 8.563,4.769 13.073,3.629 4.346,-1.257 6.448,-5.955 7,-10.078 -0.81,-6.647 -7.963,-11.569 -14.4,-8.961 m -72.776,17.56 c -10.606,1.997 -20.778,7.459 -27.367,16.15 -8.281,10.137 -13.578,23.151 -12.791,36.388 0.388,10.606 6.413,21.248 16.15,25.887 3.136,1.621 7.811,0.705 9.667,-2.373 1.774,-3.394 -1.163,-6.531 -2.748,-9.302 -4.499,-6.707 -6.66,-14.659 -7.623,-22.599 -0.388,-10.477 5.849,-20.578 15.07,-25.418 4.71,-2.29 9.573,-5.039 15.011,-4.675 7.012,0.411 14.565,-1.316 21.06,2.149 8.891,3.582 17.055,9.972 20.99,18.911 1.821,3.829 1.95,8.128 3.089,12.157 1.797,3.606 8.14,2.455 8.046,-1.856 0.799,-9.643 -3.03,-19.24 -8.563,-26.992 -11.606,-14.645 -31.703,-21.833 -49.991,-18.427 m 395.818,1.327 c -3.653,0.916 -7.447,2.314 -10.078,5.098 -4.64,6.542 -4.252,16.632 1.727,22.234 5.192,4.076 13.014,5.074 18.899,1.926 8.657,-4.311 10.829,-18.77 2.314,-24.314 -3.747,-2.618 -8.128,-5.426 -12.862,-4.944 m -524.387,9.996 c -6.343,4.745 -12.215,11.076 -13.789,19.11 -2.901,11.358 1.903,23.668 10.195,31.584 2.655,2.173 6.096,5.015 9.761,3.618 3.43,-0.846 3.324,-5.203 2.69,-7.928 -1.914,-4.111 -5.145,-7.447 -7.224,-11.452 -4.334,-7.4 -2.49,-17.853 4.346,-23.104 3.113,-2.396 6.366,-4.687 9.984,-6.237 4.698,-0.94 9.62,-0.717 14.377,-0.235 6.026,2.138 11.781,6.625 13.672,12.979 2.008,5.802 -0.622,11.804 0,17.748 5.99,1.351 8.504,-5.051 9.678,-9.679 2.713,-7.059 -0.082,-14.8 -3.947,-20.825 -6.002,-7.529 -14.847,-14.224 -24.971,-13.566 -8.985,-0.799 -17.395,3.324 -24.772,7.987 m 307.174,6.425 c -6.049,7.118 -3.794,19.404 4.334,23.961 4.252,2.42 9.361,1.433 14.001,1.045 2.889,4.816 6.202,9.69 11.241,12.497 10.289,5.885 23.256,7.106 34.403,3.019 12.885,-4.945 16.468,-23.35 8.081,-33.71 -1.445,-2.467 -4.546,-1.386 -6.824,-1.386 -0.106,6.061 2.49,12.826 -1.668,18.171 -3.089,5.849 -10.43,5.156 -15.963,4.393 -7.318,-0.67 -12.944,-5.932 -17.947,-10.806 -0.059,-3.853 0.693,-8.48 -2.525,-11.335 -4.287,-1.785 -6.108,3.312 -8.915,5.391 -2.243,2.079 -5.415,2.138 -8.105,1.022 -0.399,-3.688 1.257,-7.024 2.044,-10.512 0.118,-1.809 0.611,-4.487 -1.48,-5.333 -3.841,-2.067 -8.222,0.599 -10.677,3.583 m 291.117,6.918 c -4.651,3.512 -9.009,8.61 -9.173,14.717 -0.129,3.723 4.252,7.188 7.646,4.91 5.497,-3.911 9.291,-10.477 16.244,-12.169 10.924,-2.067 22.564,5.614 25.324,16.315 0.904,5.239 0.705,11.358 -3.242,15.399 -3.571,4.181 -9.455,4.417 -14.412,5.697 0.141,1.633 -0.493,3.747 1.034,4.957 5.074,4.698 13.378,4.675 18.864,0.67 6.19,-3.512 9.314,-10.348 10.959,-16.984 1.421,-7.294 0.916,-15.469 -3.629,-21.635 -5.732,-7.999 -13.625,-15.07 -23.409,-17.407 -9.022,-1.482 -18.606,0.42 -26.206,5.53 m -349.117,-1.339 c 0.141,3.582 1.856,6.812 2.455,10.313 -0.599,3.571 -4.041,6.084 -7.447,6.719 -3.524,0.857 -7.717,1.151 -10.066,4.322 -1.738,2.584 -0.294,6.237 2.607,7.212 8.986,3.547 19.85,-1.339 24.455,-9.537 2.349,-6.037 2.044,-14.212 -3.618,-18.347 -2.372,-2.092 -5.673,-1.798 -8.386,-0.682 m 188.283,3.582 c -5.791,0.775 -12.239,3.406 -14.377,9.303 -1.175,3.712 0.869,10.031 5.673,9.173 4.628,-0.2 5.955,-6.672 10.653,-6.859 2.455,-0.153 6.014,-0.752 7.188,2.126 1.633,2.643 -0.118,5.849 0.693,8.668 3.101,4.44 10.277,0.716 10.548,-4.005 1.186,-6.225 -1.621,-12.709 -6.542,-16.538 -4.051,-2.667 -9.231,-2.819 -13.836,-1.868 m 72.107,18.57 c -0.963,5.027 0.435,10.313 3.395,14.447 5.039,7.693 13.214,12.932 21.964,15.434 4.804,1.116 9.784,0.576 14.67,0.67 1.938,3.207 4.381,6.108 6.096,9.479 -0.975,3.747 -3.606,6.836 -4.557,10.618 -1.985,7.047 0.423,14.811 5.427,20.038 4.804,5.615 13.261,9.42 20.25,5.474 0.211,-2.431 0.963,-5.274 -0.834,-7.282 -3.312,-3.453 -8.833,-4.252 -11.264,-8.645 -2.678,-4.381 -1.01,-10.113 2.514,-13.484 3.089,-3.582 8.316,-3.852 12.603,-2.713 2.572,1.163 4.452,4.005 7.494,4.005 4.146,0.435 6.002,-5.485 3.806,-8.41 -4.71,-6.143 -13.19,-9.514 -20.766,-7.576 -3.747,0.94 -8.363,-2.314 -8.61,-6.143 1.069,-3.254 4.346,-5.356 5.309,-8.715 1.269,-4.346 1.445,-9.502 -1.222,-13.343 -1.362,-2.337 -5.509,-1.269 -5.932,1.304 -0.975,3.136 -1.609,6.636 -4.252,8.891 -4.205,4.792 -11.499,4.205 -17.102,2.843 -7.282,-3.042 -13.002,-9.033 -17.066,-15.669 -1.644,-2.866 -4.464,-5.708 -8.046,-5.215 -1.68,0.786 -3.489,2.054 -3.877,3.992 m -149.663,16.667 c -2.29,1.738 -3.641,4.369 -5.309,6.672 -6.472,9.103 -13.026,18.394 -16.773,29.024 -0.352,1.222 -1.809,4.005 0.599,4.088 7.776,0.611 15.645,0.247 23.444,0.2 3.148,0.211 3.406,-3.5 4.346,-5.638 2.232,-7.365 5.908,-14.248 7.576,-21.765 1.527,-7.565 -6.061,-16.304 -13.883,-12.581 m -223.075,19.017 c -3.03,2.925 -2.701,7.376 -2.467,11.241 0.188,3.488 2.009,6.871 4.757,9.044 2.42,1.903 7,1.692 8.246,-1.503 0.857,-3.782 -0.282,-7.67 0.176,-11.476 1.222,-3.406 5.532,-2.208 8.128,-1.363 1.398,3.195 1.398,9.984 6.366,8.88 3.994,-1.14 3.324,-6.237 3.43,-9.444 0.364,-6.636 -6.155,-11.053 -11.981,-12.286 -6.377,-1.609 -12.497,2.431 -16.655,6.907 m 510.856,1.198 c -8.151,2.972 -12.204,14.13 -6.953,21.342 3.265,5.544 10.782,6.46 16.374,4.334 6.953,-3.359 11.088,-12.756 7.247,-19.815 -3.76,-5.051 -10.56,-7.565 -16.668,-5.861 m -620.173,4.674 c -6.284,1.879 -9.35,10.007 -5.955,15.634 0.928,2.702 3.582,4.581 6.495,3.653 5.356,-1.362 3.395,-8.645 7.47,-11.405 1.856,-1.292 2.161,-3.524 1.715,-5.579 -2.149,-3.09 -6.448,-2.761 -9.725,-2.303 m 54.981,4.417 c -4.804,3.23 -9.256,9.573 -6.495,15.481 1.48,3.829 6.366,2.008 9.385,1.574 1.21,-2.643 2.42,-5.356 4.452,-7.458 3.359,-1.022 5.262,4.135 8.68,3.007 3.406,-0.529 3.195,-5.368 2.478,-7.928 -2.455,-7.472 -12.662,-8.952 -18.5,-4.676 m -94.893,10.912 c -6.26,1.903 -10.571,8.187 -9.949,14.741 -0.482,5.062 3.982,8.621 7.917,10.888 4.628,1.468 10.113,1.01 14.036,-2.02 7.447,-5.262 7.141,-18.194 -0.634,-22.998 -3.547,-1.528 -7.67,-1.41 -11.37,-0.611 m 64.613,5.755 c -6.437,1.926 -10.183,10.078 -6.049,15.775 4.041,6.296 14.588,4.405 17.219,-2.243 3.724,-6.755 -4.369,-14.895 -11.17,-13.532 m 113.875,3.453 c -1.175,0.81 -2.337,1.868 -2.702,3.324 -0.258,2.925 3.571,5.615 1.586,8.422 -4.933,2.784 -10.877,0.176 -16.08,1.691 -3.535,1.233 -5.615,6.249 -2.443,8.974 3.465,4.487 9.479,4.264 14.565,3.958 4.252,-0.059 8.151,-2.185 11.429,-4.734 4.863,-4.017 6.12,-11.898 2.326,-17.02 -2.233,-2.442 -5.322,-4.427 -8.681,-4.615 m 447.534,5.991 c -6.918,2.514 -8.422,13.59 -2.502,18.053 5.391,5.262 15.868,1.503 17.078,-5.814 0.153,-3.371 -1.104,-6.73 -2.995,-9.467 -2.666,-3.454 -7.658,-3.724 -11.581,-2.772 m -44.692,38.479 c -5.438,1.515 -11.041,3.324 -15.41,7.059 -11.746,9.796 -14.342,28.836 -5.168,41.169 4.722,6.848 12.814,11.428 21.213,11.335 3.817,-0.024 4.992,-4.593 3.054,-7.353 -3.03,-4.393 -7.975,-6.942 -11.37,-11.018 -3.5,-3.676 -6.354,-9.056 -4.311,-14.142 4.557,-13.085 22.834,-19.38 34.215,-11.076 3.747,2.255 4.992,6.742 7.776,9.901 2.114,2.479 6.284,0.399 6.319,-2.643 0.646,-6.789 -2.937,-13.719 -8.598,-17.454 -8.034,-5.356 -18.194,-7.998 -27.72,-5.778 m 37.68,41.438 c -3.982,0.775 -7.717,2.96 -10.078,6.284 -3.958,5.814 -3.571,13.672 -0.482,19.768 3.371,4.992 10.336,7.212 16.021,5.168 6.895,-1.809 14.154,-7.447 13.837,-15.234 -0.505,-4.734 -3.23,-8.939 -5.99,-12.662 -3.524,-3.148 -8.75,-4.158 -13.308,-3.324 m -83.418,28.249 c -2.854,0.904 -6.249,3.124 -6.014,6.531 -0.658,3.453 2.537,6.167 5.732,6.519 2.936,0.388 5.309,2.302 8.105,3.148 6.014,-0.118 7.717,-8.821 4.264,-12.85 -2.514,-4.17 -7.893,-4.041 -12.087,-3.348 m -54.053,29.176 c -1.069,1.128 -1.598,2.96 -0.54,4.323 2.537,3.406 6.754,5.955 7.282,10.548 1.456,6.648 -2.96,13.731 -9.49,15.434 -6.73,1.01 -13.872,-1.304 -18.57,-6.249 -3.43,-3.101 -6.695,-8.069 -11.981,-7.247 -5.015,-0.388 -4.968,5.873 -4.041,9.291 6.813,14.905 26.111,22.657 41.345,16.573 13.425,-5.955 18.805,-24.267 11.652,-36.811 -3.418,-4.593 -10.008,-8.528 -15.657,-5.862 m -119.771,8.304 c -3.723,1.292 -7.247,3.665 -9.303,7.094 -2.819,5.38 -2.314,13.343 3.442,16.62 5.426,1.245 11.687,0.811 16.045,-3.007 3.876,-2.525 4.064,-7.67 3.465,-11.769 -0.847,-6.225 -7.342,-11.557 -13.649,-8.938 m 58.728,3.477 c -2.831,1.104 -6.178,3.289 -6.19,6.683 -0.587,3.712 2.854,6.413 5.955,7.635 3.841,-0.071 7.153,-3.019 7.964,-6.73 1.503,-4.428 -3.653,-8.575 -7.729,-7.588 z"
     inkscape:connector-curvature="0"
     style="fill:#dbfcfb;stroke:#dbfcfb;stroke-width:0.5" /><path
     id="path4515"
     d="m 586.407,1185.344 c 11.158,3.806 21.823,8.88 32.911,12.862 6.437,2.678 13.555,3.876 19.286,8.057 -9.162,5.403 -16.726,13.602 -20.555,23.609 -3.571,7.271 -3.418,15.563 -2.854,23.444 0.352,4.228 2.643,7.94 3.629,12.016 0.646,1.82 -1.456,2.807 -2.431,3.97 -4.017,3.359 -7.517,7.329 -10.113,11.887 -3.911,-4.98 -4.839,-11.393 -6.93,-17.196 -5.027,-16.021 -8.844,-32.465 -10.924,-49.144 -1.091,-9.796 -2.747,-19.627 -2.019,-29.505 z"
     inkscape:connector-curvature="0"
     style="fill:#fefefe;stroke:#fefefe;stroke-width:0.5" /><path
     id="path4517"
     d="m 769.37,1209.975 c 0.787,-5.286 7.329,-5.697 11.241,-3.829 4.475,2.643 7.729,7.729 7.506,13.002 -1.409,7.94 -9.89,14.447 -17.983,12.544 -4.499,-1.738 -10.207,-7.165 -5.861,-11.969 3.794,-1.257 7.999,-0.235 11.816,-1.562 -0.67,-3.993 -6.038,-4.298 -6.719,-8.186 z"
     inkscape:connector-curvature="0"
     style="fill:#94c5bf;stroke:#94c5bf;stroke-width:0.5" /><path
     id="path4519"
     d="m 983.811,1223.224 c 7.94,-6.871 19.404,-9.22 29.54,-6.766 7.282,1.175 12.627,6.777 17.665,11.71 4.593,5.391 9.89,11.746 8.598,19.369 -0.599,5.133 -6.178,7.893 -10.912,6.566 0.963,-9.725 -4.675,-18.934 -13.273,-23.256 -6.719,-4.851 -16.35,-3.677 -22.563,1.433 -2.995,3.183 -4.041,7.599 -6.354,11.229 -1.116,2.29 -4.146,1.503 -6.155,1.28 -2.666,-1.081 -2.655,-4.24 -2.631,-6.625 -0.234,-5.532 1.786,-11.311 6.085,-14.94 z"
     inkscape:connector-curvature="0"
     style="fill:#94c5bf;stroke:#94c5bf;stroke-width:0.5" /><path
     id="path4521"
     d="m 724.302,1222.19 c 5.908,-1.081 12.568,0.082 16.984,4.416 3.289,3.242 5.72,7.787 5.72,12.486 -1.456,12.016 -15.493,19.568 -26.557,15.363 -7.188,-2.408 -11.816,-10.595 -9.996,-17.983 1.116,-6.976 6.66,-13.366 13.849,-14.282 m -3.724,17.137 c 0.681,2.725 2.549,5.873 5.72,5.955 4.628,0.188 9.115,-2.267 11.945,-5.873 -1.703,-3.453 -4.369,-6.953 -8.574,-7.141 -4.486,-0.951 -8.139,3.066 -9.091,7.059 z"
     inkscape:connector-curvature="0"
     style="fill:#fdfefe;stroke:#fdfefe;stroke-width:0.5" /><path
     id="path4523"
     d="m 720.578,1239.327 c 0.951,-3.994 4.604,-8.01 9.091,-7.059 4.205,0.188 6.871,3.688 8.574,7.141 -2.831,3.606 -7.318,6.061 -11.945,5.873 -3.171,-0.082 -5.038,-3.23 -5.72,-5.955 z"
     inkscape:connector-curvature="0"
     style="fill:#dbfbfa;stroke:#dbfbfa;stroke-width:0.5" /><path
     id="path4525"
     d="m 938.038,1233.713 c 5.297,-1.456 10.888,0.129 15.763,2.314 4.228,1.832 7.917,6.237 7.024,11.088 -1.339,7.141 -4.064,15.07 -11.135,18.394 -8.14,5.086 -20.567,2.49 -24.748,-6.495 -3.747,-6.378 -0.423,-13.977 3.629,-19.298 2.208,-3.196 5.767,-5.11 9.467,-6.003 m -1.785,12.427 c -2.29,2.608 -3.195,6.883 -1.304,9.96 2.349,3.113 6.989,2.525 10.207,1.257 3.676,-1.445 5.015,-5.427 6.625,-8.68 -1.045,-1.609 -1.527,-4.205 -3.735,-4.522 -3.923,-0.634 -8.587,-0.74 -11.793,1.985 z"
     inkscape:connector-curvature="0"
     style="fill:#fefefe;stroke:#fefefe;stroke-width:0.5" /><path
     id="path4527"
     d="m 871.111,1239.762 c 6.437,-2.608 13.59,2.314 14.4,8.962 -0.552,4.123 -2.655,8.821 -7,10.078 -4.51,1.14 -10.524,0.916 -13.073,-3.629 -3.993,-5.439 -0.47,-13.485 5.673,-15.411 z"
     inkscape:connector-curvature="0"
     style="fill:#fefefe;stroke:#fefefe;stroke-width:0.5" /><path
     style="fill:#b0744c;fill-opacity:1;stroke:#825430;stroke-width:0.5;stroke-opacity:1"
     id="path4529"
     d="m 1372.747,1243.544 c 7.141,-1.868 13.907,2.326 19.345,6.484 7.094,5.062 12.098,12.38 16.761,19.615 5.027,8.574 8.809,17.936 10.888,27.673 2.302,11.346 1.28,23.503 -3.653,34.039 -2.619,6.566 -13.179,6.108 -16.185,0.071 -5.474,-11.711 -0.881,-25.429 -6.343,-37.14 -3.418,-7.435 -7.505,-14.811 -13.707,-20.285 -5.826,-6.026 -13.637,-11.71 -14.271,-20.813 -0.752,-4.629 2.772,-8.728 7.165,-9.644 z"
     inkscape:connector-curvature="0" /><path
     id="path4531"
     d="m 936.253,1246.14 c 3.207,-2.725 7.87,-2.619 11.793,-1.985 2.208,0.317 2.69,2.913 3.735,4.522 -1.609,3.254 -2.948,7.235 -6.625,8.68 -3.218,1.269 -7.858,1.856 -10.207,-1.257 -1.891,-3.077 -0.986,-7.353 1.304,-9.96 z"
     inkscape:connector-curvature="0"
     style="fill:#dbfbfb;stroke:#dbfbfb;stroke-width:0.5" /><path
     id="path4533"
     d="m 798.335,1257.322 c 18.288,-3.406 38.385,3.782 49.99,18.429 5.532,7.752 9.361,17.348 8.563,26.992 0.094,4.311 -6.249,5.462 -8.046,1.856 -1.139,-4.029 -1.269,-8.328 -3.089,-12.157 -3.935,-8.938 -12.098,-15.328 -20.99,-18.911 -6.495,-3.465 -14.048,-1.738 -21.06,-2.149 -5.438,-0.364 -10.301,2.384 -15.011,4.675 -9.22,4.839 -15.457,14.941 -15.07,25.418 0.963,7.94 3.124,15.892 7.623,22.599 1.586,2.772 4.522,5.908 2.748,9.302 -1.856,3.077 -6.531,3.994 -9.667,2.373 -9.737,-4.64 -15.763,-15.281 -16.15,-25.887 -0.787,-13.237 4.51,-26.252 12.791,-36.388 6.59,-8.694 16.762,-14.155 27.368,-16.152 z"
     inkscape:connector-curvature="0"
     style="fill:#94c5bf;stroke:#94c5bf;stroke-width:0.5" /><path
     id="path4535"
     d="m 1194.153,1258.649 c 4.734,-0.481 9.115,2.326 12.861,4.945 8.516,5.544 6.343,20.003 -2.314,24.314 -5.885,3.148 -13.707,2.149 -18.899,-1.926 -5.979,-5.603 -6.366,-15.692 -1.727,-22.234 2.633,-2.785 6.426,-4.183 10.079,-5.099 m 0.024,10.454 c -2.96,1.069 -3.16,4.745 -2.408,7.341 2.079,4.839 10.595,3.312 11.123,-1.868 -1.268,-3.312 -5.086,-6.19 -8.715,-5.473 z"
     inkscape:connector-curvature="0"
     style="fill:#fdfefe;stroke:#fdfefe;stroke-width:0.5" /><path
     id="path4537"
     d="m 669.766,1268.645 c 7.376,-4.663 15.786,-8.786 24.772,-7.987 10.125,-0.658 18.969,6.037 24.971,13.566 3.864,6.026 6.66,13.766 3.947,20.825 -1.175,4.628 -3.688,11.029 -9.678,9.679 -0.622,-5.943 2.008,-11.945 0,-17.748 -1.891,-6.354 -7.646,-10.841 -13.672,-12.979 -4.757,-0.482 -9.678,-0.705 -14.377,0.235 -3.618,1.55 -6.871,3.841 -9.984,6.237 -6.836,5.25 -8.68,15.704 -4.346,23.104 2.079,4.005 5.309,7.341 7.224,11.452 0.634,2.725 0.74,7.083 -2.69,7.928 -3.665,1.398 -7.106,-1.445 -9.761,-3.618 -8.292,-7.917 -13.096,-20.226 -10.195,-31.584 1.574,-8.034 7.447,-14.365 13.789,-19.11 z"
     inkscape:connector-curvature="0"
     style="fill:#94c5bf;stroke:#94c5bf;stroke-width:0.5" /><path
     id="path4539"
     d="m 1194.177,1269.103 c 3.629,-0.716 7.447,2.161 8.715,5.474 -0.529,5.18 -9.044,6.707 -11.123,1.868 -0.752,-2.597 -0.552,-6.273 2.408,-7.342 z"
     inkscape:connector-curvature="0"
     style="fill:#dbfbfa;stroke:#dbfbfa;stroke-width:0.5" /><path
     id="path4541"
     d="m 976.94,1275.07 c 2.455,-2.983 6.836,-5.65 10.677,-3.583 2.091,0.846 1.597,3.524 1.48,5.333 -0.787,3.488 -2.443,6.824 -2.044,10.512 2.69,1.116 5.861,1.057 8.105,-1.022 2.807,-2.079 4.628,-7.177 8.915,-5.391 3.218,2.854 2.467,7.482 2.525,11.335 5.004,4.874 10.63,10.136 17.947,10.806 5.532,0.763 12.873,1.456 15.963,-4.393 4.158,-5.344 1.562,-12.11 1.668,-18.171 2.279,0 5.38,-1.081 6.824,1.386 8.386,10.36 4.804,28.765 -8.081,33.71 -11.147,4.087 -24.114,2.866 -34.403,-3.019 -5.039,-2.807 -8.351,-7.682 -11.241,-12.497 -4.64,0.388 -9.749,1.374 -14.001,-1.045 -8.128,-4.558 -10.383,-16.844 -4.334,-23.961 z"
     inkscape:connector-curvature="0"
     style="fill:#94c5be;stroke:#94c5be;stroke-width:0.5" /><path
     id="path4543"
     d="m 1268.057,1281.988 c 7.599,-5.109 17.184,-7.012 26.205,-5.532 9.784,2.337 17.677,9.408 23.409,17.407 4.546,6.167 5.051,14.342 3.629,21.635 -1.644,6.636 -4.769,13.472 -10.959,16.984 -5.485,4.005 -13.789,4.029 -18.864,-0.67 -1.527,-1.21 -0.893,-3.324 -1.034,-4.957 4.957,-1.28 10.841,-1.515 14.412,-5.697 3.947,-4.041 4.146,-10.16 3.242,-15.399 -2.76,-10.7 -14.4,-18.382 -25.324,-16.315 -6.953,1.691 -10.747,8.257 -16.244,12.169 -3.395,2.279 -7.776,-1.186 -7.646,-4.91 0.165,-6.106 4.523,-11.203 9.174,-14.715 z"
     inkscape:connector-curvature="0"
     style="fill:#94c5bf;stroke:#94c5bf;stroke-width:0.5" /><path
     id="path4545"
     d="m 918.94,1280.649 c 2.713,-1.116 6.014,-1.41 8.386,0.681 5.661,4.135 5.967,12.31 3.618,18.347 -4.604,8.198 -15.469,13.085 -24.455,9.537 -2.901,-0.975 -4.346,-4.628 -2.607,-7.212 2.349,-3.171 6.542,-3.465 10.066,-4.322 3.406,-0.634 6.848,-3.148 7.447,-6.719 -0.599,-3.5 -2.314,-6.73 -2.455,-10.312 z"
     inkscape:connector-curvature="0"
     style="fill:#94c5bf;stroke:#94c5bf;stroke-width:0.5" /><path
     id="path4547"
     d="m 1107.223,1284.231 c 4.604,-0.951 9.784,-0.799 13.836,1.867 4.922,3.829 7.729,10.313 6.542,16.538 -0.27,4.722 -7.447,8.445 -10.548,4.005 -0.811,-2.819 0.94,-6.026 -0.693,-8.668 -1.175,-2.878 -4.734,-2.279 -7.188,-2.126 -4.698,0.188 -6.026,6.66 -10.653,6.859 -4.804,0.857 -6.848,-5.462 -5.673,-9.173 2.138,-5.896 8.587,-8.527 14.377,-9.302 z"
     inkscape:connector-curvature="0"
     style="fill:#94c5bf;stroke:#94c5bf;stroke-width:0.5" /><path
     id="path4549"
     d="m 1179.33,1302.801 c 0.388,-1.938 2.197,-3.207 3.876,-3.994 3.582,-0.493 6.401,2.349 8.046,5.215 4.064,6.636 9.784,12.627 17.066,15.669 5.603,1.362 12.897,1.95 17.102,-2.843 2.643,-2.255 3.277,-5.755 4.252,-8.891 0.423,-2.572 4.569,-3.641 5.932,-1.304 2.666,3.841 2.49,8.997 1.222,13.343 -0.963,3.359 -4.24,5.462 -5.309,8.715 0.247,3.829 4.863,7.083 8.61,6.143 7.576,-1.938 16.056,1.433 20.766,7.576 2.196,2.925 0.341,8.845 -3.806,8.41 -3.042,0 -4.921,-2.842 -7.494,-4.005 -4.287,-1.139 -9.514,-0.869 -12.603,2.713 -3.524,3.371 -5.192,9.103 -2.514,13.484 2.432,4.393 7.952,5.192 11.264,8.645 1.797,2.009 1.045,4.851 0.834,7.282 -6.989,3.947 -15.446,0.141 -20.25,-5.474 -5.004,-5.227 -7.412,-12.991 -5.427,-20.038 0.951,-3.782 3.582,-6.871 4.557,-10.618 -1.715,-3.371 -4.158,-6.272 -6.096,-9.479 -4.886,-0.094 -9.866,0.446 -14.67,-0.67 -8.75,-2.502 -16.926,-7.74 -21.964,-15.434 -2.959,-4.132 -4.357,-9.418 -3.394,-14.445 z"
     inkscape:connector-curvature="0"
     style="fill:#94c5bf;stroke:#94c5bf;stroke-width:0.5" /><path
     id="path4551"
     d="m 999.844,1320.185 c 6.049,-3.653 14.212,2.772 13.085,9.444 -1.527,10.736 -8.539,19.474 -12.098,29.505 -14.377,0.975 -28.812,-0.164 -43.212,0.164 -9.784,0.341 -19.698,-0.916 -29.376,0.916 -4.687,0.975 -9.42,1.586 -14.189,1.715 -4.71,0.141 -8.962,2.373 -13.508,3.312 -12.439,2.408 -24.02,8.551 -33.557,16.82 -4.123,-11.335 0.388,-23.397 6.178,-33.24 3.712,-6.225 7.705,-13.754 15.363,-15.54 5.015,-0.799 7.599,4.616 11.029,7.282 2.232,-5.45 4.264,-11.44 9.056,-15.211 2.443,-1.962 5.65,-3.688 8.856,-2.749 3.747,1.339 6.037,5.403 5.802,9.314 -0.176,6.413 -1.727,12.721 -1.844,19.157 1.75,-1.809 3.336,-3.829 4.017,-6.284 2.455,-7.705 5.638,-15.869 12.31,-20.896 3.841,-2.702 9.338,-5.309 13.672,-2.091 4.099,2.267 4.346,7.388 5.356,11.464 5.156,-4.593 9.15,-11.276 16.221,-13.049 4.581,-1.28 9.725,2.361 9.749,7.188 0.176,6.672 -3.395,12.627 -4.839,19.016 4.687,-2.69 7.329,-7.541 10.207,-11.898 3.289,-5.213 5.744,-11.614 11.722,-14.339 z"
     inkscape:connector-curvature="0"
     style="fill:#fefefe;stroke:#fefefe;stroke-width:0.5" /><path
     id="path4553"
     d="m 1029.667,1319.468 c 7.823,-3.723 15.41,5.015 13.883,12.58 -1.668,7.517 -5.344,14.4 -7.576,21.765 -0.94,2.138 -1.198,5.849 -4.346,5.638 -7.799,0.047 -15.669,0.411 -23.444,-0.2 -2.408,-0.082 -0.951,-2.866 -0.599,-4.088 3.747,-10.63 10.301,-19.921 16.773,-29.024 1.667,-2.301 3.018,-4.932 5.309,-6.671 z"
     inkscape:connector-curvature="0"
     style="fill:#fefeff;stroke:#fefeff;stroke-width:0.5" /><path
     id="path4555"
     d="m 1087.279,1324.39 c 2.983,-2.361 7.646,-2.255 10.36,0.47 2.349,4.816 1.738,10.442 2.373,15.645 2.936,-3.688 5.38,-7.799 8.797,-11.076 4.229,-4.04 10.665,-5.556 16.244,-3.782 2.948,1.351 5.309,4.311 5.297,7.67 0.517,5.615 -3.5,10.125 -4.945,15.305 6.495,-5.38 9.432,-14.236 17.184,-18.288 4.323,-2.772 11.358,-2.185 13.496,3.066 1.01,3.571 0.599,7.376 0.858,11.064 4.134,-4.745 8.292,-9.843 14.107,-12.591 4.264,-2.138 9.584,-0.118 12.086,3.759 3.301,4.44 1.562,10.219 1.315,15.281 3.418,-2.819 6.237,-6.296 9.831,-8.891 4.323,-1.692 9.878,0.517 11.64,4.91 2.056,4.757 0.764,10.184 -1.609,14.577 -3.124,5.614 -5.027,11.945 -9.279,16.879 -5.333,-7.67 -15.011,-8.774 -22.528,-13.237 -6.871,-3.371 -14.706,-3.853 -22.211,-4.252 -37.751,-0.012 -75.513,0.012 -113.264,0 -0.211,-2.631 0.035,-5.321 1.55,-7.553 5.063,-8.609 8.727,-18.229 15.728,-25.558 3.747,-3.888 10.148,-5.838 15.035,-2.925 4.334,2.384 4.604,7.881 5.943,12.122 3.993,-4.197 7.259,-9.177 11.992,-12.595 z"
     inkscape:connector-curvature="0"
     style="fill:#fefefe;stroke:#fefefe;stroke-width:0.5" /><path
     id="path4557"
     d="m 806.592,1338.485 c 4.158,-4.475 10.277,-8.516 16.655,-6.906 5.826,1.233 12.345,5.65 11.981,12.286 -0.106,3.207 0.564,8.304 -3.43,9.444 -4.968,1.104 -4.968,-5.685 -6.366,-8.88 -2.596,-0.846 -6.906,-2.044 -8.128,1.363 -0.458,3.806 0.681,7.693 -0.176,11.476 -1.245,3.195 -5.826,3.406 -8.246,1.503 -2.748,-2.173 -4.569,-5.556 -4.757,-9.044 -0.234,-3.866 -0.563,-8.318 2.467,-11.242 z"
     inkscape:connector-curvature="0"
     style="fill:#94c5be;stroke:#94c5be;stroke-width:0.5" /><path
     style="fill:#a4663d;fill-opacity:1;stroke:#6e4729;stroke-width:0.5;stroke-opacity:1"
     id="path4559"
     d="m 144.781,1355.563 c 12.568,-10.653 28.037,-18.652 44.669,-19.78 8.304,0.47 17.489,3.089 22.376,10.371 3.653,4.534 5.368,10.125 6.824,15.669 0.305,0.2 0.94,0.622 1.257,0.822 3.864,-2.784 7.036,-6.472 11.241,-8.762 9.866,-5.932 21.483,-8.668 32.935,-8.351 5.051,0.916 10.078,2.267 14.87,4.134 5.45,4.111 7.188,10.982 8.997,17.219 3.054,-2.925 5.309,-6.507 7.987,-9.737 4.193,-4.722 8.891,-9.021 14.165,-12.486 4.663,-3.207 9.843,-6.19 15.657,-6.307 7.682,-0.858 15.105,3.265 19.909,9.021 5.591,7.482 7.599,17.031 7.576,26.24 2.196,-0.681 4.134,-1.95 5.333,-3.947 5.156,-7.623 11.499,-14.964 20.179,-18.594 7.752,-3.23 16.55,-5.521 24.854,-3.03 10.101,2.349 16.385,12.333 18.253,21.964 1.656,9.608 2.678,19.463 1.644,29.212 -1.01,5.885 -1.938,11.863 -4.299,17.395 -4.369,8.398 -6.66,17.713 -11.346,25.982 -5.65,9.995 -10.137,20.708 -17.008,29.987 -4.522,6.307 -10.277,11.593 -15.681,17.125 -7.224,7.141 -18.03,11.945 -28.201,8.938 -8.21,-2.76 -14.201,-9.69 -18.124,-17.161 -3.418,-5.791 -3.794,-12.65 -5.45,-19.016 -5.568,7.329 -10.066,15.587 -17.031,21.765 -5.673,5.015 -11.687,10.536 -19.451,11.793 -6.495,0.81 -13.684,0.305 -18.875,-4.111 -9.855,-8.527 -15.915,-21.142 -16.855,-34.109 -0.294,-6.319 0.059,-12.638 -0.047,-18.946 -6.108,5.979 -12.263,11.945 -19.439,16.655 -10.36,7.881 -23.092,13.719 -36.4,12.333 -7.952,0.388 -14.071,-5.521 -18.781,-11.182 -6.108,-7.917 -7.682,-18.382 -6.155,-28.072 1.75,-5.25 3.042,-10.783 6.178,-15.434 2.502,-3.735 5.344,-7.294 6.906,-11.546 -5.45,2.455 -9.772,6.906 -15.516,8.809 -9.173,3.042 -19.134,6.249 -28.695,2.831 -6.578,-1.069 -11.734,-5.767 -14.506,-11.675 -2.408,-7.341 -2.549,-15.563 -0.223,-22.939 4.157,-9.631 12.544,-16.397 20.273,-23.08 z"
     inkscape:connector-curvature="0" /><path
     id="path4561"
     d="m 1317.448,1339.683 c 6.108,-1.703 12.909,0.81 16.667,5.861 3.841,7.059 -0.294,16.456 -7.247,19.815 -5.591,2.126 -13.108,1.21 -16.374,-4.334 -5.25,-7.212 -1.197,-18.371 6.954,-21.342 z"
     inkscape:connector-curvature="0"
     style="fill:#fcfefd;stroke:#fcfefd;stroke-width:0.5" /><path
     id="path4563"
     d="m 697.275,1344.357 c 3.277,-0.458 7.576,-0.787 9.725,2.302 0.446,2.056 0.141,4.287 -1.715,5.579 -4.076,2.76 -2.114,10.043 -7.47,11.405 -2.913,0.928 -5.567,-0.951 -6.495,-3.653 -3.395,-5.625 -0.329,-13.753 5.955,-15.633 z"
     inkscape:connector-curvature="0"
     style="fill:#94c5bf;stroke:#94c5bf;stroke-width:0.5" /><path
     id="path4565"
     d="m 752.256,1348.774 c 5.838,-4.276 16.045,-2.796 18.5,4.675 0.716,2.561 0.928,7.4 -2.478,7.928 -3.418,1.128 -5.321,-4.029 -8.68,-3.007 -2.032,2.103 -3.242,4.816 -4.452,7.458 -3.019,0.435 -7.905,2.255 -9.385,-1.574 -2.76,-5.907 1.692,-12.25 6.495,-15.48 z"
     inkscape:connector-curvature="0"
     style="fill:#94c5bf;stroke:#94c5bf;stroke-width:0.5" /><path
     id="path4567"
     d="m 1363.761,1346.213 c 7.141,0.846 14.224,2.361 21.448,2.572 7.083,0.211 14.001,1.985 21.095,2.208 7.893,0.2 15.61,2.114 23.515,2.314 6.695,0.188 13.331,1.116 19.885,2.549 -11.793,22.305 -27.262,42.531 -44.716,60.678 -3.359,3.759 -6.319,8.245 -11.311,9.996 -2.772,-6.202 -6.202,-12.11 -10.195,-17.583 -2.326,-3.218 -6.096,-4.804 -8.915,-7.458 -1.832,-4.628 -2.056,-9.843 -4.687,-14.154 -2.913,-5.826 -8.21,-9.714 -12.509,-14.365 2.197,-8.88 5.568,-17.548 6.39,-26.757 z"
     inkscape:connector-curvature="0"
     style="fill:#ffffff;stroke:#ffffff;stroke-width:0.5" /><path
     id="path4569"
     d="m 657.363,1359.686 c 3.7,-0.799 7.823,-0.916 11.37,0.611 7.776,4.804 8.081,17.736 0.634,22.998 -3.923,3.031 -9.408,3.489 -14.036,2.02 -3.935,-2.267 -8.398,-5.826 -7.917,-10.888 -0.622,-6.555 3.688,-12.839 9.949,-14.741 z"
     inkscape:connector-curvature="0"
     style="fill:#fdfefe;stroke:#fdfefe;stroke-width:0.5" /><path
     style="fill:#bf68f4;fill-opacity:1;stroke:#af7dfd;stroke-width:0.5;stroke-opacity:1"
     id="path4571"
     d="m 914.054,1361.929 c 4.769,-0.129 9.502,-0.74 14.189,-1.715 22.305,-0.611 44.669,-0.599 66.962,0.552 13.942,0.047 27.884,-0.035 41.826,0.129 37.751,0.012 75.513,-0.012 113.264,0 7.505,0.399 15.34,0.881 22.211,4.252 7.517,4.463 17.196,5.567 22.528,13.237 1.198,2.537 2.208,5.18 2.972,7.905 0.869,11.346 5.791,22.329 4.087,33.828 -1.022,8.234 -2.807,16.35 -4.182,24.537 -4.968,14.987 -16.879,26.24 -29.928,34.45 2.561,-2.901 5.568,-5.521 7.365,-8.985 4.358,-13.496 3.688,-27.943 1.785,-41.815 -1.715,-10.947 -2.69,-22.105 -6.037,-32.712 -1.809,-5.45 -7.599,-7.87 -12.756,-9.009 -13.86,-3.301 -28.143,-4.158 -42.155,-6.531 -12.216,0.035 -24.184,-2.913 -36.4,-2.572 -11.358,0.012 -22.716,-0.059 -34.074,0.082 -11.006,0.176 -21.859,2.537 -32.865,2.22 -5.168,-0.117 -10.301,0.329 -15.375,1.198 -7.47,1.327 -15.105,0.904 -22.599,1.985 -7.623,1.057 -15.316,1.01 -22.963,1.515 -22.904,3.336 -46.325,3.535 -68.818,9.467 -13.86,4.651 -27.966,11.135 -37.093,23.033 -16.82,0.869 -33.64,3.359 -50.506,2.067 -12.145,-0.811 -24.384,0.294 -36.494,-1.257 -6.965,-0.846 -13.989,-0.153 -20.978,-0.529 -25.488,-2.185 -50.965,1.092 -76.418,2.032 -10.888,0.576 -21.8,0.552 -32.7,0.388 -7.165,-0.035 -14.071,-2.396 -21.224,-2.49 -13.378,-0.188 -26.604,-2.972 -40.006,-2.42 -27.414,-0.258 -54.829,-0.235 -82.243,0 -9.032,0.153 -18.112,-0.423 -27.109,0.728 -7.881,0.975 -15.845,0.012 -23.715,1.034 -5.109,0.658 -10.289,0.763 -15.399,0.082 2.361,-5.532 3.289,-11.511 4.299,-17.395 0.74,-1.503 1.574,-2.948 2.384,-4.381 12.462,-0.822 24.783,1.961 37.246,1.092 15.234,1.257 30.515,1.057 45.796,1.21 16.045,-0.082 32.101,0.117 48.146,-0.035 9.044,-0.27 17.983,1.68 27.039,1.233 6.977,0.376 13.966,-0.822 20.931,-0.141 9.878,1.421 19.885,0.211 29.822,0.188 12.474,0.481 24.842,-1.691 37.328,-1.186 45.796,0.012 91.593,-0.505 137.378,0.117 10.606,0.904 21.189,2.49 31.866,2.149 4.804,-0.681 8.351,3.113 12.815,4.005 1.316,-8.527 6.942,-15.399 12.732,-21.412 9.537,-8.269 21.119,-14.412 33.557,-16.82 4.547,-0.937 8.799,-3.169 13.509,-3.31 z"
     inkscape:connector-curvature="0" /><path
     id="path4573"
     d="m 721.976,1365.441 c 6.801,-1.363 14.894,6.777 11.17,13.531 -2.631,6.648 -13.179,8.539 -17.219,2.243 -4.134,-5.696 -0.388,-13.848 6.049,-15.774 z"
     inkscape:connector-curvature="0"
     style="fill:#fdfefe;stroke:#fdfefe;stroke-width:0.5" /><path
     id="path4575"
     d="m 835.851,1368.894 c 3.359,0.188 6.448,2.173 8.68,4.616 3.794,5.121 2.537,13.003 -2.326,17.02 -3.277,2.549 -7.177,4.675 -11.429,4.734 -5.086,0.305 -11.1,0.529 -14.565,-3.958 -3.171,-2.725 -1.092,-7.74 2.443,-8.974 5.203,-1.515 11.147,1.092 16.08,-1.691 1.985,-2.807 -1.844,-5.497 -1.586,-8.422 0.365,-1.457 1.528,-2.514 2.703,-3.325 z"
     inkscape:connector-curvature="0"
     style="fill:#94c5be;stroke:#94c5be;stroke-width:0.5" /><path
     id="path4577"
     d="m 1209.904,1372.982 c 5.838,-5.051 15.422,2.243 12.885,9.361 -2.878,8.046 -8.727,14.612 -12.462,22.27 3.16,1.738 7.177,3.289 8.269,7.141 2.525,6.707 -1.503,13.414 -4.992,18.934 -4.522,6.284 -8.88,12.885 -15.011,17.736 -0.176,-0.94 -0.505,-2.819 -0.681,-3.77 1.374,-8.187 3.16,-16.303 4.182,-24.537 1.703,-11.499 -3.218,-22.481 -4.087,-33.828 0.246,-6.824 7.175,-9.748 11.897,-13.307 z"
     inkscape:connector-curvature="0"
     style="fill:#fefefe;stroke:#fefefe;stroke-width:0.5" /><path
     id="path4579"
     d="m 1283.385,1374.885 c 3.923,-0.951 8.915,-0.681 11.581,2.772 1.891,2.737 3.148,6.096 2.995,9.467 -1.21,7.318 -11.687,11.076 -17.078,5.814 -5.919,-4.464 -4.416,-15.54 2.502,-18.053 z"
     inkscape:connector-curvature="0"
     style="fill:#fefefe;stroke:#fefefe;stroke-width:0.5" /><path
     style="fill:#7230b0;fill-opacity:1;stroke:#7939b9;stroke-width:0.5;stroke-opacity:1"
     id="path4581"
     d="m 1012.847,1379.782 c 11.006,0.317 21.859,-2.044 32.865,-2.22 11.358,-0.141 22.716,-0.07 34.074,-0.082 12.215,-0.341 24.184,2.607 36.4,2.572 14.013,2.372 28.295,3.23 42.155,6.531 5.156,1.139 10.947,3.559 12.756,9.009 3.348,10.606 4.323,21.765 6.037,32.712 1.903,13.872 2.572,28.319 -1.785,41.815 -1.797,3.465 -4.804,6.084 -7.365,8.985 -6.589,5.826 -14.236,10.348 -22.258,13.919 -20.156,8.574 -42.003,11.757 -63.591,14.341 -14.894,1.116 -29.634,3.712 -44.563,4.428 -5.497,0.54 -10.924,1.868 -16.468,1.797 -12.568,-0.082 -25.077,1.433 -37.645,1.21 -18.1,-0.012 -36.294,0.399 -54.277,-2.091 -11.558,-1.21 -23.409,-0.423 -34.685,-3.618 -7.881,-2.032 -16.174,-3.171 -23.303,-7.318 -5.485,-3.359 -11.064,-6.683 -15.927,-10.912 -4.945,-4.17 -7.505,-10.219 -10.336,-15.845 -15.258,2.326 -30.574,4.346 -45.902,6.26 -4.651,0.834 -9.279,1.985 -14.036,1.785 -8.727,-0.294 -17.231,2.056 -25.911,2.314 -8.985,0.247 -17.865,2.079 -26.862,2.243 -4.123,0.024 -8.21,0.646 -12.286,1.175 -10.759,0.764 -21.565,0.775 -32.301,1.727 -8.997,1.527 -18.171,0.47 -27.227,1.48 -9.808,-0.012 -19.486,1.915 -29.306,1.644 -17.607,0.305 -35.296,0.094 -52.785,2.244 -16.103,0.352 -32.254,-0.376 -48.31,1.092 -8.586,0.329 -17.184,-0.012 -25.758,0.576 -12.486,1.339 -25.089,0.352 -37.598,1.503 -5.614,0.552 -11.276,-0.294 -16.867,0.505 2.502,0.176 5.015,0.247 7.529,0.294 -0.27,0.223 -0.799,0.681 -1.069,0.916 -16.914,-0.74 -33.828,0.176 -50.659,1.762 -10.336,0.94 -20.778,-0.059 -31.091,1.092 -12.615,3.019 -25.688,0.646 -38.42,2.608 -7.329,0.857 -14.694,1.445 -22.07,1.515 -14.095,1.116 -28.213,1.938 -42.343,2.408 -15.998,1.597 -32.101,1.527 -48.134,2.643 -9.35,1.374 -18.817,0.646 -28.213,1.128 -11.722,1.057 -23.527,0.435 -35.214,1.868 -16.973,0.023 -34.039,1.045 -50.941,-0.893 -11.523,-1.233 -23.08,-3.077 -33.957,-7.212 -9.984,-3.3 -19.604,-9.643 -24.466,-19.204 -3.806,-8.68 -5.25,-18.499 -3.019,-27.779 2.396,-8.386 9.115,-14.741 16.55,-18.864 15.035,-8.328 32.324,-11.158 49.226,-12.662 7.212,-1.609 14.6,-1.28 21.917,-1.68 11.593,-1.668 23.256,-3.195 34.979,-3.536 0.012,1.527 0,3.066 -0.023,4.628 -1.527,9.69 0.047,20.156 6.155,28.072 4.71,5.661 10.83,11.569 18.781,11.182 13.308,1.386 26.04,-4.452 36.4,-12.333 7.177,-4.71 13.331,-10.677 19.439,-16.655 0.106,6.307 -0.247,12.627 0.047,18.946 0.94,12.967 7,25.582 16.855,34.109 5.192,4.416 12.38,4.921 18.875,4.111 7.764,-1.257 13.778,-6.777 19.451,-11.793 6.965,-6.178 11.464,-14.436 17.031,-21.765 1.656,6.366 2.032,13.226 5.45,19.016 3.923,7.47 9.913,14.4 18.124,17.161 10.172,3.007 20.978,-1.797 28.201,-8.938 5.403,-5.532 11.158,-10.818 15.681,-17.125 6.871,-9.279 11.358,-19.991 17.008,-29.987 4.687,-8.269 6.977,-17.583 11.346,-25.982 5.109,0.681 10.289,0.576 15.399,-0.082 7.87,-1.022 15.833,-0.059 23.715,-1.034 8.997,-1.151 18.077,-0.575 27.109,-0.728 27.414,-0.235 54.829,-0.258 82.243,0 13.402,-0.552 26.628,2.232 40.006,2.42 7.153,0.094 14.06,2.455 21.224,2.49 10.9,0.164 21.812,0.188 32.7,-0.388 25.453,-0.94 50.929,-4.217 76.418,-2.032 6.989,0.376 14.013,-0.317 20.978,0.529 12.11,1.551 24.349,0.446 36.494,1.257 16.867,1.292 33.687,-1.198 50.506,-2.067 9.126,-11.898 23.233,-18.382 37.093,-23.033 22.493,-5.932 45.914,-6.131 68.818,-9.467 7.646,-0.505 15.34,-0.458 22.963,-1.515 7.494,-1.081 15.128,-0.658 22.599,-1.985 5.073,-0.868 10.206,-1.314 15.374,-1.197 z"
     inkscape:connector-curvature="0" /><path
     style="fill:#bf68f4;fill-opacity:1;stroke:#af7dfd;stroke-width:0.5;stroke-opacity:1"
     id="path4583"
     d="m 110.542,1405.6 c 4.827,-0.94 9.514,-2.502 14.189,-4.017 2.772,5.908 7.928,10.606 14.506,11.675 9.561,3.418 19.521,0.211 28.695,-2.831 5.744,-1.903 10.066,-6.354 15.516,-8.809 -1.562,4.252 -4.405,7.811 -6.906,11.546 -3.136,4.651 -4.428,10.184 -6.178,15.434 0.023,-1.562 0.035,-3.101 0.023,-4.628 -11.722,0.341 -23.386,1.868 -34.979,3.536 -7.318,0.399 -14.706,0.071 -21.917,1.68 -16.902,1.503 -34.192,4.334 -49.226,12.662 -7.435,4.123 -14.154,10.477 -16.55,18.864 -2.232,9.279 -0.787,19.099 3.019,27.779 -3.559,-3.312 -4.193,-8.433 -4.734,-12.979 -0.54,-9.338 -4.816,-18.664 -1.445,-27.943 3.23,-7.694 8.492,-14.635 15.128,-19.709 5.556,-4.546 11.44,-8.774 18.206,-11.323 10.23,-5.276 21.213,-9.34 32.653,-10.937 z"
     inkscape:connector-curvature="0" /><path
     id="path4585"
     d="m 1238.693,1413.364 c 9.526,-2.22 19.686,0.423 27.72,5.779 5.661,3.735 9.244,10.665 8.598,17.454 -0.035,3.042 -4.205,5.121 -6.319,2.643 -2.784,-3.16 -4.029,-7.646 -7.776,-9.901 -11.382,-8.304 -29.658,-2.009 -34.215,11.076 -2.044,5.086 0.811,10.465 4.311,14.142 3.395,4.076 8.339,6.625 11.37,11.018 1.938,2.76 0.763,7.329 -3.054,7.353 -8.398,0.094 -16.491,-4.487 -21.213,-11.335 -9.173,-12.333 -6.578,-31.373 5.168,-41.169 4.369,-3.736 9.972,-5.545 15.41,-7.06 z"
     inkscape:connector-curvature="0"
     style="fill:#94c5bf;stroke:#94c5bf;stroke-width:0.5" /><path
     id="path4587"
     d="m 1276.373,1454.802 c 4.557,-0.834 9.784,0.176 13.308,3.324 2.76,3.723 5.485,7.928 5.99,12.662 0.317,7.787 -6.942,13.425 -13.837,15.234 -5.685,2.044 -12.65,-0.176 -16.021,-5.168 -3.089,-6.096 -3.477,-13.954 0.482,-19.768 2.361,-3.324 6.096,-5.508 10.078,-6.284 m -0.012,11.605 c -1.797,1.045 -2.49,3.371 -2.666,5.356 0.987,3.042 4.346,5.72 7.658,4.416 3.007,-0.834 6.636,-3.97 4.828,-7.353 -2.22,-2.818 -6.542,-3.852 -9.82,-2.419 z"
     inkscape:connector-curvature="0"
     style="fill:#fdfefe;stroke:#fdfefe;stroke-width:0.5" /><path
     id="path4589"
     d="m 1276.361,1466.407 c 3.277,-1.433 7.599,-0.399 9.819,2.42 1.809,3.383 -1.821,6.519 -4.828,7.353 -3.312,1.304 -6.672,-1.374 -7.658,-4.416 0.177,-1.986 0.87,-4.312 2.667,-5.357 z"
     inkscape:connector-curvature="0"
     style="fill:#dcfbfb;stroke:#dcfbfb;stroke-width:0.5" /><path
     id="path4591"
     d="m 1192.955,1483.051 c 4.193,-0.693 9.573,-0.822 12.086,3.348 3.453,4.029 1.75,12.732 -4.264,12.85 -2.796,-0.846 -5.168,-2.76 -8.105,-3.148 -3.195,-0.352 -6.39,-3.066 -5.732,-6.519 -0.233,-3.407 3.161,-5.627 6.015,-6.531 z"
     inkscape:connector-curvature="0"
     style="fill:#94c5bf;stroke:#94c5bf;stroke-width:0.5" /><path
     style="fill:#a4663d;fill-opacity:1;stroke:#59493f;stroke-width:0.5;stroke-opacity:1"
     id="path4593"
     d="m 405.582,1502.537 c 16.832,-1.586 33.745,-2.502 50.659,-1.762 -5.18,7.294 -11.511,13.719 -16.092,21.459 -13.249,20.637 -21.812,44.14 -36.987,63.568 -11.17,15.375 -27.25,26.604 -44.563,34.074 -17.971,7.177 -37.105,11.088 -56.321,12.826 -14.576,0.411 -29.341,1.139 -43.741,-1.621 -22.787,-3.218 -45.55,-11.217 -62.969,-26.698 -4.921,-4.534 -9.279,-9.678 -12.92,-15.281 -6.366,-10.031 -9.42,-21.6 -12.674,-32.888 -3.512,-12.991 -5.685,-26.346 -6.683,-39.748 -18.323,-1.01 -36.729,0.317 -55.052,-0.669 l 0.916,-0.893 c 16.902,1.938 33.969,0.916 50.941,0.893 11.687,-1.433 23.491,-0.811 35.214,-1.868 9.397,-0.482 18.864,0.247 28.213,-1.128 16.033,-1.116 32.136,-1.045 48.134,-2.643 14.13,-0.47 28.248,-1.292 42.343,-2.408 7.376,-0.071 14.741,-0.658 22.07,-1.515 12.732,-1.962 25.805,0.411 38.42,-2.608 10.314,-1.149 20.756,-0.151 31.092,-1.09 z"
     inkscape:connector-curvature="0" /><path
     id="path4595"
     d="m 1138.902,1512.227 c 5.65,-2.666 12.239,1.269 15.657,5.861 7.153,12.545 1.774,30.856 -11.652,36.811 -15.234,6.084 -34.532,-1.668 -41.345,-16.573 -0.928,-3.418 -0.975,-9.679 4.041,-9.291 5.286,-0.822 8.551,4.146 11.981,7.247 4.698,4.945 11.84,7.259 18.57,6.249 6.531,-1.703 10.947,-8.786 9.49,-15.434 -0.529,-4.593 -4.745,-7.141 -7.282,-10.548 -1.058,-1.362 -0.529,-3.194 0.54,-4.322 z"
     inkscape:connector-curvature="0"
     style="fill:#94c5bf;stroke:#94c5bf;stroke-width:0.5" /><path
     id="path4597"
     d="m 1019.131,1520.531 c 6.307,-2.619 12.803,2.713 13.648,8.938 0.599,4.099 0.411,9.244 -3.465,11.769 -4.358,3.817 -10.618,4.252 -16.045,3.007 -5.755,-3.277 -6.26,-11.241 -3.442,-16.62 2.057,-3.429 5.58,-5.802 9.304,-7.094 z"
     inkscape:connector-curvature="0"
     style="fill:#fefefe;stroke:#fefefe;stroke-width:0.5" /><path
     id="path4599"
     d="m 1077.859,1524.008 c 4.076,-0.987 9.232,3.16 7.729,7.588 -0.81,3.712 -4.123,6.66 -7.964,6.73 -3.101,-1.222 -6.542,-3.923 -5.955,-7.635 0.012,-3.394 3.359,-5.579 6.19,-6.683 z"
     inkscape:connector-curvature="0"
     style="fill:#fdfefe;stroke:#fdfefe;stroke-width:0.5" /></g>
</g>
</svg>