<?xml version="1.0" encoding="UTF-8"?>
<!DOCTYPE svg PUBLIC "-//W3C//DTD SVG 1.1//EN" "http://www.w3.org/Graphics/SVG/1.1/DTD/svg11.dtd">
<svg version="1.1" xmlns="http://www.w3.org/2000/svg" xmlns:xlink="http://www.w3.org/1999/xlink" x="0" y="0" width="712.88" height="835.24" viewBox="0, 0, 536, 628">
  <defs>
    <clipPath id="Clip_1">
      <path d="M0.06,0.673 L535.474,0.673 L535.474,628 L0.06,628 z"/>
    </clipPath>
  </defs>
  <g id="Layer_1">
    <g clip-path="url(#Clip_1)">
      <path d="M61.063,180.193 C54.866,178.716 49.331,177.021 44.242,174.055 C29.702,165.582 24.035,151.075 29.541,135.2 C34.679,120.384 44.746,109.189 56.955,99.803 C67.697,91.545 79.373,84.772 92.212,80.432 C99.079,78.112 104.294,74.132 109.394,69.172 C136.103,43.193 166.653,23.146 202.219,11.447 C235.177,0.605 269.027,-1.484 303.334,2.645 C346.331,7.819 385.894,22.218 420.036,49.12 C465.831,85.205 490.042,132.29 488.698,191.329 C488.409,204.007 486.037,216.472 481.726,228.452 C480.845,230.901 481.041,232.705 482.158,234.974 C486.94,244.689 488.133,255.142 486.484,265.642 C483.979,281.607 473.614,290.644 456.691,292.003 C452.94,292.304 451.741,293.638 450.958,296.968 C443.374,329.214 427.558,356.526 401.867,377.768 C399.763,379.508 399.546,380.532 401.06,382.85 C411.599,398.979 411.106,417.09 399.533,432.602 C397.606,435.185 398.625,436.635 399.745,438.668 C416.971,469.922 431.177,502.413 440.377,536.998 C448.612,567.954 438.33,592.612 410.401,608.286 C397.038,615.786 382.615,620.093 367.581,622.582 C364.95,623.017 362.044,622.86 360.856,620.493 C359.16,617.111 357.276,618.15 354.923,619.15 C339.699,625.625 323.922,628.852 307.278,627.806 C298.028,627.224 292.667,622.472 292.353,613.207 C292.254,610.289 289.915,610.47 288.565,610.44 C287.193,610.409 284.904,610.291 284.69,613.111 C283.925,623.189 278.942,627.242 268.897,627.837 C252.913,628.783 237.821,625.528 223.154,619.605 C221.233,618.829 219.634,617.942 217.907,620.097 C216.566,621.77 214.407,622.047 212.375,621.702 C190.559,617.989 170.023,611.143 153.459,595.726 C136.177,579.64 131.964,559.677 137.504,537.26 C146.415,501.199 160.954,467.403 179.021,435.06 C180.517,432.381 180.876,430.403 179.137,427.485 C174.582,419.838 173.142,411.33 174.007,402.487 C174.241,400.094 173.73,398.598 171.475,397.248 C146.325,382.192 127.889,360.993 115.189,334.745 C113.354,330.954 111.789,329.473 107.123,330.25 C92.502,332.686 79.324,325.015 74.086,311.143 C69.51,299.021 68.223,286.636 73.382,274.168 C74.633,271.143 79.14,269.252 78.143,266.295 C77.304,263.807 73.267,262.551 71.037,260.352 C60.052,249.517 55.302,235.837 54.072,220.869 C52.926,206.933 54.211,193.25 61.063,180.193" fill="#6E4100"/>
      <path d="M109.925,568.854 C109.912,574.23 105.089,577.228 100.356,574.848 C96.213,572.764 92.261,570.248 88.417,567.64 C86.207,566.141 84.757,566.152 82.93,568.198 C80.049,571.423 76.85,574.36 73.853,577.485 C70.988,580.472 67.812,580.622 64.388,578.675 C61.643,577.114 58.628,575.824 56.306,573.766 C51.884,569.848 49.13,571.705 45.688,575.314 C33.741,587.839 36.144,586.804 21.466,578.371 C18.011,576.386 14.707,574.136 11.357,571.97 C7.759,569.645 7.017,566.475 9.426,563.031 C11.715,559.76 14.854,558.814 18.539,561.09 C23.171,563.951 27.844,569.516 32.593,568.59 C36.956,567.739 40.415,561.872 44.1,558.05 C46.881,555.165 49.897,555.011 53.133,556.801 C56.767,558.812 60.415,560.846 63.813,563.22 C67.085,565.506 69.427,564.563 71.327,561.671 C73.187,558.841 75.827,556.782 78.022,554.294 C81.146,550.754 84.716,550.261 88.686,552.644 C94.812,556.323 100.893,560.077 106.996,563.796 C109.044,565.045 109.769,566.997 109.925,568.854" fill="#C3DCD9"/>
      <path d="M0.001,498.941 C0.159,496.762 1.074,494.756 3.421,493.587 C5.703,492.449 8.007,492.276 9.925,494.09 C13.288,497.27 16.618,500.505 19.704,503.949 C21.916,506.419 23.731,507.381 26.765,504.991 C29.611,502.749 32.96,501.141 36.104,499.282 C40.127,496.903 43.747,496.812 47.301,500.495 C50.857,504.181 53.954,510.252 58.443,510.558 C62.531,510.836 67.116,506.328 71.196,503.514 C75.124,500.805 78.28,501.494 81.381,504.615 C85.955,509.218 90.588,513.764 95.096,518.432 C98.618,522.08 98.913,526.273 96.044,529.015 C93.2,531.733 89.106,531.284 85.499,527.62 C82.824,524.904 79.73,522.553 77.698,519.247 C76.083,516.618 74.196,516.788 71.873,518.308 C68.4,520.58 64.819,522.685 61.296,524.881 C57.699,527.123 54.434,526.786 51.444,523.737 C48.415,520.648 45.297,517.644 42.321,514.506 C40.688,512.785 39.281,512.434 37.164,513.905 C33.897,516.175 30.368,518.065 26.975,520.156 C23.287,522.429 19.977,522.623 16.724,519.144 C12.294,514.407 7.609,509.907 3.033,505.306 C1.355,503.619 -0.036,501.79 0.001,498.941" fill="#C3DCD9"/>
      <path d="M117.049,487.563 C116.998,491.03 115.701,493.413 112.58,494.335 C109.188,495.336 106.615,493.772 105.099,490.89 C103.012,486.924 101.082,482.843 99.493,478.656 C98.361,475.674 96.587,475.152 93.809,475.788 C90.094,476.639 86.237,476.991 82.624,478.135 C77.394,479.79 74.813,477.211 72.9,472.989 C71.254,469.355 69.484,465.771 67.985,462.077 C67.068,459.818 65.835,459.069 63.404,459.67 C59.225,460.702 54.962,461.384 50.765,462.349 C47.034,463.208 44.129,462.3 42.477,458.714 C39.419,452.07 36.315,445.44 33.535,438.679 C32.169,435.358 32.377,431.724 36.254,430.211 C39.909,428.785 43.519,429.165 45.405,433.552 C46.915,437.063 48.827,440.43 50.031,444.039 C51.381,448.085 53.7,448.607 57.521,447.733 C77.761,443.105 74.403,445.099 80.862,459.651 C82.709,463.812 84.751,465.027 89.051,463.766 C93.002,462.608 97.069,461.75 101.266,461.606 C104.372,461.5 106.511,462.851 107.716,465.401 C110.841,472.012 113.751,478.725 116.691,485.421 C117.012,486.153 116.969,487.045 117.049,487.563" fill="#C3DCD9"/>
      <path d="M491.756,323.046 C503.373,323.43 512.736,324.627 521.393,328.987 C532.574,334.618 537.244,343.989 534.873,356.132 C534.338,358.872 532.36,360.72 530.182,362.312 C519.789,369.913 498.6,367.79 489.9,358.341 C487.528,355.765 486.906,352.908 489.24,350.328 C491.748,347.556 494.822,347.869 497.642,350.304 C504.579,356.293 512.556,357.096 521.023,354.718 C525.045,353.589 526.002,350.894 524.318,346.995 C522.08,341.816 517.865,339.097 512.871,337.348 C503.267,333.985 493.41,333.384 483.393,335.012 C479.672,335.617 476.602,334.965 475.998,330.579 C475.537,327.241 477.244,325.052 480.507,324.506 C484.918,323.768 489.383,323.344 491.756,323.046" fill="#6E4100"/>
    </g>
    <path d="M491.353,422.915 C483.501,422.028 475.387,417.587 470.506,408.246 C468.863,405.102 468.419,401.57 472.313,399.63 C475.998,397.793 478.484,399.463 480.264,403.071 C482.793,408.199 487.278,410.92 492.819,411.865 C495.915,412.392 497.058,411.068 496.453,407.876 C495.678,403.787 493.037,401.069 490.043,398.671 C485.202,394.795 479.801,391.901 473.735,390.375 C469.984,389.432 467.699,387.318 468.797,383.216 C469.854,379.27 472.939,378.806 476.353,379.692 C486.745,382.392 495.724,387.49 502.722,395.746 C505.469,398.986 506.9,402.844 507.473,407.078 C508.76,416.586 503.29,422.975 491.353,422.915" fill="#6E4100"/>
    <path d="M388.985,156.935 C392.958,158.617 396.931,160.299 400.904,161.981 C402.544,163.782 403.113,166.009 403.566,168.329 C405.101,176.173 406.988,183.943 408.464,191.799 C408.772,193.436 409.111,195.074 409.758,196.616 C410.766,199.018 412.519,200.458 415.204,200.01 C418.16,199.516 419.245,197.351 419.328,194.578 C419.372,193.07 418.981,191.606 418.702,190.135 C417.459,183.591 416.051,177.082 414.636,170.573 C414.226,168.684 413.413,166.668 414.961,164.844 C423.152,164.293 423.102,164.314 426.22,171.445 C436.997,196.099 443.535,221.703 443.378,248.765 C443.147,288.537 433.966,325.278 406.358,355.531 C388.15,375.483 365.369,388.126 339.806,396.015 C301.478,407.845 262.471,411.478 223.006,403.33 C171.748,392.749 138.261,361.281 119.928,312.911 C112.383,293.005 107.495,272.34 107.564,251.08 C107.724,201.107 119.919,155.209 156.275,118.412 C165.423,109.153 175.694,101.247 187.483,94.447 C188.044,96.323 188.547,97.961 189.025,99.606 C196.622,125.789 209.9,148.436 230.775,166.279 C235.853,170.62 241.542,174.056 247.975,176.154 C261.197,180.465 272.87,176.513 280.629,164.943 C285.225,158.089 287.664,150.381 289.219,141.747 C297.938,150.729 307.439,157.924 318.113,163.481 C328.377,168.824 338.993,173.032 350.875,172.653 C354.647,171.427 355.521,174.036 356.189,176.757 C357.536,182.247 358.605,187.799 359.814,193.32 C361.063,199.025 363.519,201.606 366.707,200.902 C369.938,200.188 370.96,197.029 369.92,191.168 C368.845,185.109 367.34,179.141 366.127,173.111 C365.702,170.997 365.134,168.881 365.917,166.725 C369.305,163.329 371.951,159.481 373.197,154.78 C373.774,153.619 374.469,152.973 375.601,154.229 C378.57,163.604 380.106,173.308 382.056,182.915 C383.149,188.298 384.279,193.671 385.534,199.016 C386.3,202.276 387.603,205.243 391.725,204.801 C394.813,204.47 396.503,201.256 395.556,196.82 C393.158,185.59 391.088,174.295 388.624,163.079 C388.173,161.026 387.179,158.881 388.985,156.935" fill="#FEF8EA"/>
    <path d="M96.212,93.707 C102.799,89.201 110.603,88.035 118.014,85.808 C124.045,83.995 125.618,81.706 123.82,75.65 C122.948,72.716 125.229,72.117 126.486,71.008 C142.027,57.288 158.928,45.534 177.368,35.994 C201.805,23.35 227.725,16.374 255.179,14.548 C309.302,10.948 359.35,22.955 404.251,53.776 C443.394,80.645 467.158,117.716 474.613,164.765 C477.483,182.883 476.072,200.917 471.174,218.648 C470.367,221.569 469.512,223.79 465.832,222.05 C465.127,221.717 464.174,221.953 463.365,221.785 C460.505,221.192 456.868,223.573 454.944,221.21 C453.38,219.289 453.669,215.859 453.142,213.097 C449.884,196.015 444.105,179.742 437.229,163.833 C436.179,161.403 435.501,159.609 437.778,157.212 C440.02,154.85 439.822,151.527 437.559,149.018 C435.512,146.748 432.59,145.74 429.88,147.574 C419.992,154.265 410.076,151.929 400.426,147.545 C385.098,140.581 372.053,130.838 364.256,115.303 C362.366,111.538 359.143,110.387 355.486,112.116 C351.728,113.892 350.834,117.351 352.585,121.007 C355.752,127.616 358.917,134.163 360.406,141.441 C363.104,154.62 356.393,161.928 343.286,158.874 C322.765,154.091 306.102,143.014 293.709,125.885 C290.59,121.574 288.489,116.682 287.718,111.242 C287.018,106.294 284.242,104.097 280.016,104.757 C275.372,105.481 274.348,108.677 274.784,112.843 C275.684,121.45 276.626,130.053 276.102,138.742 C275.691,145.568 273.545,151.786 269.818,157.448 C265.019,164.74 258.962,166.562 250.833,163.279 C240.433,159.08 232.671,151.413 225.976,142.9 C211.344,124.292 200.738,103.785 198.964,79.602 C198.725,76.334 196.893,74.352 193.736,73.859 C190.678,73.381 187.873,74.277 186.813,77.405 C185.909,80.073 184.009,81.255 181.819,82.538 C138.742,107.767 112.774,145.454 100.972,193.507 C96.425,212.02 94.894,230.875 93.949,249.82 C89.516,249.876 87.226,246.549 84.855,243.7 C77.013,234.278 72.718,223.266 70.696,211.244 C69.61,204.78 69.241,198.4 71.176,192.043 C71.939,190.66 72.09,189.021 72.978,187.688 C72.525,184.201 75.298,182.646 77.443,181.13 C80.485,178.98 82.139,176.649 81.166,172.847 C80.047,168.472 76.673,168.72 73.28,168.791 C71.484,168.828 69.625,168.975 67.994,167.907 C70.186,165.971 72.476,166.294 74.563,167.325 C72.591,165.69 70.128,164.108 67.704,162.472 C56.645,155.011 53.325,144.128 58.313,131.616 C63.02,119.811 71.57,111.007 81.033,103.015 C85.583,99.172 90.378,95.542 96.212,93.707" fill="#C9A76F"/>
    <path d="M257.704,454.679 C258.754,446.648 256.965,444.352 249.151,444.801 C231.351,445.824 215.376,440.315 200.326,431.504 C191.499,426.337 186.591,416.647 187.152,405.801 C190.763,407.168 194.219,408.516 197.702,409.788 C215.027,416.117 232.987,419.306 251.35,420.124 C255.209,420.296 256.739,421.929 258.161,425.161 C261.251,432.184 265.335,438.653 270.436,444.453 C284.278,460.192 303.369,459.402 315.817,442.506 C321.509,434.78 325.251,426.088 327.911,416.945 C328.794,413.908 330.187,412.387 333.393,411.559 C351.844,406.793 369.393,399.734 385.522,389.499 C388.463,387.632 389.428,388.783 390.882,390.966 C399.766,404.301 395.461,423.518 381.422,431.449 C365.515,440.436 348.636,445.945 330.009,444.784 C322.493,444.316 320.091,447.553 321.958,454.84 C321.444,455.758 320.602,456.314 319.693,456.728 C315.993,458.416 315.373,461.286 316.073,465.01 C318.966,480.393 321.262,495.881 323.948,511.301 C324.632,515.229 325.43,519.073 323.218,522.955 C321.84,525.373 322.43,528.359 325.129,529.355 C329.956,531.137 331.785,535.109 333.652,539.195 C334.627,541.327 336.384,542.979 337.163,545.21 C337.05,545.447 336.935,545.684 336.82,545.922 C330.481,544.718 324.238,542.811 317.648,543.531 C307.687,544.62 305.187,548.57 308.714,557.836 C309.527,559.971 310.461,562.06 311.464,564.468 C303.788,564.894 296.564,565.829 289.833,568.916 C288.361,569.591 287.261,568.909 286.081,568.424 C280.641,566.185 274.974,564.875 269.115,564.812 C265.578,564.774 265.63,563.511 267.022,560.964 C267.89,559.375 268.456,557.604 269.025,555.871 C271.326,548.856 269.058,545.099 261.804,543.786 C254.377,542.442 247.296,544.515 240.15,545.96 C240.021,545.729 239.893,545.499 239.762,545.268 C242.028,541.627 244.549,538.143 246.34,534.212 C247.204,532.316 248.817,531.168 250.698,530.329 C254.198,528.769 255.406,526.002 253.785,522.618 C252.146,519.2 252.545,515.881 253.125,512.424 C255.375,499.016 257.595,485.603 259.987,472.219 C261.075,466.13 263.167,459.914 257.704,454.679" fill="#87C9D5"/>
    <path d="M326.085,457.712 C346.748,459.199 366.091,454.669 384.209,444.785 C386.428,443.574 387.574,443.61 388.878,445.992 C405.959,477.183 420.232,509.541 428.695,544.18 C433.877,565.388 426.51,582.566 408.05,594.401 C397.72,601.024 386.382,605.187 374.462,608.004 C371.439,608.718 370.829,607.812 370.419,605.193 C367.74,588.109 364.981,571.038 362.152,553.978 C361.738,551.479 362.814,550.936 364.962,550.475 C375.038,548.313 385.069,545.946 395.125,543.696 C398.557,542.928 401.645,541.776 402.025,537.658 C402.386,533.746 400.55,531.308 396.681,530.488 C394.253,529.974 394.339,527.94 394.11,526.184 C392.321,512.495 390.635,498.793 388.779,485.113 C388.324,481.755 389.095,477.168 383.203,477.759 C379.055,478.174 377.11,481.282 377.693,486.621 C379.246,500.845 380.691,515.081 382.4,529.286 C382.754,532.231 382.197,533.357 379.133,533.931 C371.947,535.276 364.861,537.143 357.714,538.705 C348.909,540.63 348.56,540.947 347.574,549.71 C343.946,548.432 340.383,547.177 336.82,545.922 C336.925,545.784 337.03,545.645 337.133,545.506 C338.009,544.637 339.228,544.551 340.292,544.107 C343.96,542.576 345.185,540.292 343.614,536.574 C341.786,532.25 339.797,528.175 341.201,523.212 C341.791,521.126 340.141,519.454 338.356,518.34 C336.252,517.027 334.994,515.259 334.578,512.765 C331.676,495.356 328.77,477.946 325.64,460.576 C325.464,459.597 325.395,458.582 326.085,457.712" fill="#87C9D5"/>
    <path d="M240.15,545.96 C237.026,547.064 233.902,548.168 230.416,549.399 C230.211,546.333 231.142,543.227 228.681,540.851 C226.33,538.581 223.215,538.555 220.373,537.825 C214.259,536.256 208.098,534.86 201.929,533.522 C199.537,533.003 198.666,531.941 199.059,529.4 C200.937,517.243 202.665,505.062 204.445,492.89 C204.662,491.41 204.937,489.935 205.077,488.448 C205.452,484.48 204.204,481.489 199.893,480.717 C195.987,480.018 192.994,482.264 192.249,486.726 C190.717,495.908 189.385,505.123 187.999,514.33 C187.603,516.959 187.279,519.599 186.971,522.24 C186.553,525.82 187.197,529.778 181.217,529.44 C178.249,529.272 176.267,532.095 176.189,535.304 C176.106,538.679 177.771,541.027 181.163,541.854 C191.658,544.413 202.126,547.107 212.686,549.364 C215.924,550.056 216.61,551.118 216.113,554.29 C213.516,570.876 211.171,587.502 208.686,604.107 C208.405,605.984 208.471,607.968 205.146,607.115 C190.838,603.442 177.246,598.35 165.573,588.978 C151.073,577.335 145.405,562.174 149.384,544.201 C157.24,508.718 171.733,475.752 188.93,443.888 C190.481,441.015 191.846,441.726 193.985,442.952 C206.336,450.026 219.266,455.655 233.578,457.182 C239.351,457.799 245.203,457.664 251.019,457.871 C252.238,459.596 251.474,461.413 251.186,463.166 C248.55,479.222 245.583,495.223 243.104,511.306 C242.632,514.361 241.718,517.062 238.706,518.667 C236.179,520.014 235.33,522.266 236.233,525.01 C237.06,527.52 236.759,529.836 235.734,532.253 C232.139,540.732 232.314,541.162 239.851,545.576 L240.15,545.96" fill="#87C9D5"/>
    <path d="M322.243,556.529 C332.65,557.818 341.221,561.258 349.816,564.629 C351.05,565.112 350.926,566.149 351.078,567.08 C352.959,578.571 354.812,590.067 356.705,601.556 C356.944,603.009 356.848,604.058 355.249,604.763 C341.148,610.98 326.719,615.791 311.041,615.447 C310.793,615.441 310.552,615.106 309.971,614.675 C313.165,612.324 316.988,609.977 315.025,605.278 C312.217,598.557 305.536,600.717 299.271,599.117 C303.175,597.788 306.216,596.807 309.217,595.716 C312.715,594.443 314.869,592.096 314.246,588.159 C313.622,584.221 310.907,582.769 307.132,582.549 C303.713,582.349 300.312,581.831 295.626,581.312 C300.438,578.239 304.676,578.122 308.78,577.791 C314.249,577.349 319.738,577.113 325.224,576.955 C328.209,576.87 330.43,575.761 331.533,572.977 C332.612,570.253 331.905,567.748 330.034,565.56 C327.687,562.815 325.317,560.089 322.243,556.529" fill="#FEF8EA"/>
    <path d="M254.918,556.501 C251.841,560.029 249.657,562.484 247.529,564.986 C245.51,567.359 244.044,569.873 245.589,573.139 C246.998,576.117 249.504,576.71 252.524,577.018 C259.963,577.777 267.505,577.07 274.874,578.656 C276.092,578.918 277.917,578.593 277.919,580.461 C277.921,582.493 275.959,581.814 274.833,582.032 C272.884,582.408 270.88,582.536 268.893,582.668 C265.644,582.883 263.575,584.582 262.934,587.696 C262.256,590.993 263.441,593.712 266.583,595.1 C269.641,596.45 272.857,597.444 276.837,598.9 C271.009,601.022 263.945,598.552 261.932,605.859 C260.742,610.182 263.577,612.634 267.949,614.642 C262.344,616.543 257.655,615.306 253.104,614.588 C243.397,613.057 234.094,610.033 225.005,606.259 C222.247,605.114 221.751,603.685 222.188,600.973 C223.932,590.15 225.586,579.31 227.026,568.443 C227.432,565.378 228.756,563.764 231.606,562.809 C238.818,560.392 245.906,557.564 254.918,556.501" fill="#FEF8EA"/>
    <path d="M326.085,457.712 C329.319,469.747 330.624,482.143 332.922,494.354 C334.117,500.706 335.07,507.107 335.992,513.506 C336.268,515.425 337.105,516.278 338.937,516.932 C342.156,518.08 344.161,520.994 342.808,523.998 C340.908,528.217 342.683,531.217 344.353,534.605 C347.848,541.695 345.028,545.9 337.133,545.507 C332.935,543.457 332.262,538.968 330.283,535.42 C329.203,533.483 328.372,532.056 325.82,531.433 C321.125,530.287 319.494,525.758 322.13,521.619 C323.412,519.606 323.634,517.969 323.231,515.654 C320.296,498.808 317.6,481.921 314.77,465.056 C313.624,458.229 314.864,456.379 321.957,454.84 C323.333,455.798 324.709,456.755 326.085,457.712" fill="#FEFEFE"/>
    <path d="M239.851,545.576 C232.833,545.546 229.998,541.604 232.619,535.396 C234.234,531.57 237.13,528.241 234.328,523.45 C233.106,521.361 234.883,518.207 237.511,517.512 C241.154,516.549 241.289,513.797 241.745,511.138 C244.508,494.997 247.187,478.842 249.92,462.696 C250.195,461.072 250.648,459.478 251.019,457.871 C253.629,457.602 255.843,456.503 257.707,454.678 C262.834,457.058 263.505,460.931 262.508,466.203 C259.455,482.344 256.832,498.567 254.125,514.772 C253.699,517.317 253.609,519.632 255.454,522.198 C257.873,525.563 255.863,530.527 251.815,531.38 C248.733,532.029 247.941,533.988 246.752,536.152 C244.867,539.583 243.982,543.78 239.851,545.576" fill="#FEFEFE"/>
    <path d="M96.212,93.707 C87.156,99.87 78.073,105.988 70.847,114.407 C65.72,120.381 61.21,126.707 58.817,134.318 C55.225,145.743 58.484,154.967 68.416,161.558 C70.883,163.195 73.714,164.365 75.657,167.245 C73.11,168.616 70.423,167.231 67.993,167.906 C62.654,167.412 57.51,166.146 52.693,163.766 C41.311,158.143 37.784,149.033 42.727,137.287 C47.995,124.767 57.331,115.646 68.119,107.809 C76.226,101.92 85.219,97.63 94.12,93.16 C95.067,92.684 95.652,93.001 96.212,93.707" fill="#FEFEFE"/>
    <path d="M388.985,156.935 C391.415,169.09 393.847,181.245 396.277,193.401 C396.601,195.021 396.977,196.634 397.228,198.266 C397.88,202.519 395.866,206.017 392.094,206.531 C388.008,207.089 385.41,204.981 384.557,200.988 C382.311,190.478 380.134,179.952 377.969,169.424 C376.903,164.244 375.923,159.047 374.905,153.858 C373.901,153.052 374.891,151.698 374.074,150.841 C374.074,149.744 374.074,148.647 374.074,147.275 C379.301,150.662 384.143,153.798 388.985,156.935" fill="#C3D6C8"/>
    <path d="M314.486,415.903 C311.236,425.326 307.669,433.614 300.427,439.724 C296.117,443.361 291.521,443.746 286.548,440.828 C279.358,436.609 275.295,429.693 271.455,422.64 C270.284,420.49 271.972,420.404 273.262,420.359 C286.847,419.886 300.338,418.462 314.486,415.903" fill="#FEF8EA"/>
    <path d="M473.941,259.506 C473.94,270.187 468.645,277.215 458.455,278.838 C455.346,279.333 454.432,278.723 454.851,275.389 C456.381,263.19 456.677,250.922 455.918,238.652 C455.75,235.919 457.096,235.239 459.294,234.886 C464.322,234.077 468.263,236.031 470.627,240.979 C473.173,246.307 474.039,252.033 473.941,259.506" fill="#FEF8EA"/>
    <path d="M83.159,291.421 C83.141,281.287 85.924,276.396 91.987,275.083 C94.791,274.476 96.726,274.337 97.308,278.437 C99.01,290.432 102.14,302.149 106.243,313.553 C107.422,316.831 106.755,317.619 103.463,317.659 C95.654,317.753 89.657,314.159 86.422,306.987 C84.059,301.747 83.561,296.116 83.159,291.421" fill="#FEF8EA"/>
    <path d="M72.047,191.893 C69.7,210.135 73.741,226.735 84.875,241.48 C87.381,244.799 90.284,247.737 93.949,249.82 C94.438,252.064 95.562,254.757 93.46,256.315 C91.51,257.761 88.896,256.553 86.799,255.616 C81.275,253.148 77.209,248.9 74.423,243.705 C65.09,226.304 64.108,208.288 71.136,189.836 C72.941,189.857 72.503,190.87 72.047,191.893" fill="#FEFDFD"/>
    <path d="M414.961,164.844 C416.821,173.924 418.666,183.005 420.545,192.08 C421.592,197.137 419.892,200.706 415.931,201.632 C412.017,202.547 408.964,200.166 407.852,195.027 C405.473,184.025 403.213,172.998 400.904,161.981 C405.59,162.936 410.276,163.89 414.961,164.844" fill="#C3D6C8"/>
    <path d="M365.917,166.725 C367.924,175.901 370.081,185.049 371.869,194.268 C372.643,198.259 371.214,201.714 366.769,202.568 C362.171,203.453 360.042,200.289 359.109,196.515 C357.524,190.112 356.212,183.634 355.025,177.143 C354.555,174.575 353.847,172.69 350.874,172.653 C356.223,171.525 361.466,170.129 365.917,166.725" fill="#C4D6C8"/>
    <path d="M374.074,150.841 C375.137,151.629 374.947,152.763 374.905,153.857 C374.335,154.166 373.766,154.473 373.196,154.781 C373.489,153.467 373.781,152.154 374.074,150.841" fill="#DEE5D7"/>
    <path d="M72.047,191.893 C71.743,191.207 71.44,190.521 71.136,189.836 C71.101,188.563 71.779,187.902 72.978,187.688 C73.077,189.18 73.075,190.65 72.047,191.893" fill="#F4F0EC"/>
    <path d="M348.715,261.416 C355.679,260.534 361.263,259.84 366.844,259.114 C371.969,258.448 375.341,260.457 375.892,264.545 C376.422,268.481 373.957,271.273 369.044,271.934 C358.341,273.375 347.616,274.649 336.914,276.094 C333.652,276.534 330.851,275.98 329.127,273.02 C327.517,270.255 328.347,267.629 330.102,265.124 C336.68,255.735 343.157,246.275 349.768,236.909 C352.266,233.37 356.208,232.523 359.26,234.578 C362.41,236.698 363.016,240.486 360.535,244.227 C356.981,249.587 353.255,254.834 348.715,261.416" fill="#6E4100"/>
    <path d="M210.504,279.144 C204.942,274.336 200.187,270.237 195.445,266.123 C191.589,262.778 190.839,258.829 193.452,255.767 C196.021,252.758 200.119,252.912 204.018,256.237 C212.373,263.362 220.673,270.552 229.062,277.638 C231.549,279.74 233.019,282.093 232.257,285.445 C231.448,289.004 228.674,290.027 225.576,290.437 C214.694,291.879 203.81,293.308 192.912,294.609 C188.514,295.135 185.427,292.761 184.989,288.909 C184.55,285.057 186.879,282.332 191.456,281.66 C197.354,280.794 203.275,280.09 210.504,279.144" fill="#6E4100"/>
    <path d="M322.935,369.931 C316.843,368.502 310.01,367.34 302.987,367.25 C289.166,367.072 276.384,370.508 264.643,377.732 C261.316,379.778 258.191,380.789 255.457,377.157 C253.289,374.278 254.67,370.743 258.835,368.234 C279.257,355.933 301.109,353.464 324.071,358.887 C327.498,359.697 329.876,361.598 329.291,365.516 C328.83,368.607 326.778,370.032 322.935,369.931" fill="#6E4100"/>
    <path d="M175.721,149.821 C170.566,149.802 166.481,147.591 163.269,143.654 C161.674,141.698 161.676,139.533 163.334,137.759 C165.151,135.814 167.412,135.824 169.64,137.33 C176.771,142.15 181.545,141.077 185.855,133.423 C187.321,130.82 189.168,129.62 191.9,130.777 C194.923,132.058 195.201,134.483 194.113,137.394 C191.685,143.885 183.022,149.801 175.721,149.821" fill="#6E4300"/>
    <path d="M286.144,275.336 C286.102,277.913 284.595,279.768 281.359,279.906 C278.334,280.035 273.524,274.386 273.637,270.781 C273.728,267.9 275.286,266.119 278.203,265.829 C281.385,265.513 286,270.779 286.144,275.336" fill="#6F4400"/>
  </g>
</svg>
