<?xml version="1.0" encoding="UTF-8"?>
<!DOCTYPE svg PUBLIC "-//W3C//DTD SVG 1.1//EN" "http://www.w3.org/Graphics/SVG/1.1/DTD/svg11.dtd">
<svg version="1.1" xmlns="http://www.w3.org/2000/svg" xmlns:xlink="http://www.w3.org/1999/xlink" x="0" y="0" width="283" height="418" viewBox="0, 0, 283, 418">
  <defs>
    <clipPath id="Clip_1">
      <path d="M280.576,2.362 L280.576,415.427 L2.318,415.427 L2.318,2.362 L280.576,2.362 z"/>
    </clipPath>
  </defs>
  <g id="Layer_1">
    <g clip-path="url(#Clip_1)">
      <path d="M166.325,349.481 C165.366,350.003 164.42,350.47 163.485,350.908 C162.444,338.096 161.346,324.195 160.461,313.197 C163.682,317.532 167.754,322.808 171.795,327.607 L171.795,327.608 C174.973,332.075 178.223,335.798 181.469,338.807 C176.828,342.865 171.797,346.495 166.325,349.481 M43.107,257.001 C43.994,255.856 44.865,254.432 45.623,252.663 C49.494,243.64 38.131,225.534 38.131,225.534 C38.131,225.534 36.974,221.919 35.65,215.914 C45.277,229.605 57.92,244.991 67.15,255.845 C66.898,255.964 66.665,256.081 66.453,256.197 L66.588,256.753 C64.045,259.64 54.241,273.226 43.795,288.597 L45.169,269.958 L42.369,269.377 z M200.811,193.331 C194.153,209.525 170.586,237.653 156.819,253.316 C145.692,249.853 128.336,246.083 128.317,246.079 L127.334,246.079 L123.769,244.094 C123.769,244.094 123.629,244.676 123.314,245.615 L122.85,240.716 C163.248,237.822 187.461,211.213 196.994,178.232 C199.389,177.716 201.524,177.025 203.428,176.168 C204.028,180.901 203.537,186.699 200.811,193.331 M30.092,193.331 C27.365,186.7 26.873,180.902 27.472,176.169 C29.375,177.026 31.51,177.716 33.902,178.232 C43.431,211.211 67.646,237.818 108.041,240.716 L107.629,245.067 C107.441,244.46 107.351,244.094 107.351,244.094 L103.787,246.079 L102.575,246.079 C102.572,246.08 102.019,246.2 101.074,246.411 L101.213,246.079 C101.213,246.079 91.17,248.427 81.738,251.118 C79.055,251.838 76.431,252.582 74.082,253.314 C60.314,237.65 36.749,209.524 30.092,193.331 M205.248,234.944 C205.272,245.086 215.284,252.155 218.159,253.976 C218.229,254.066 218.272,254.117 218.272,254.117 L215.91,261.955 L208.471,259.685 L197.727,299.02 C182.672,278.823 165.95,257.016 164.44,256.197 C164.229,256.083 163.998,255.966 163.75,255.849 C174.844,242.802 190.871,223.203 200.662,207.878 C202.496,215.065 205.229,227.077 205.248,234.944 M271.811,209.143 C271.157,207.209 269.528,205.864 267.34,205.031 C261.559,191.525 252.948,178 247.832,178.226 C241.68,178.497 240.512,181.947 241.43,186.603 C228.881,182.308 215.166,188.825 210.598,201.314 C209.188,199.524 207.516,198.91 205.885,198.919 C206.985,196.773 207.856,194.8 208.442,193.056 C211.125,185.066 210.873,177.899 209.502,172.047 C212.971,168.52 214.701,163.683 214.701,157.389 C214.701,145.238 208.282,140.223 201.576,138.291 C201.989,135.534 203.741,123.289 206.379,96.885 C208.825,72.427 202.278,34.848 176.752,28.656 C176.752,28.656 168.225,17.46 155.098,14.313 C146.526,11.649 135.559,8.684 112.264,8.684 C88.97,8.684 59.64,19.887 55.464,28.27 C28.638,33.155 21.625,71.885 24.125,96.885 C26.805,123.695 28.568,135.906 28.947,138.41 C22.38,140.422 16.198,145.466 16.198,157.389 C16.198,163.684 17.929,168.521 21.398,172.048 C20.027,177.9 19.775,185.067 22.459,193.056 C22.512,193.212 22.574,193.375 22.631,193.534 C21.808,193.47 20.943,193.521 20.029,193.721 C7.701,196.409 5.617,212.227 8.875,223.811 C12.137,235.388 12.871,246.6 23.336,256.176 C23.336,256.176 23.336,256.177 23.337,256.177 L23.347,265.429 L18.669,264.458 C18.669,264.458 12.227,310.199 10.749,330.157 C9.901,341.604 22.868,354.491 40.716,341.484 C41.091,341.21 41.539,340.826 42.035,340.367 C42.256,340.196 42.654,339.807 43.195,339.242 C47.033,335.383 52.486,328.768 52.611,328.616 C58.674,321.595 66.14,312.784 71.835,306.034 C70.388,323.897 67.955,355.557 66.34,374.055 C65.703,381.328 63.795,407.036 61.568,437.572 C57.349,495.406 57.662,570.555 57.662,570.555 L69.775,570.555 C70.048,600.769 73.029,658.577 73.029,658.577 L76.25,663.838 L72.398,674.555 L81.366,674.604 C78.874,675.488 76.619,676.679 74.901,678.291 C68.261,684.528 72.355,686.527 72.355,686.527 L104.202,686.527 L104.202,674.728 L106.185,674.739 L110.18,570.555 L113.547,570.555 L115.853,532.223 L118.16,570.555 L120.969,570.555 L124.964,674.739 L126.946,674.728 L126.946,686.527 L158.793,686.527 C158.793,686.527 162.889,684.528 156.248,678.291 C154.532,676.679 152.276,675.488 149.784,674.604 L158.75,674.555 L154.899,663.838 L158.119,658.577 C158.119,658.577 161.102,600.769 161.375,570.555 L174.045,570.555 C174.045,570.555 174.317,494.647 170.075,436.351 C167.84,405.641 165.928,379.819 165.293,372.556 C164.924,368.343 164.516,363.484 164.088,358.288 C165.922,357.534 167.784,356.658 169.676,355.625 C175.975,352.19 181.735,347.98 186.991,343.251 C199.903,352.017 212.059,349.134 218.61,335.005 C227.026,316.851 243.459,270.364 243.459,270.364 L237.262,268.472 L238.85,262.989 C238.85,262.989 241.926,261.407 245.836,258.692 C257.418,255.563 273.01,248.18 274.684,241.217 C277.137,231.012 274.864,218.182 271.811,209.143" fill="#797979"/>
      <path d="M166.325,349.481 C165.366,350.003 164.42,350.47 163.485,350.908 C162.444,338.096 161.346,324.195 160.461,313.197 C163.682,317.532 167.754,322.808 171.795,327.607 L171.795,327.608 C174.973,332.075 178.223,335.798 181.469,338.807 C176.828,342.865 171.797,346.495 166.325,349.481 z M43.107,257.001 C43.994,255.856 44.865,254.432 45.623,252.663 C49.494,243.64 38.131,225.534 38.131,225.534 C38.131,225.534 36.974,221.919 35.65,215.914 C45.277,229.605 57.92,244.991 67.15,255.845 C66.898,255.964 66.665,256.081 66.453,256.197 L66.588,256.753 C64.045,259.64 54.241,273.226 43.795,288.597 L45.169,269.958 L42.369,269.377 L43.107,257.001 z M200.811,193.331 C194.153,209.525 170.586,237.653 156.819,253.316 C145.692,249.853 128.336,246.083 128.317,246.079 L127.334,246.079 L123.769,244.094 C123.769,244.094 123.629,244.676 123.314,245.615 L122.85,240.716 C163.248,237.822 187.461,211.213 196.994,178.232 C199.389,177.716 201.524,177.025 203.428,176.168 C204.028,180.901 203.537,186.699 200.811,193.331 z M30.092,193.331 C27.365,186.7 26.873,180.902 27.472,176.169 C29.375,177.026 31.51,177.716 33.902,178.232 C43.431,211.211 67.646,237.818 108.041,240.716 L107.629,245.067 C107.441,244.46 107.351,244.094 107.351,244.094 L103.787,246.079 L102.575,246.079 C102.572,246.08 102.019,246.2 101.074,246.411 L101.213,246.079 C101.213,246.079 91.17,248.427 81.738,251.118 C79.055,251.838 76.431,252.582 74.082,253.314 C60.314,237.65 36.749,209.524 30.092,193.331 z M205.248,234.944 C205.272,245.086 215.284,252.155 218.159,253.976 C218.229,254.066 218.272,254.117 218.272,254.117 L215.91,261.955 L208.471,259.685 L197.727,299.02 C182.672,278.823 165.95,257.016 164.44,256.197 C164.229,256.083 163.998,255.966 163.75,255.849 C174.844,242.802 190.871,223.203 200.662,207.878 C202.496,215.065 205.229,227.077 205.248,234.944 z M271.811,209.143 C271.157,207.209 269.528,205.864 267.34,205.031 C261.559,191.525 252.948,178 247.832,178.226 C241.68,178.497 240.512,181.947 241.43,186.603 C228.881,182.308 215.166,188.825 210.598,201.314 C209.188,199.524 207.516,198.91 205.885,198.919 C206.985,196.773 207.856,194.8 208.442,193.056 C211.125,185.066 210.873,177.899 209.502,172.047 C212.971,168.52 214.701,163.683 214.701,157.389 C214.701,145.238 208.282,140.223 201.576,138.291 C201.989,135.534 203.741,123.289 206.379,96.885 C208.825,72.427 202.278,34.848 176.752,28.656 C176.752,28.656 168.225,17.46 155.098,14.313 C146.526,11.649 135.559,8.684 112.264,8.684 C88.97,8.684 59.64,19.887 55.464,28.27 C28.638,33.155 21.625,71.885 24.125,96.885 C26.805,123.695 28.568,135.906 28.947,138.41 C22.38,140.422 16.198,145.466 16.198,157.389 C16.198,163.684 17.929,168.521 21.398,172.048 C20.027,177.9 19.775,185.067 22.459,193.056 C22.512,193.212 22.574,193.375 22.631,193.534 C21.808,193.47 20.943,193.521 20.029,193.721 C7.701,196.409 5.617,212.227 8.875,223.811 C12.137,235.388 12.871,246.6 23.336,256.176 C23.336,256.176 23.336,256.177 23.337,256.177 L23.347,265.429 L18.669,264.458 C18.669,264.458 12.227,310.199 10.749,330.157 C9.901,341.604 22.868,354.491 40.716,341.484 C41.091,341.21 41.539,340.826 42.035,340.367 C42.256,340.196 42.654,339.807 43.195,339.242 C47.033,335.383 52.486,328.768 52.611,328.616 C58.674,321.595 66.14,312.784 71.835,306.034 C70.388,323.897 67.955,355.557 66.34,374.055 C65.703,381.328 63.795,407.036 61.568,437.572 C57.349,495.406 57.662,570.555 57.662,570.555 L69.775,570.555 C70.048,600.769 73.029,658.577 73.029,658.577 L76.25,663.838 L72.398,674.555 L81.366,674.604 C78.874,675.488 76.619,676.679 74.901,678.291 C68.261,684.528 72.355,686.527 72.355,686.527 L104.202,686.527 L104.202,674.728 L106.185,674.739 L110.18,570.555 L113.547,570.555 L115.853,532.223 L118.16,570.555 L120.969,570.555 L124.964,674.739 L126.946,674.728 L126.946,686.527 L158.793,686.527 C158.793,686.527 162.889,684.528 156.248,678.291 C154.532,676.679 152.276,675.488 149.784,674.604 L158.75,674.555 L154.899,663.838 L158.119,658.577 C158.119,658.577 161.102,600.769 161.375,570.555 L174.045,570.555 C174.045,570.555 174.317,494.647 170.075,436.351 C167.84,405.641 165.928,379.819 165.293,372.556 C164.924,368.343 164.516,363.484 164.088,358.288 C165.922,357.534 167.784,356.658 169.676,355.625 C175.975,352.19 181.735,347.98 186.991,343.251 C199.903,352.017 212.059,349.134 218.61,335.005 C227.026,316.851 243.459,270.364 243.459,270.364 L237.262,268.472 L238.85,262.989 C238.85,262.989 241.926,261.407 245.836,258.692 C257.418,255.563 273.01,248.18 274.684,241.217 C277.137,231.012 274.864,218.182 271.811,209.143 z" fill-opacity="0" stroke="#797979" stroke-width="8" stroke-linecap="round" stroke-linejoin="round"/>
      <path d="M161.395,565.81 L165.868,429.959 L165.545,399.802 L115.574,399.802 L65.602,399.802 L65.281,429.959 L69.755,565.81 C69.709,594.2 73.029,658.577 73.029,658.577 L76.25,663.838 L72.398,674.555 L106.185,674.739 L114.169,466.522 L115.574,464.966 L116.979,466.522 L124.964,674.739 L158.75,674.555 L154.899,663.838 L158.119,658.577 C158.119,658.577 161.44,594.2 161.395,565.81" fill="#A2A2A2"/>
      <path d="M161.395,565.81 L165.868,429.959 L165.545,399.802 L115.574,399.802 L65.602,399.802 L65.281,429.959 L69.755,565.81 C69.709,594.2 73.029,658.577 73.029,658.577 L76.25,663.838 L72.398,674.555 L106.185,674.739 L114.169,466.522 L115.574,464.966 L116.979,466.522 L124.964,674.739 L158.75,674.555 L154.899,663.838 L158.119,658.577 C158.119,658.577 161.44,594.2 161.395,565.81 z" fill-opacity="0" stroke="#797979" stroke-width="4" stroke-linecap="round" stroke-linejoin="round"/>
      <path d="M176.752,28.656 C176.752,28.656 168.225,17.46 155.098,14.313 C146.526,11.649 135.559,8.684 112.264,8.684 C88.97,8.684 59.64,19.887 55.464,28.27 C28.638,33.155 21.625,71.885 24.125,96.885 C27.163,127.271 29.024,138.912 29.024,138.912 L29.079,141.409 L40.612,133.168 L115.253,130.636 L189.893,133.168 L201.426,141.409 L201.481,138.912 C201.481,138.912 203.342,127.271 206.379,96.885 C208.825,72.427 202.278,34.848 176.752,28.656" fill="#9B8C81"/>
      <path d="M176.752,28.656 C176.752,28.656 168.225,17.46 155.098,14.313 C146.526,11.649 135.559,8.684 112.264,8.684 C88.97,8.684 59.64,19.887 55.464,28.27 C28.638,33.155 21.625,71.885 24.125,96.885 C27.163,127.271 29.024,138.912 29.024,138.912 L29.079,141.409 L40.612,133.168 L115.253,130.636 L189.893,133.168 L201.426,141.409 L201.481,138.912 C201.481,138.912 203.342,127.271 206.379,96.885 C208.825,72.427 202.278,34.848 176.752,28.656 z" fill-opacity="0" stroke="#797979" stroke-width="4" stroke-linecap="round" stroke-linejoin="round"/>
      <path d="M164.44,256.197 C157.446,252.403 128.316,246.079 128.316,246.079 L102.576,246.079 C102.576,246.079 73.447,252.403 66.453,256.197 L76.555,297.805 L154.336,297.805 z" fill="#FFFFFF"/>
      <path d="M164.44,256.197 C157.446,252.403 128.316,246.079 128.316,246.079 L102.576,246.079 C102.576,246.079 73.447,252.403 66.453,256.197 L76.555,297.805 L154.336,297.805 L164.44,256.197 z" fill-opacity="0" stroke="#797979" stroke-width="4" stroke-linecap="round" stroke-linejoin="round"/>
      <path d="M128.317,246.079 L123.358,246.079 L121.935,231.047 L115.446,226.827 L108.956,231.047 L107.533,246.079 L102.575,246.079 C98.725,253.58 110.337,261.075 110.337,261.075 L115.446,268.43 L120.555,261.075 C120.555,261.075 132.168,253.58 128.317,246.079" fill="#FFEFD9"/>
      <path d="M128.317,246.079 L123.358,246.079 L121.935,231.047 L115.446,226.827 L108.956,231.047 L107.533,246.079 L102.575,246.079 C98.725,253.58 110.337,261.075 110.337,261.075 L115.446,268.43 L120.555,261.075 C120.555,261.075 132.168,253.58 128.317,246.079 z" fill-opacity="0" stroke="#797979" stroke-width="4" stroke-linecap="round" stroke-linejoin="round"/>
      <path d="M101.213,246.079 C101.213,246.079 74.146,252.403 67.152,256.197 C64.902,257.417 14.306,329.332 14.306,338.666 C14.306,348 35.381,343.774 41.91,340.45 C43.871,339.452 80.58,295.64 80.58,295.64" fill="#FFFFFF"/>
      <path d="M101.213,246.079 C101.213,246.079 74.146,252.403 67.152,256.197 C64.902,257.417 14.306,329.332 14.306,338.666 C14.306,348 35.381,343.774 41.91,340.45 C43.871,339.452 80.58,295.64 80.58,295.64" fill-opacity="0" stroke="#797979" stroke-width="4" stroke-linecap="round" stroke-linejoin="round"/>
      <path d="M128.316,246.079 C128.316,246.079 157.446,252.403 164.44,256.197 C166.69,257.417 202.711,305.228 216.666,324.889 C222.069,332.5 202.981,348.161 185.516,340.738 C177.254,337.227 154.375,305.109 154.118,304.209" fill="#FFFFFF"/>
      <path d="M128.316,246.079 C128.316,246.079 157.446,252.403 164.44,256.197 C166.69,257.417 202.711,305.228 216.666,324.889 C222.069,332.5 202.981,348.161 185.516,340.738 C177.254,337.227 154.375,305.109 154.118,304.209" fill-opacity="0" stroke="#797979" stroke-width="4" stroke-linecap="round" stroke-linejoin="round"/>
      <path d="M73.006,292.805 C72.609,294.554 68.642,347.683 66.34,374.055 C65.703,381.328 63.795,407.036 61.568,437.572 C57.349,495.406 57.662,570.555 57.662,570.555 L113.547,570.555 L115.853,532.223 L118.16,570.555 L174.045,570.555 C174.045,570.555 174.317,494.647 170.075,436.351 C167.84,405.641 165.928,379.819 165.293,372.556 C162.989,346.184 159.098,294.554 158.701,292.805" fill="#FFFFFF"/>
      <path d="M73.006,292.805 C72.609,294.554 68.642,347.683 66.34,374.055 C65.703,381.328 63.795,407.036 61.568,437.572 C57.349,495.406 57.662,570.555 57.662,570.555 L113.547,570.555 L115.853,532.223 L118.16,570.555 L174.045,570.555 C174.045,570.555 174.317,494.647 170.075,436.351 C167.84,405.641 165.928,379.819 165.293,372.556 C162.989,346.184 159.098,294.554 158.701,292.805" fill-opacity="0" stroke="#797979" stroke-width="4" stroke-linecap="round" stroke-linejoin="round"/>
      <path d="M115.56,320.031 L135.034,254.822 L115.435,256.675 L96.09,254.822 z" fill="#FFFFFF"/>
      <path d="M115.56,320.031 L135.034,254.822 L115.435,256.675 L96.09,254.822 L115.56,320.031 z" fill-opacity="0" stroke="#797979" stroke-width="4" stroke-linecap="round" stroke-linejoin="round"/>
      <path d="M123.769,244.094 C123.769,244.094 121.847,252.241 115.56,257.697 C115.56,257.697 121.324,255.042 123.42,256.95 C125.515,258.859 133.901,264.107 133.901,264.107 L129.707,247.401 z" fill="#FFFFFF"/>
      <path d="M123.769,244.094 C123.769,244.094 121.847,252.241 115.56,257.697 C115.56,257.697 121.324,255.042 123.42,256.95 C125.515,258.859 133.901,264.107 133.901,264.107 L129.707,247.401 L123.769,244.094 z" fill-opacity="0" stroke="#797979" stroke-width="4" stroke-linecap="round" stroke-linejoin="round"/>
      <path d="M107.351,244.094 C107.351,244.094 109.273,252.241 115.56,257.697 C115.56,257.697 109.797,255.042 107.701,256.95 C105.605,258.859 97.222,264.107 97.222,264.107 L101.414,247.401 z" fill="#FFFFFF"/>
      <path d="M107.351,244.094 C107.351,244.094 109.273,252.241 115.56,257.697 C115.56,257.697 109.797,255.042 107.701,256.95 C105.605,258.859 97.222,264.107 97.222,264.107 L101.414,247.401 L107.351,244.094 z" fill-opacity="0" stroke="#797979" stroke-width="4" stroke-linecap="round" stroke-linejoin="round"/>
      <path d="M120.578,266.798 L115.56,266.439 L110.543,266.798 L107.199,300.228 L115.56,323.909 L123.922,300.228 z" fill="#84ADDE"/>
      <path d="M120.578,266.798 L115.56,266.439 L110.543,266.798 L107.199,300.228 L115.56,323.909 L123.922,300.228 L120.578,266.798 z" fill-opacity="0" stroke="#797979" stroke-width="4" stroke-linecap="round" stroke-linejoin="round"/>
      <path d="M109.945,256.666 L110.586,266.166 C110.586,266.166 113.18,268.041 115.56,268.041 C117.941,268.041 120.535,266.166 120.535,266.166 L121.174,256.666 z" fill="#84ADDE"/>
      <path d="M109.945,256.666 L110.586,266.166 C110.586,266.166 113.18,268.041 115.56,268.041 C117.941,268.041 120.535,266.166 120.535,266.166 L121.174,256.666 L109.945,256.666 z" fill-opacity="0" stroke="#797979" stroke-width="4" stroke-linecap="round" stroke-linejoin="round"/>
      <path d="M117.601,364.966 C117.601,366.095 116.687,367.007 115.56,367.007 C114.433,367.007 113.519,366.095 113.519,364.966 C113.519,363.839 114.433,362.925 115.56,362.925 C116.687,362.925 117.601,363.839 117.601,364.966" fill="#FFFFFF"/>
      <path d="M117.601,364.966 C117.601,366.095 116.687,367.007 115.56,367.007 C114.433,367.007 113.519,366.095 113.519,364.966 C113.519,363.839 114.433,362.925 115.56,362.925 C116.687,362.925 117.601,363.839 117.601,364.966 z" fill-opacity="0" stroke="#797979" stroke-width="4" stroke-linecap="round" stroke-linejoin="round"/>
      <path d="M117.601,411.158 C117.601,412.285 116.687,413.199 115.56,413.199 C114.433,413.199 113.519,412.285 113.519,411.158 C113.519,410.03 114.433,409.116 115.56,409.116 C116.687,409.116 117.601,410.03 117.601,411.158" fill="#FFFFFF"/>
      <path d="M117.601,411.158 C117.601,412.285 116.687,413.199 115.56,413.199 C114.433,413.199 113.519,412.285 113.519,411.158 C113.519,410.03 114.433,409.116 115.56,409.116 C116.687,409.116 117.601,410.03 117.601,411.158 z" fill-opacity="0" stroke="#797979" stroke-width="4" stroke-linecap="round" stroke-linejoin="round"/>
      <path d="M101.213,247.401 L90.226,258.426 L98.226,264.426 L89.894,268.426 L115.56,338.803 z" fill="#FFFFFF"/>
      <path d="M101.213,247.401 L90.226,258.426 L98.226,264.426 L89.894,268.426 L115.56,338.803 L101.213,247.401 z" fill-opacity="0" stroke="#797979" stroke-width="4" stroke-linecap="round" stroke-linejoin="round"/>
      <path d="M129.91,247.401 L140.895,258.426 L132.894,264.426 L141.229,268.426 L115.56,338.803 z" fill="#FFFFFF"/>
      <path d="M129.91,247.401 L140.895,258.426 L132.894,264.426 L141.229,268.426 L115.56,338.803 L129.91,247.401 z" fill-opacity="0" stroke="#797979" stroke-width="4" stroke-linecap="round" stroke-linejoin="round"/>
      <path d="M150.584,311.636 C150.584,312.924 149.539,313.969 148.25,313.969 C146.963,313.969 145.918,312.924 145.918,311.636 L145.918,299.302 C145.918,298.014 146.963,296.969 148.25,296.969 C149.539,296.969 150.584,298.014 150.584,299.302 z" fill="#797979"/>
      <path d="M150.584,311.636 C150.584,312.924 149.539,313.969 148.25,313.969 C146.963,313.969 145.918,312.924 145.918,311.636 L145.918,299.302 C145.918,298.014 146.963,296.969 148.25,296.969 C149.539,296.969 150.584,298.014 150.584,299.302 L150.584,311.636 z" fill-opacity="0" stroke="#797979" stroke-width="4" stroke-linecap="round" stroke-linejoin="round"/>
      <path d="M132.101,309.354 L132.101,329.859 C132.101,333.266 134.866,336.03 138.274,336.03 L149.93,336.03 C153.34,336.03 156.102,333.266 156.102,329.859 L156.102,309.354 z" fill="#FFFFFF"/>
      <path d="M132.101,309.354 L132.101,329.859 C132.101,333.266 134.866,336.03 138.274,336.03 L149.93,336.03 C153.34,336.03 156.102,333.266 156.102,329.859 L156.102,309.354 L132.101,309.354 z" fill-opacity="0" stroke="#797979" stroke-width="4" stroke-linecap="round" stroke-linejoin="round"/>
      <path d="M150.645,315.136 C150.645,316.424 150.299,317.469 149.871,317.469 C149.448,317.469 149.102,316.424 149.102,315.136 L149.102,302.802 C149.102,301.514 149.448,300.469 149.871,300.469 C150.299,300.469 150.645,301.514 150.645,302.802 z" fill="#797979"/>
      <path d="M150.645,315.136 C150.645,316.424 150.299,317.469 149.871,317.469 C149.448,317.469 149.102,316.424 149.102,315.136 L149.102,302.802 C149.102,301.514 149.448,300.469 149.871,300.469 C150.299,300.469 150.645,301.514 150.645,302.802 L150.645,315.136 z" fill-opacity="0" stroke="#797979" stroke-width="4" stroke-linecap="round" stroke-linejoin="round"/>
      <path d="M44.341,137.753 C44.341,137.753 16.198,131.946 16.198,157.389 C16.198,172.356 25.886,179.152 45.804,179.437" fill="#FFEFD9"/>
      <path d="M44.341,137.753 C44.341,137.753 16.198,131.946 16.198,157.389 C16.198,172.356 25.886,179.152 45.804,179.437" fill-opacity="0" stroke="#797979" stroke-width="4" stroke-linecap="round" stroke-linejoin="round"/>
      <path d="M26.923,158.766 C26.923,158.766 30.61,157.063 34.127,157.084" fill="#FFEFD9"/>
      <path d="M26.923,158.766 C26.923,158.766 30.61,157.063 34.127,157.084" fill-opacity="0" stroke="#797979" stroke-width="4" stroke-linecap="round" stroke-linejoin="round"/>
      <path d="M186.559,137.753 C186.559,137.753 214.701,131.946 214.701,157.389 C214.701,172.356 205.012,179.152 185.094,179.437" fill="#FFEFD9"/>
      <path d="M186.559,137.753 C186.559,137.753 214.701,131.946 214.701,157.389 C214.701,172.356 205.012,179.152 185.094,179.437" fill-opacity="0" stroke="#797979" stroke-width="4" stroke-linecap="round" stroke-linejoin="round"/>
      <path d="M203.977,158.766 C203.977,158.766 200.287,157.063 196.772,157.084" fill="#FFEFD9"/>
      <path d="M203.977,158.766 C203.977,158.766 200.287,157.063 196.772,157.084" fill-opacity="0" stroke="#797979" stroke-width="4" stroke-linecap="round" stroke-linejoin="round"/>
      <path d="M201.532,137.559 C204.063,188.807 176.91,240.99 115.45,240.99 C54.278,240.99 27.093,189.299 29.334,138.286 C31.516,88.592 31.034,39.539 115.45,39.539 C199.864,39.539 199.088,88.114 201.532,137.559" fill="#FFEFD9"/>
      <path d="M201.532,137.559 C204.063,188.807 176.91,240.99 115.45,240.99 C54.278,240.99 27.093,189.299 29.334,138.286 C31.516,88.592 31.034,39.539 115.45,39.539 C199.864,39.539 199.088,88.114 201.532,137.559 z" fill-opacity="0" stroke="#797979" stroke-width="4" stroke-linecap="round" stroke-linejoin="round"/>
      <path d="M29.203,156.059 C29.203,156.059 15.252,171.599 22.459,193.056 C29.666,214.513 79.459,270.006 79.459,270.006 L84.291,264.676 C84.291,264.676 39.674,216.638 30.092,193.331 C24.99,180.923 27.671,171.399 30.798,166.409 z" fill="#EAEAEA"/>
      <path d="M29.203,156.059 C29.203,156.059 15.252,171.599 22.459,193.056 C29.666,214.513 79.459,270.006 79.459,270.006 L84.291,264.676 C84.291,264.676 39.674,216.638 30.092,193.331 C24.99,180.923 27.671,171.399 30.798,166.409 L29.203,156.059 z" fill-opacity="0" stroke="#797979" stroke-width="4" stroke-linecap="round" stroke-linejoin="round"/>
      <path d="M201.7,156.059 C201.7,156.059 215.649,171.599 208.442,193.056 C201.237,214.513 151.444,270.006 151.444,270.006 L146.612,264.676 C146.612,264.676 191.229,216.638 200.811,193.331 C205.91,180.923 203.231,171.399 200.104,166.409 z" fill="#EAEAEA"/>
      <path d="M201.7,156.059 C201.7,156.059 215.649,171.599 208.442,193.056 C201.237,214.513 151.444,270.006 151.444,270.006 L146.612,264.676 C146.612,264.676 191.229,216.638 200.811,193.331 C205.91,180.923 203.231,171.399 200.104,166.409 L201.7,156.059 z" fill-opacity="0" stroke="#797979" stroke-width="4" stroke-linecap="round" stroke-linejoin="round"/>
      <path d="M29.503,83.59 C29.503,83.59 60.673,55.714 66.356,46.815 L64.993,35.525 C64.993,35.525 13.64,54.742 29.503,83.59" fill="#9B8C81"/>
      <path d="M29.503,83.59 C29.503,83.59 60.673,55.714 66.356,46.815" fill="#9C8A76"/>
      <path d="M29.503,83.59 C29.503,83.59 60.673,55.714 66.356,46.815" fill-opacity="0" stroke="#797979" stroke-width="4" stroke-linecap="round" stroke-linejoin="round"/>
      <path d="M197.391,86.555 L178.922,73.185 L180.307,83.889 C164.942,81.124 112.64,55.888 112.64,55.888 C112.64,55.888 119.14,68.555 145.641,85.889 C101.14,84.055 70.39,57.055 58.087,42.157 C58.087,42.157 53.89,34.305 58.64,30.305 C63.39,26.305 94.329,9.464 131.64,15.305 C168.951,21.146 187.141,41.555 193.391,56.305 C199.641,71.055 197.391,86.555 197.391,86.555" fill="#9B8C81"/>
      <path d="M64.317,49.013 C76.621,63.911 101.14,84.055 145.641,85.889 C119.14,68.555 112.64,55.888 112.64,55.888 C112.64,55.888 164.942,81.124 180.307,83.889 L178.922,73.185 L197.391,86.555" fill-opacity="0" stroke="#797979" stroke-width="4" stroke-linecap="round" stroke-linejoin="round"/>
      <path d="M68.95,142.555 C68.95,142.555 71.575,130.555 79.45,130.555 C87.325,130.555 88.45,142.055 88.45,142.055" fill-opacity="0" stroke="#797979" stroke-width="4" stroke-linecap="round" stroke-linejoin="round"/>
      <path d="M161.95,142.555 C161.95,142.555 159.325,130.555 151.45,130.555 C143.575,130.555 142.45,142.055 142.45,142.055" fill-opacity="0" stroke="#797979" stroke-width="4" stroke-linecap="round" stroke-linejoin="round"/>
      <path d="M94.33,195.555 C94.33,195.555 97.33,207.555 115.33,207.555" fill-opacity="0" stroke="#797979" stroke-width="4" stroke-linecap="round" stroke-linejoin="round"/>
      <path d="M136.563,195.555 C136.563,195.555 133.563,207.555 115.563,207.555" fill-opacity="0" stroke="#797979" stroke-width="4" stroke-linecap="round" stroke-linejoin="round"/>
      <path d="M111.528,180.472 C111.528,180.472 110.195,186.472 115.447,186.139" fill-opacity="0" stroke="#797979" stroke-width="4" stroke-linecap="round" stroke-linejoin="round"/>
      <path d="M69.013,104.805 C69.013,104.805 72.446,102.655 78.296,102.655 C83.28,102.655 86.748,105.305 86.748,105.305" fill-opacity="0" stroke="#797979" stroke-width="4" stroke-linecap="round" stroke-linejoin="round"/>
      <path d="M161.881,104.805 C161.881,104.805 158.446,102.655 152.598,102.655 C147.614,102.655 144.145,105.305 144.145,105.305" fill-opacity="0" stroke="#797979" stroke-width="4" stroke-linecap="round" stroke-linejoin="round"/>
      <path d="M28.394,260.004 C26.896,259.125 25.209,257.89 23.336,256.176 C12.871,246.6 12.137,235.388 8.875,223.811 C5.617,212.227 7.701,196.409 20.029,193.721 C28.556,191.86 32.984,202.232 34.658,211.08 C36.338,219.934 38.131,225.534 38.131,225.534 C38.131,225.534 49.494,243.64 45.623,252.663 C44.605,255.037 43.385,256.792 42.195,258.082" fill="#FFEFD9"/>
      <path d="M28.394,260.004 C26.896,259.125 25.209,257.89 23.336,256.176 C12.871,246.6 12.137,235.388 8.875,223.811 C5.617,212.227 7.701,196.409 20.029,193.721 C28.556,191.86 32.984,202.232 34.658,211.08 C36.338,219.934 38.131,225.534 38.131,225.534 C38.131,225.534 49.494,243.64 45.623,252.663 C44.605,255.037 43.385,256.792 42.195,258.082" fill-opacity="0" stroke="#797979" stroke-width="4" stroke-linecap="round" stroke-linejoin="round"/>
      <path d="M30.193,198.81 C30.193,198.81 26.402,202.12 25.138,208.159 C23.875,214.195 24.881,221.469 24.881,221.469" fill="#FFEFD9"/>
      <path d="M30.193,198.81 C30.193,198.81 26.402,202.12 25.138,208.159 C23.875,214.195 24.881,221.469 24.881,221.469" fill-opacity="0" stroke="#797979" stroke-width="4" stroke-linecap="round" stroke-linejoin="round"/>
      <path d="M22.158,193.512 C22.158,193.512 16.205,197.503 15.363,205.453 C14.642,212.248 14.439,214.338 14.439,214.338" fill="#FFEFD9"/>
      <path d="M22.158,193.512 C22.158,193.512 16.205,197.503 15.363,205.453 C14.642,212.248 14.439,214.338 14.439,214.338" fill-opacity="0" stroke="#797979" stroke-width="4" stroke-linecap="round" stroke-linejoin="round"/>
      <path d="M23.336,255.326 L23.347,266.114 L42.334,269.958 L43.205,255.369" fill="#FFEFD9"/>
      <path d="M23.336,255.326 L23.347,266.114 L42.334,269.958 L43.205,255.369" fill-opacity="0" stroke="#797979" stroke-width="4" stroke-linecap="round" stroke-linejoin="round"/>
      <path d="M41.918,314.055 L45.169,269.958 L18.669,264.458 C18.669,264.458 12.227,310.199 10.749,330.157 C9.901,341.604 22.868,354.491 40.716,341.484 C43.975,339.108 52.619,328.607 52.619,328.607" fill="#FFFFFF"/>
      <path d="M41.918,314.055 L45.169,269.958 L18.669,264.458 C18.669,264.458 12.227,310.199 10.749,330.157 C9.901,341.604 22.868,354.491 40.716,341.484 C43.975,339.108 52.619,328.607 52.619,328.607" fill-opacity="0" stroke="#797979" stroke-width="4" stroke-linecap="round" stroke-linejoin="round"/>
      <path d="M247.832,178.226 C231.868,178.929 249.399,201.004 250.157,210.18 C250.562,215.097 244.828,219.764 243.517,226.212 C231.664,223.729 218.021,224.899 215.698,232.24 C211.323,246.063 218.272,254.117 218.272,254.117 L212.078,274.676 L233.838,280.279 L238.85,262.989 C238.85,262.989 250.939,256.773 257.663,247.829 C260.639,245.978 271.582,238.545 273.192,228.402 C275.065,216.646 256.467,177.845 247.832,178.226" fill="#FFEFD9"/>
      <path d="M247.832,178.226 C231.868,178.929 249.399,201.004 250.157,210.18 C250.562,215.097 244.828,219.764 243.517,226.212 C231.664,223.729 218.021,224.899 215.698,232.24 C211.323,246.063 218.272,254.117 218.272,254.117 L212.078,274.676 L233.838,280.279 L238.85,262.989 C238.85,262.989 250.939,256.773 257.663,247.829 C260.639,245.978 271.582,238.545 273.192,228.402 C275.065,216.646 256.467,177.845 247.832,178.226 z" fill-opacity="0" stroke="#797979" stroke-width="4" stroke-linecap="round" stroke-linejoin="round"/>
      <path d="M218.93,254.445 C218.93,254.445 205.276,246.786 205.248,234.944 C205.219,223.1 199.037,201.839 199.037,201.839 C199.037,201.839 208.438,193.626 212.409,204.746 C216.375,215.867 219.707,227.563 219.707,227.563 L223.076,232.04" fill="#FFEFD9"/>
      <path d="M218.93,254.445 C218.93,254.445 205.276,246.786 205.248,234.944 C205.219,223.1 199.037,201.839 199.037,201.839 C199.037,201.839 208.438,193.626 212.409,204.746 C216.375,215.867 219.707,227.563 219.707,227.563 L223.076,232.04" fill-opacity="0" stroke="#797979" stroke-width="4" stroke-linecap="round" stroke-linejoin="round"/>
      <path d="M195.174,308.364 L208.471,259.685 L243.459,270.364 C243.459,270.364 227.026,316.851 218.61,335.005 C209.498,354.657 189.541,352.553 171.795,327.608" fill="#FFFFFF"/>
      <path d="M195.174,308.364 L208.471,259.685 L243.459,270.364 C243.459,270.364 227.026,316.851 218.61,335.005 C209.498,354.657 189.541,352.553 171.795,327.608" fill-opacity="0" stroke="#797979" stroke-width="4" stroke-linecap="round" stroke-linejoin="round"/>
      <path d="M158.276,264.318 L151.694,257.68 C151.694,257.68 123.301,291.105 117.158,291.105 L113.744,291.105 C107.601,291.105 79.207,257.68 79.207,257.68 L72.627,264.318 C72.627,264.318 101.251,297.057 110.966,301.93 L111.091,302.556 L112.931,302.556 L117.971,302.556 L119.81,302.556 L119.935,301.931 C129.649,297.06 158.276,264.318 158.276,264.318" fill="#ABABAB"/>
      <path d="M158.276,264.318 L151.694,257.68 C151.694,257.68 123.301,291.105 117.158,291.105 L113.744,291.105 C107.601,291.105 79.207,257.68 79.207,257.68 L72.627,264.318 C72.627,264.318 101.251,297.057 110.966,301.93 L111.091,302.556 L112.931,302.556 L117.971,302.556 L119.81,302.556 L119.935,301.931 C129.649,297.06 158.276,264.318 158.276,264.318 z" fill-opacity="0" stroke="#797979" stroke-width="4" stroke-linecap="round" stroke-linejoin="round"/>
      <path d="M225.561,258.241 C222.114,276.512 204.75,328.523 166.325,349.481 C155.727,355.26 146.455,355.876 138.768,351.313 C124.262,342.701 118.833,318.23 118.833,313.889 C118.833,306.584 119.064,302.814 119.067,302.777 L112.081,302.334 C112.071,302.493 111.833,306.328 111.833,313.889 C111.833,319.909 117.93,347.083 135.194,357.332 C145.155,363.245 156.756,362.671 169.676,355.625 C210.493,333.366 228.821,278.716 232.44,259.537 C235.789,241.777 236.153,216.342 236.166,215.268 L229.166,215.178 C229.164,215.435 228.797,241.083 225.561,258.241" fill="#ABABAB"/>
      <path d="M225.561,258.241 C222.114,276.512 204.75,328.523 166.325,349.481 C155.727,355.26 146.455,355.876 138.768,351.313 C124.262,342.701 118.833,318.23 118.833,313.889 C118.833,306.584 119.064,302.814 119.067,302.777 L112.081,302.334 C112.071,302.493 111.833,306.328 111.833,313.889 C111.833,319.909 117.93,347.083 135.194,357.332 C145.155,363.245 156.756,362.671 169.676,355.625 C210.493,333.366 228.821,278.716 232.44,259.537 C235.789,241.777 236.153,216.342 236.166,215.268 L229.166,215.178 C229.164,215.435 228.797,241.083 225.561,258.241 z" fill-opacity="0" stroke="#797979" stroke-width="4" stroke-linecap="round" stroke-linejoin="round"/>
      <path d="M234.078,259.825 C239.877,262.535 272.233,251.421 274.684,241.217 C277.137,231.012 274.864,218.182 271.811,209.143 C268.758,200.105 244.448,203.806 240.907,213.617 C237.364,223.428 240.77,241.294 245.676,243.066 C250.58,244.834 258.348,242.095 258.348,242.095" fill="#FFEFD9"/>
      <path d="M234.078,259.825 C239.877,262.535 272.233,251.421 274.684,241.217 C277.137,231.012 274.864,218.182 271.811,209.143 C268.758,200.105 244.448,203.806 240.907,213.617 C237.364,223.428 240.77,241.294 245.676,243.066 C250.58,244.834 258.348,242.095 258.348,242.095" fill-opacity="0" stroke="#797979" stroke-width="4" stroke-linecap="round" stroke-linejoin="round"/>
      <path d="M256.504,218 C251.922,230.686 237.924,237.255 225.237,232.676 C212.551,228.095 205.981,214.096 210.561,201.409 C215.141,188.725 229.139,182.153 241.826,186.735 C254.512,191.314 261.082,205.312 256.504,218" fill="#EAEAEA"/>
      <path d="M256.504,218 C251.922,230.686 237.924,237.255 225.237,232.676 C212.551,228.095 205.981,214.096 210.561,201.409 C215.141,188.725 229.139,182.153 241.826,186.735 C254.512,191.314 261.082,205.312 256.504,218 z" fill-opacity="0" stroke="#797979" stroke-width="4" stroke-linecap="round" stroke-linejoin="round"/>
    </g>
  </g>
</svg>
