<?xml version="1.0" encoding="UTF-8"?>
<!DOCTYPE svg PUBLIC "-//W3C//DTD SVG 1.1//EN" "http://www.w3.org/Graphics/SVG/1.1/DTD/svg11.dtd">
<svg version="1.1" xmlns="http://www.w3.org/2000/svg" xmlns:xlink="http://www.w3.org/1999/xlink" x="0" y="0" width="673" height="1087" viewBox="0, 0, 673, 1087">
  <defs>
    <clipPath id="Clip_1">
      <path d="M-0,0.24 L672.413,0.24 L672.413,1086.94 L-0,1086.94 z"/>
    </clipPath>
  </defs>
  <g id="Layer_1">
    <g clip-path="url(#Clip_1)">
      <path d="M189.424,1082.68 L481.424,1082.68 L517.424,982.683 L522.424,908.683 L516.424,841.683 L501.424,795.683 L485.424,757.683 L439.424,761.683 L363.424,766.683 L286.424,765.683 L230.424,762.683 L183.424,746.683 L167.424,784.683 L151.424,853.683 L144.424,902.683 L151.424,973.683 L163.424,1030.68 L190.521,1086.02 L189.424,1082.68" fill="#FFFFFF"/>
      <path d="M292.99,801.336 C285.243,805.741 277.921,809.905 270.599,814.068 C262.433,818.712 257.899,817.055 254.446,808.217 C250.033,796.921 245.533,785.66 241.197,774.335 C240.202,771.736 238.951,770.557 235.896,770.277 C220.613,768.877 205.585,765.984 191.23,760.424 C187.736,759.071 187.353,761.039 186.449,763.165 C177.457,784.314 170.297,806.064 164.94,828.414 C155.396,868.226 151.858,908.527 155.642,949.326 C159.651,992.536 171.781,1033.42 191.931,1071.89 C192.393,1072.77 192.905,1073.63 193.321,1074.54 C195.331,1078.91 194.056,1084.09 190.521,1086.02 C186.502,1088.22 179.681,1086.35 177.536,1082.31 C162.265,1053.51 150.964,1023.24 144.391,991.293 C127.791,910.605 138.683,832.852 169.938,757.395 C171.667,753.222 171.482,751.586 167.31,749.19 C136.806,731.671 115.886,705.438 100.6,674.305 C84.837,642.199 76.296,607.916 70.448,572.857 C68.203,559.395 66.275,545.88 65.188,532.271 C64.908,528.76 63.596,527.653 60.017,527.5 C51.878,527.151 43.803,525.984 35.857,524.016 C8.926,517.347 -1.353,498.571 0.141,473.343 C1.441,451.381 14.097,437.71 34.284,430.614 C38.362,429.181 38.718,428.04 36.589,424.348 C23.471,401.598 17.311,376.607 14.628,350.803 C8.461,291.5 14.467,233.189 34.945,177.291 C67.224,89.178 130.102,32.912 220.883,10.055 C305.884,-11.346 386.52,2.868 462.134,46.67 C465.475,48.605 468.722,49.686 472.71,50.068 C561.659,58.582 622.46,104.51 654.146,188.111 C666.698,221.231 672.192,255.881 672.275,291.292 C672.328,313.929 673.069,336.581 670.469,359.18 C667.512,384.883 662.84,410.149 653.34,434.321 C652.134,437.39 652.41,439.043 655.029,441.424 C670.015,455.05 672.886,472.337 668.802,491.249 C664.944,509.116 652.927,518.998 635.874,523.66 C627.966,525.823 619.879,527.054 611.753,527.389 C607.308,527.572 605.893,529.097 605.511,533.272 C603.494,555.33 600.078,577.19 595.313,598.819 C586.962,636.726 574.889,673.163 552.38,705.377 C538.343,725.467 521.047,742.021 499.41,753.774 C497.067,755.047 496.517,756.142 497.595,758.671 C512.422,793.441 522.193,829.633 527.024,867.086 C536.006,936.725 526.967,1003.73 496.852,1067.52 C494.654,1072.18 492.319,1076.77 489.948,1081.34 C487.453,1086.15 480.944,1088.4 476.515,1086.08 C472.647,1084.06 471.632,1078.44 474.335,1073.29 C488.613,1046.05 499.164,1017.49 505.501,987.361 C513.14,951.041 514.577,914.486 510.563,877.622 C506.433,839.68 496.861,803.182 482.571,767.836 C480.961,763.854 479.688,762.771 475.283,764.359 C460.654,769.634 445.408,772.277 429.89,773.074 C426.167,773.266 424.522,774.849 423.186,778.18 C418.735,789.274 413.945,800.232 409.229,811.219 C405.994,818.755 401.211,820.246 394.12,815.996 C385.608,810.894 377.113,805.765 367.897,800.217 C367.329,808.693 366.694,816.43 366.33,824.18 C366.065,829.826 365.273,834.925 358.613,836.481 C356.292,837.023 357.344,838.872 357.386,840.169 C358.04,859.963 358.727,879.756 359.46,899.547 C360.791,935.468 362.129,971.388 363.552,1007.31 C363.709,1011.27 362.6,1014.36 359.549,1016.98 C350.963,1024.36 342.528,1031.91 333.964,1039.31 C329.672,1043.02 325.229,1043.04 320.972,1039.21 C312.185,1031.31 303.551,1023.23 294.817,1015.26 C292.14,1012.82 291.224,1009.88 291.468,1006.31 C293.356,978.752 295.204,951.188 297.013,923.621 C298.887,895.058 300.683,866.49 302.582,837.929 C302.739,835.565 302.528,834.05 299.936,832.937 C296.816,831.596 295.649,828.587 295.352,825.184 C294.677,817.45 293.833,809.731 292.99,801.336" fill="#6E4100"/>
    </g>
    <path d="M451.415,924.436 C451.613,977.792 440.263,1028.63 416.564,1076.56 C415.831,1078.05 415.117,1079.62 414.035,1080.83 C411.157,1084.05 406.274,1084.44 402.657,1081.95 C399.07,1079.49 397.924,1074.97 400.138,1070.4 C405.645,1059.03 410.786,1047.51 414.991,1035.6 C433.617,982.831 439.379,928.834 430.282,873.447 C429.959,871.479 429.373,869.545 429.161,867.569 C428.609,862.426 431.417,858.532 436.145,857.665 C440.902,856.794 445.15,859.67 446.342,864.953 C449.277,877.965 450.839,891.178 451.369,904.492 C451.633,911.13 451.415,917.787 451.415,924.436" fill="#6E4100"/>
    <path d="M214.789,923.561 C215.219,904.231 216.305,884.975 220.403,866.014 C221.765,859.713 226.04,856.523 231.262,857.736 C236.312,858.909 238.587,863.329 237.512,869.419 C225.277,938.702 235.657,1004.78 265.756,1068.05 C266.895,1070.44 268.416,1072.76 268.022,1075.54 C267.427,1079.75 265.087,1082.68 260.804,1083.4 C256.577,1084.11 253.355,1082.35 251.359,1078.48 C246.94,1069.9 243.001,1061.11 239.475,1052.13 C224.181,1013.22 215.76,972.913 215.207,931.033 C215.174,928.541 214.933,926.051 214.789,923.561" fill="#6E4100"/>
    <path d="M350.959,758.446 C311.653,758.275 272.4,756.558 233.333,752.331 C179.89,746.548 142.524,717.581 118.329,670.415 C102.757,640.059 94.238,607.502 88.443,574.129 C81.195,532.392 78.741,490.203 76.941,447.963 C75.829,421.858 74.006,395.765 74.614,369.618 C75.47,332.856 79.571,296.618 93.424,262.114 C112.19,215.375 146.46,184.042 191.597,163.612 C221.24,150.194 252.453,143.575 284.922,142.698 C287.111,142.639 289.257,142.145 291.144,144.562 C312.084,171.389 339.444,190.091 369.389,205.262 C413.639,227.679 460.69,241.468 509.469,249.726 C527.865,252.841 546.353,255.141 565.011,255.731 C567.856,255.821 568.608,257.423 569.582,259.397 C581.003,282.549 588.154,307.011 592.375,332.424 C597.076,360.724 595.565,389.175 594.774,417.611 C594.047,443.725 593.238,469.84 591.332,495.902 C587.524,547.953 581.263,599.564 562.341,648.731 C551.138,677.84 535.63,704.16 511.351,724.495 C488.33,743.776 461.344,753.1 431.77,755.448 C404.884,757.581 377.941,758.616 350.959,758.446" fill="#FEF5E2"/>
    <path d="M284.513,19.649 C285.118,19.346 285.723,19.043 286.328,18.739 C289.343,18.531 292.377,18.522 295.349,17.874 C336.457,18.774 376.277,26.003 414.289,42.1 C433.348,50.171 451.475,59.947 468.551,71.67 C474.135,75.505 477.266,75.218 482.098,70.336 C483.664,68.754 485.103,68.679 487.005,68.987 C524.003,74.976 557.173,89.395 585.272,114.443 C608.846,135.458 625.39,161.362 636.519,190.817 C645.924,215.708 651.031,241.503 653.561,267.95 C655.453,287.723 655.955,307.514 655.128,327.293 C653.794,359.25 650.108,390.902 639.5,421.358 C636.504,429.962 636.521,429.893 627.576,427.98 C624.339,427.288 621.024,426.857 617.721,426.595 C613.864,426.288 611.94,425.148 612.131,420.554 C612.803,404.428 613.42,388.275 613.241,372.142 C612.813,333.641 605.236,296.543 589.838,261.175 C588.263,257.558 588.446,256.568 592.615,256.127 C598.055,255.552 601.157,251.35 600.687,246.545 C600.199,241.554 596.737,238.595 590.97,238.674 C534.459,239.45 479.866,228.852 426.68,210.502 C391.556,198.383 358.32,182.44 329.39,158.629 C311.808,144.158 297.275,127.274 288.827,105.742 C286.383,99.511 282.002,97.269 276.87,99.359 C271.606,101.503 270.044,105.898 272.493,112.261 C273.806,115.672 275.219,119.077 276.958,122.283 C278.366,124.878 278.085,125.572 275.023,125.719 C245.852,127.119 217.728,133.444 190.841,144.763 C142.683,165.037 104.654,196.509 81.92,244.606 C71.383,266.897 65.301,290.469 61.42,314.711 C56.287,346.777 57.207,379.074 57.525,411.353 C57.543,413.172 57.396,414.994 57.325,416.814 C54.968,416.549 54.671,414.556 54.118,412.868 C48.853,396.789 46.108,380.247 45.034,363.392 C44.728,358.582 44.084,353.813 44.001,348.965 C43.557,322.914 45.838,297.087 50.25,271.448 C55.631,240.167 63.63,209.601 76.271,180.39 C92.394,143.133 114.032,109.561 143.95,81.852 C167.667,59.885 194.83,43.313 225.244,32.093 C240.607,26.426 256.365,22.465 272.479,19.787 C273.792,19.568 275.14,19.696 276.474,19.679 C279.155,19.819 281.829,18.417 284.513,19.649" fill="#868D91"/>
    <path d="M276.305,20.454 C193.558,33.803 132.983,78.393 92.263,151.006 C71.932,187.261 59.8,226.321 52.449,267.015 C47.168,296.253 44.388,325.708 45.822,355.44 C46.755,374.763 49.316,393.859 55.346,412.353 C55.855,413.915 56.035,415.604 57.325,416.813 C57.701,419.39 58.076,421.966 58.583,425.446 C55.474,422.471 53.93,419.45 52.261,416.558 C41.013,397.065 35.276,375.724 32.65,353.653 C25.552,293.997 31.487,235.34 52.924,179.354 C84.353,97.271 144.602,46.689 229.8,25.732 C243.043,22.475 256.471,20.059 270.166,19.598 C272.267,19.495 274.565,17.972 276.305,20.454" fill="#FEFEFE"/>
    <path d="M345.548,994.437 C348.963,1002.98 342.834,1009.02 335.375,1014.89 C327.346,1021.2 327.918,1021 319.924,1014.66 C311.872,1008.27 308.938,1001.53 309.87,990.632 C313.682,946.077 316.106,901.403 319.038,856.773 C319.452,850.47 319.943,844.169 320.209,837.859 C320.31,835.478 320.974,834.78 323.471,835.079 C327.258,835.532 331.137,835.783 334.926,835.479 C338.899,835.159 339.628,836.941 339.734,840.354 C340.282,858.136 340.99,875.914 341.669,893.692 C342.926,926.59 344.201,959.487 345.548,994.437" fill="#FFBF71"/>
    <path d="M62.292,502.448 C62.79,510.288 62.777,510.399 54.791,509.506 C50.172,508.989 45.531,508.334 41.021,507.242 C24.709,503.295 15.407,494.679 17.891,471.989 C19.552,456.827 30.483,449.744 43.93,445.835 C48.386,444.54 53.724,442.2 57.496,444.037 C62.036,446.248 59.249,452.334 59.59,456.645 C60.797,471.888 61.437,487.177 62.292,502.448" fill="#FEF5E2"/>
    <path d="M608.343,503.572 C609.781,484.527 610.823,465.46 611.297,446.366 C611.351,444.19 611.99,443.408 614.176,443.651 C624.375,444.784 634.172,447.048 642.372,453.706 C652.842,462.206 654.059,473.633 652.089,485.848 C650.262,497.176 642.857,503.425 632.271,506.462 C626.505,508.116 620.601,509.053 614.641,509.592 C608.059,510.187 608.054,510.131 608.343,503.572" fill="#FEF5E2"/>
    <path d="M350.56,796.346 C350.101,803.481 349.642,809.28 349.396,815.088 C349.295,817.468 348.769,818.776 345.984,818.607 C335.873,817.996 325.756,817.487 315.635,817.084 C313.192,816.987 312.112,816.18 311.913,813.651 C311.394,807.031 310.736,800.417 309.94,793.824 C309.704,791.864 310.732,791.178 312.08,790.414 C318.151,786.974 324.237,783.557 330.252,780.02 C331.891,779.057 333.179,779.018 334.79,780.08 C337.84,782.09 340.915,784.119 344.18,785.734 C349.276,788.255 352.962,791.272 350.56,796.346" fill="#FFBF71"/>
    <path d="M259.222,772.347 C274.103,773.237 288.109,774.074 303.518,774.995 C294.108,780.366 285.817,785.093 277.531,789.827 C268.249,795.131 268.253,795.133 264.245,784.994 C262.669,781.008 261.081,777.027 259.222,772.347" fill="#FEFDFD"/>
    <path d="M363.451,775.356 C377.321,775.356 391.192,775.356 405.346,775.356 C402.396,782.296 399.37,789.412 396.249,796.753 C384.959,789.916 374.052,783.31 363.144,776.704 C363.247,776.255 363.349,775.805 363.451,775.356" fill="#FDFDFD"/>
    <path d="M276.305,20.454 C274.423,18.996 272.183,20.1 270.167,19.598 C274.951,18.927 279.739,17.406 284.513,19.65 C281.777,19.917 279.041,20.186 276.305,20.454" fill="#F8F8F9"/>
    <path d="M295.349,17.874 C292.421,18.984 289.537,20.555 286.329,18.739 C289.166,16.694 292.322,17.955 295.349,17.874" fill="#B5A797"/>
    <path d="M150.904,552.58 C139.093,551.366 125.151,550.102 113.164,541.165 C98.096,529.931 96.658,514.892 107.483,500.349 C120.101,483.398 137.741,477.071 158.682,479.448 C176.382,481.458 188.622,490.667 196.462,506.527 C201.162,516.034 200.034,524.829 193.635,532.567 C183.242,545.137 170.053,552.81 150.904,552.58" fill="#FFE0C5"/>
    <path d="M488.544,497.595 C500.337,486.042 514.462,480.348 530.956,481.696 C549.544,483.216 564.364,494.088 569.735,511.754 C572.786,521.787 567.983,529.947 560.753,536.572 C550.368,546.086 538.108,550.887 523.893,549.57 C512.454,548.511 501.192,546.656 491.49,539.718 C489.844,538.541 488.302,537.341 487.277,535.572 C485.955,534.271 485.786,532.572 486.021,530.932 C487.327,521.838 486.516,512.694 486.804,503.578 C486.871,501.46 486.608,499.193 488.544,497.595" fill="#FFE0C5"/>
    <path d="M226.384,604.527 C226.815,614.955 224.173,623.854 218.78,632.003 C212.714,641.168 203.899,644.563 193.421,643.434 C183.022,642.313 176.411,635.872 172.485,626.469 C167.896,615.479 169.201,604.388 172.041,593.294 C176.41,576.227 184.527,560.81 193.071,545.58 C195.255,541.687 198.069,539.019 202.989,539.569 C207.783,540.104 209.391,543.437 210.851,547.423 C215.924,561.275 221.959,574.796 224.809,589.387 C225.827,594.603 226.784,599.82 226.384,604.527" fill="#BDD7DB"/>
    <path d="M488.544,497.595 C487.986,510.25 489.012,522.957 487.278,535.572 C484.397,542.91 482.668,550.66 477.567,557.128 C472.023,564.158 464.97,567.272 456.618,565.285 C448.144,563.269 441.851,557.858 439.396,548.953 C437.502,542.084 438.091,535.059 438.63,528.15 C439.234,520.402 440.039,512.673 440.462,504.903 C440.883,497.14 441.453,489.409 440.398,481.652 C439.839,477.543 439.396,473.599 435.978,470.477 C432.625,467.414 432.609,462.564 435.33,459.186 C438.153,455.682 442.354,454.815 446.432,457.182 C453.09,461.046 455.186,467.656 456.554,474.641 C460.138,478.435 459.339,483.385 459.689,487.871 C460.467,497.86 458.898,507.804 458.341,517.769 C457.951,524.746 456.769,531.667 456.846,538.677 C456.865,540.344 456.867,542.034 457.553,543.591 C458.886,546.613 461.144,547.01 463.319,544.49 C465.308,542.184 466.42,539.359 467.253,536.467 C468.967,530.514 469.823,524.418 469.878,518.226 C469.943,510.896 469.694,503.559 469.982,496.238 C470.143,492.167 469.95,487.819 473.416,484.653 C476.981,481.213 481.018,479.932 485.444,482.733 C489.749,485.458 489.665,489.797 488.968,494.206 C488.79,495.33 488.683,496.465 488.544,497.595" fill="#BDD7DB"/>
    <path d="M217.137,451.623 C214.806,451.623 212.473,451.693 210.145,451.61 C203.192,451.364 199.521,445.251 202.771,438.956 C203.653,437.247 203.689,436.296 202.848,434.578 C199.408,427.547 203.324,421.664 211.515,421.67 C223.71,421.679 235.769,420.681 247.604,417.645 C250.332,416.946 253,415.994 255.662,415.061 C259.416,413.745 262.98,413.86 265.756,416.949 C268.624,420.139 269.048,423.895 266.535,427.463 C265.379,429.103 266.089,429.996 266.754,431.341 C269.573,437.051 267.738,441.683 261.653,444.03 C247.334,449.554 232.319,451.102 217.137,451.623" fill="#6E4100"/>
    <path d="M451.228,451.624 C436.542,451.119 422.017,449.582 408.093,444.517 C400.617,441.798 398.906,437.84 402.223,430.704 C402.932,429.178 402.53,428.471 401.83,427.281 C399.758,423.761 399.976,420.203 402.637,417.093 C405.36,413.909 408.988,413.583 412.676,414.977 C426.441,420.184 440.787,421.54 455.335,421.621 C465.733,421.679 468.773,425.928 465.027,435.648 C464.441,437.171 465.236,437.731 465.695,438.693 C468.997,445.617 465.374,451.496 457.725,451.619 C455.56,451.653 453.393,451.624 451.228,451.624" fill="#6E4100"/>
    <path d="M335.129,682.458 C354.922,682.373 372.216,686.844 388.974,693.701 C393.57,695.582 395.275,699.675 393.557,703.771 C391.834,707.878 387.961,709.435 383.171,707.547 C369.959,702.342 356.464,698.403 342.192,697.591 C323.124,696.506 305.309,701.423 288.015,708.854 C286.947,709.313 285.935,709.926 284.839,710.294 C280.484,711.753 276.31,710.081 274.775,706.331 C273.174,702.42 274.698,698.509 279.014,696.47 C290.314,691.13 302.071,687.091 314.351,684.658 C321.715,683.199 329.148,682.388 335.129,682.458" fill="#6E4100"/>
    <path d="M473.416,484.653 C471.299,490.897 471.357,497.368 471.344,503.845 C471.325,514.119 471.927,524.427 469.434,534.561 C468.509,538.321 467.05,541.836 465.031,545.079 C463.943,546.828 462.729,549.095 460.038,548.366 C457.409,547.654 455.656,545.705 455.503,542.996 C455.279,539.023 455.128,534.986 455.567,531.045 C456.926,518.857 457.752,506.637 458.289,494.394 C458.58,487.745 457.808,481.166 456.553,474.641 C462.918,476.726 467.442,481.91 473.416,484.653" fill="#FEFEFE"/>
    <path d="M436.885,280.177 C425.351,280.238 413.686,270.902 411.556,259.818 C410.871,256.252 412.219,253.508 415.648,252.21 C419.104,250.902 421.849,252.134 423.625,255.332 C424.428,256.778 424.918,258.396 425.715,259.846 C429.942,267.539 437.488,269.179 444.582,263.991 C448.9,260.833 452.626,260.881 455.068,264.125 C457.512,267.373 456.591,271.185 452.507,274.429 C447.939,278.059 442.744,280.034 436.885,280.177" fill="#6E4100"/>
    <path d="M234.374,280.16 C225.679,279.987 220.077,277.765 215.287,273.527 C211.815,270.456 211.104,266.22 213.837,263.483 C216.918,260.398 220.189,260.673 223.601,263.322 C231.595,269.527 239.353,267.591 243.855,258.399 C244.29,257.51 244.574,256.54 245.06,255.681 C247.019,252.221 250.088,251.25 253.559,252.753 C256.871,254.188 257.986,257.116 257.09,260.632 C254.332,271.457 243.132,280.177 234.374,280.16" fill="#6E4100"/>
    <path d="M325.171,469.609 C325.236,464.985 327.164,462.313 331.144,461.614 C335.002,460.937 338.089,462.331 339.497,466.213 C340.738,469.633 341.84,473.047 343.655,476.281 C345.586,479.722 344.682,483.265 341.369,485.494 C337.977,487.776 334.315,487.59 331.438,484.455 C327.472,480.134 326.079,474.655 325.171,469.609" fill="#6E4100"/>
    <path d="M200.516,569.914 C206.04,584.123 211.772,598.142 208.408,613.763 C207.845,616.374 206.815,618.807 205.579,621.183 C203.581,625.028 200.305,626.805 196.207,626.464 C192.208,626.132 189.668,623.412 188.294,619.754 C186.382,614.667 186.39,609.487 187.288,604.127 C189.339,591.873 193.956,580.648 200.516,569.914" fill="#FEFEFE"/>
  </g>
</svg>
