<?xml version="1.0" encoding="UTF-8"?>
<!DOCTYPE svg PUBLIC "-//W3C//DTD SVG 1.1//EN" "http://www.w3.org/Graphics/SVG/1.1/DTD/svg11.dtd">
<svg version="1.1" xmlns="http://www.w3.org/2000/svg" xmlns:xlink="http://www.w3.org/1999/xlink" x="0" y="0" width="470" height="1280" viewBox="0, 0, 470, 1280">
  <g id="Layer_1">
    <path d="M419.89,874.12 C425.3,870.275 427.86,866.83 428.46,865.96 C429.765,864.065 430.42,861.79 430.32,859.49 C425.705,749.805 415.055,671.515 398.655,626.595 C399.805,624.655 400.885,622.71 401.895,620.74 C402.235,621.09 402.595,621.41 402.99,621.71 C406.205,624.175 410.535,624.6 414.165,622.815 C439.9,610.135 464.49,560.675 446.095,508.94 C440.17,492.285 435.96,463.68 433.865,425.99 C452.335,411.01 459.05,386.53 459.05,369.045 C459.05,357.175 454.47,345.735 446.51,337.09 C467.81,287.32 480.865,212.32 432.56,125.99 C376.37,25.575 305.165,4.49 255.325,4.49 C248.36,4.49 241.34,4.91 234.435,5.755 C227.53,4.91 220.51,4.49 213.545,4.49 C163.695,4.49 92.485,25.575 36.3,125.99 C-12.005,212.32 1.045,287.325 22.35,337.095 C14.395,345.745 9.82,357.18 9.82,369.045 C9.82,384.635 15.455,407.18 30.965,422.415 C28.945,461.885 24.665,491.74 18.55,508.94 C0.16,560.675 24.755,610.135 50.49,622.815 C51.955,623.535 53.54,623.905 55.115,623.91 C58.015,623.93 60.82,622.76 62.78,620.825 C64.54,624.23 66.505,627.6 68.69,630.91 C53.155,676.49 43.015,753.335 38.55,859.49 C38.45,861.79 39.105,864.065 40.41,865.96 C41.01,866.83 43.57,870.275 48.98,874.115 C32.855,886.075 -4.89,918.195 8.275,948.22 C12.81,958.55 20.96,964.24 31.23,964.24 C45.125,964.24 60.255,953.18 71.305,942.45 C72.19,944.085 73.255,945.61 74.53,946.925 C78.485,951.05 83.74,952.97 89.825,951.91 C92.47,951.455 96.095,950.13 99.265,946.51 C99.075,970.445 98.865,996.865 98.62,1026.255 C98.595,1029.095 99.705,1031.82 101.7,1033.825 C103.695,1035.84 106.41,1036.97 109.25,1036.97 L122.535,1036.97 C124.705,1052.69 127.295,1068.255 130.245,1083.365 C131.22,1088.35 135.595,1091.955 140.68,1091.955 L160.535,1091.955 C164.97,1122.68 166.405,1139.365 169.26,1172.56 C170.015,1181.32 170.865,1191.22 171.895,1202.815 C171.1,1203.515 170.22,1204.305 169.28,1205.17 C167.835,1205.46 166.9,1205.72 166.64,1205.795 C165.265,1206.195 163.985,1206.865 162.875,1207.775 C146.67,1221.015 137.29,1232.855 134.465,1243.635 C133.36,1247.845 133.22,1251.885 134.115,1255.795 C137.535,1270.74 153.335,1274.935 155.125,1275.365 C155.4,1275.43 155.68,1275.49 155.955,1275.53 C158.785,1275.98 161.72,1276.2 164.685,1276.2 C190.645,1276.2 216.34,1259.28 230.455,1244.785 C231.91,1243.295 233.425,1241.64 234.895,1239.875 C236.375,1241.64 237.89,1243.295 239.345,1244.785 C253.46,1259.28 279.15,1276.2 305.115,1276.2 C308.08,1276.2 311.015,1275.98 313.845,1275.53 C314.12,1275.49 314.4,1275.43 314.675,1275.365 C316.465,1274.935 332.265,1270.74 335.685,1255.795 C336.565,1251.915 336.44,1247.905 335.36,1243.725 C332.565,1232.92 323.175,1221.05 306.92,1207.775 C305.81,1206.865 304.535,1206.195 303.165,1205.795 C302.9,1205.72 301.965,1205.46 300.52,1205.17 C299.58,1204.305 298.705,1203.52 297.91,1202.815 C298.93,1191.31 299.775,1181.475 300.52,1172.775 C303.385,1139.485 304.82,1122.74 309.265,1091.955 L324.035,1091.955 C329.115,1091.955 333.49,1088.35 334.47,1083.365 C337.415,1068.26 339.93,1052.7 341.975,1036.97 L359.62,1036.97 C359.655,1036.97 359.685,1036.97 359.715,1036.97 C365.59,1036.97 370.345,1032.21 370.345,1026.345 C370.345,1025.815 370.31,1025.3 370.235,1024.79 C370,995.98 369.785,970.05 369.6,946.51 C372.775,950.13 376.395,951.455 379.04,951.91 C385.15,952.95 390.385,951.045 394.34,946.925 C395.61,945.61 396.675,944.085 397.57,942.45 C408.615,953.18 423.735,964.24 437.64,964.24 L437.645,964.24 C447.91,964.24 456.06,958.55 460.595,948.215 C473.76,918.195 436.01,886.075 419.89,874.12 z M383.745,936.75 C382.85,937.68 382.265,937.57 381.555,937.435 C381.155,937.365 380.72,936.99 380.265,936.32 C375.115,928.8 376.505,900.755 379.725,884.745 C379.855,884.105 379.825,883.45 379.645,882.815 L378.81,879.925 C388.96,879.405 396.97,877.6 403.255,875.325 L403.655,878.96 C403.79,880.16 404.45,881.24 405.45,881.895 C420.135,891.655 456.255,921.525 447.14,942.315 C444.29,948.8 440.355,949.555 437.64,949.555 C422.73,949.555 399.505,924.76 394.86,916.875 C394.115,915.615 392.775,914.875 391.365,914.875 C390.98,914.875 390.595,914.93 390.215,915.04 C388.425,915.575 387.225,917.245 387.305,919.105 C387.48,923.47 386.845,933.52 383.745,936.75 z M355.525,1022.28 L250.4,1022.28 L238.47,912.2 C238.245,910.135 236.51,908.57 234.435,908.57 C232.36,908.57 230.62,910.135 230.395,912.2 L218.47,1022.28 L113.345,1022.28 C115.47,765.215 115.47,738.655 114.74,595.99 L119.89,593.66 C120.875,596.105 121.855,598.55 123.03,601.07 C124.145,603.45 125.99,605.315 128.195,606.58 C134.905,618.85 151.89,645.05 181.56,661.125 L225,719.705 C226,728.325 227.62,735.115 229.885,740.19 C221.44,742.245 215.125,749.82 215.125,758.9 C215.125,769.545 223.79,778.2 234.435,778.2 C245.085,778.2 253.745,769.545 253.745,758.9 C253.745,755.655 252.87,752.66 251.455,749.975 C257.235,747.005 261.085,740.975 262.815,738.24 C265.815,733.495 268.715,728.79 271.55,724.195 C274.11,720.05 276.65,715.95 279.16,711.97 L279.16,722.66 C279.16,724.895 280.98,726.72 283.22,726.72 L337.42,726.72 C339.665,726.72 341.485,724.895 341.485,722.66 L341.485,664.16 C341.485,661.915 339.665,660.095 337.42,660.095 L325.035,660.095 C323.445,656.35 319.735,653.72 315.42,653.72 C308.24,653.72 301.735,656.07 295.61,660.095 L287.2,660.095 C315.73,643.955 332.12,618.595 338.67,606.575 C340.87,605.315 342.72,603.45 343.835,601.065 C345.125,598.295 346.23,595.59 347.3,592.905 L354.13,595.99 C353.405,738.64 353.405,765.21 355.525,1022.28 z M321.365,1252.485 C319.955,1258.79 311.495,1261.015 311.565,1261.015 C309.49,1261.345 307.32,1261.505 305.115,1261.505 C285.095,1261.505 262.95,1247.96 249.875,1234.535 C242.525,1226.99 239.305,1220.785 239.385,1217.99 C239.53,1212.22 240.77,1207.96 242.05,1205.05 C250.75,1217.855 265.665,1228.22 266.39,1228.725 C268.21,1229.975 270.685,1229.555 271.97,1227.775 C276.28,1221.895 282.675,1218.92 290.985,1218.92 C294.34,1218.92 297.075,1219.43 298.32,1219.72 C320.62,1238.11 322.345,1248.135 321.365,1252.485 z M164.685,1261.505 C162.48,1261.505 160.31,1261.345 158.565,1261.085 C158.475,1261.055 149.86,1258.85 148.435,1252.485 C147.455,1248.135 149.175,1238.11 171.475,1219.72 C172.725,1219.43 175.46,1218.92 178.815,1218.92 C187.125,1218.92 193.52,1221.895 197.825,1227.775 C199.12,1229.555 201.6,1229.975 203.41,1228.725 C204.135,1228.22 219.045,1217.855 227.745,1205.05 C229.03,1207.96 230.265,1212.22 230.415,1217.99 C230.495,1220.785 227.275,1226.985 219.925,1234.535 C206.85,1247.96 184.695,1261.505 164.685,1261.505 z M183.9,1171.32 C180.905,1136.49 179.455,1119.635 174.41,1085.39 L223.515,1085.39 L223.515,1196.225 C218.515,1206.145 207.17,1215.68 201.755,1219.845 C196.52,1214.405 190.315,1212.055 184.675,1211.185 C184.955,1210.95 185.25,1210.7 185.52,1210.48 C186.575,1209.63 187.135,1208.315 187.015,1206.965 C185.765,1193 184.765,1181.41 183.9,1171.32 z M284.28,1210.48 C284.555,1210.7 284.85,1210.95 285.13,1211.185 C279.49,1212.055 273.275,1214.405 268.04,1219.845 C262.63,1215.695 251.29,1206.165 246.28,1196.225 L246.28,1085.39 L295.365,1085.39 C290.385,1119.19 288.94,1135.995 285.9,1171.38 C285.035,1181.45 284.04,1193.03 282.79,1206.965 C282.67,1208.315 283.23,1209.63 284.28,1210.48 z M144.035,1077.265 C140.97,1061.24 138.485,1045.58 136.475,1030.405 L222.12,1030.405 C224.195,1030.405 225.935,1028.845 226.155,1026.78 L234.435,950.35 L242.715,1026.78 C242.94,1028.845 244.68,1030.405 246.755,1030.405 L328,1030.405 C326.135,1045.58 323.725,1061.24 320.68,1077.265 L144.035,1077.265 z M88.61,936.32 C88.15,936.99 87.715,937.365 87.315,937.435 C86.61,937.57 86.015,937.685 85.125,936.75 C82.31,933.82 81.35,924.67 81.565,919.1 C81.64,917.24 80.44,915.575 78.655,915.04 C76.87,914.525 74.955,915.28 74.015,916.875 C69.36,924.75 46.135,949.555 31.23,949.555 C28.515,949.555 24.58,948.8 21.735,942.315 C12.615,921.525 48.73,891.655 63.42,881.895 C64.42,881.24 65.08,880.16 65.21,878.96 L65.61,875.325 C71.895,877.595 79.91,879.405 90.065,879.925 L89.23,882.815 C89.05,883.45 89.02,884.105 89.145,884.745 C92.37,900.755 93.755,928.8 88.61,936.32 z M49.645,604.43 C33.85,589.945 18.035,554.24 32.39,513.865 C40.14,492.075 43.835,457.365 45.555,425.535 C51.84,429.12 59.42,431.49 68.37,432.24 C70.765,448.335 78.075,474.385 100.26,497.43 C108.075,505.555 117.1,512.555 127.225,518.52 C123.705,522.135 120.435,526.43 117.825,531.615 C110.215,546.715 110.065,564.99 117.085,586.01 L110.08,589.175 C109.685,589.135 109.345,589.065 108.845,589.065 C101.94,589.065 90.81,594.14 79.625,620.445 C60.42,589.365 62.445,551.53 62.485,550.975 C62.6,549.135 61.47,547.45 59.72,546.865 C57.97,546.26 56.06,546.935 55.045,548.475 C45.665,562.69 47.69,589.905 49.645,604.43 z M409.6,548.475 C408.585,546.935 406.665,546.26 404.92,546.865 C403.175,547.45 402.04,549.135 402.16,550.975 C402.19,551.51 404.06,586.135 387.42,616.35 C376.86,593.615 366.56,589.065 360.03,589.065 C359.525,589.065 359.19,589.135 358.795,589.175 L350.045,585.215 C356.79,564.535 356.55,546.525 349.04,531.615 C346.6,526.78 343.6,522.715 340.355,519.25 C351,513.135 360.46,505.89 368.605,497.43 C390.805,474.365 398.105,448.295 400.5,432.24 C407.6,431.645 413.805,430 419.205,427.54 C420.965,458.82 424.67,492.53 432.25,513.865 C446.61,554.24 430.805,589.935 415.005,604.43 C416.96,589.905 418.98,562.69 409.6,548.475 z M96.05,871.97 C67.88,871.97 56.185,861.675 53.295,858.55 C63.11,628.75 96.9,600.835 106.62,597.595 C107.17,704.6 107.3,746.26 106.405,871.53 C102.835,871.82 99.37,871.97 96.05,871.97 z M317.735,664.16 C317.735,665.43 316.695,666.47 315.42,666.47 C297.63,666.47 282.345,691.25 264.63,719.95 C261.815,724.51 258.93,729.175 255.94,733.92 C254.25,736.585 248.66,745.12 242.82,743.305 C239.44,742.265 232.205,735.425 231.925,697.115 C232.91,697.335 233.925,697.47 234.975,697.47 C235.55,697.47 236.1,697.365 236.66,697.3 C236.96,713.215 238.505,729.245 241.48,735.6 C242.045,736.82 243.18,737.67 244.5,737.885 C245.855,738.095 247.175,737.65 248.095,736.675 C249.31,735.405 250.635,733.64 252.04,731.43 C255.01,726.71 257.885,722.055 260.705,717.49 C279.135,687.63 295.055,661.845 315.42,661.845 C316.695,661.845 317.735,662.885 317.735,664.16 z M287.285,718.595 L287.285,699.575 C297.22,685.115 306.675,674.595 315.42,674.595 C319.735,674.595 323.445,671.97 325.035,668.22 L333.36,668.22 L333.36,718.595 L287.285,718.595 z M234.435,747.715 C234.62,747.715 234.79,747.76 234.97,747.765 C236.605,749.32 238.41,750.445 240.42,751.065 C241.205,751.305 242.005,751.465 242.815,751.575 C244.54,753.535 245.62,756.085 245.62,758.9 C245.62,765.06 240.6,770.075 234.435,770.075 C228.265,770.075 223.25,765.06 223.25,758.9 C223.25,752.725 228.265,747.715 234.435,747.715 z M138.175,607.67 C138.695,607.5 139.24,607.365 139.735,607.135 C140.67,606.695 141.495,606.135 142.26,605.515 C150.855,619.725 169.43,644.25 200.3,655.66 C199.7,657.08 199.375,658.615 199.19,660.2 C166.645,648.34 147.135,622.505 138.175,607.67 z M125.08,535.26 C127.665,530.13 131.045,525.97 134.665,522.595 C137.515,524.045 140.45,525.41 143.455,526.715 C139.49,529.835 135.655,533.955 132.935,539.415 C126.12,553.115 127.97,571.43 138.435,593.865 C139.47,596.085 138.51,598.74 136.29,599.78 C134.115,600.795 131.405,599.785 130.39,597.63 C118.665,572.52 116.88,551.545 125.08,535.26 z M75.335,417.055 L75.33,265.885 C188.17,251.785 223.955,191.99 234.435,165.11 C244.91,191.99 280.7,251.78 393.52,265.885 L393.525,417.2 C393.54,417.615 394.615,458.78 362.65,491.905 C335.19,520.355 292.05,534.78 234.435,534.78 C176.815,534.78 133.67,520.355 106.21,491.905 C74.245,458.78 75.315,417.615 75.335,417.055 z M327.04,574.82 L273.605,550.665 C272.49,550.17 271.2,550.2 270.11,550.74 C270.055,550.775 270.02,550.83 269.965,550.86 L265.49,546.38 C264.405,545.295 262.845,544.965 261.445,545.385 L261.165,541.76 C281.07,540.06 299.045,536.41 315.005,530.795 C319.29,533.44 323.83,537.365 326.65,543.04 C330.75,551.28 330.835,561.95 327.04,574.82 z M321.065,590.425 C320.03,592.635 319.725,595 320.01,597.265 C314.705,606.955 301.905,626.76 280.005,640.15 L277.74,636.3 L295.51,625.94 C296.83,625.17 297.605,623.72 297.515,622.19 L294.3,568.94 L324.42,582.55 C323.43,585.11 322.325,587.715 321.065,590.425 z M264.615,647.7 C262.125,646.24 259.26,645.345 256.165,645.345 L274.825,560.135 L285.94,565.16 L289.26,620.18 L270.12,631.345 C269.19,631.885 268.51,632.78 268.24,633.825 C267.965,634.87 268.12,635.99 268.665,636.91 L272.895,644.08 C270.25,645.405 267.485,646.605 264.615,647.7 z M145.8,590.425 C144.67,587.995 143.655,585.635 142.74,583.33 L173.59,569.385 L170.4,622.19 C170.31,623.72 171.085,625.17 172.405,625.94 L190.18,636.3 L187.64,640.61 C165.265,627.21 152.21,607.06 146.845,597.26 C147.125,594.99 146.83,592.635 145.8,590.425 z M140.21,543.04 C143.22,536.99 148.095,532.945 152.57,530.315 C169.095,536.28 187.8,540.135 208.625,541.845 L208.315,545.795 C206.73,544.845 204.7,545.05 203.375,546.38 L198.9,550.85 C198.845,550.825 198.82,550.775 198.765,550.74 C197.675,550.2 196.385,550.17 195.27,550.665 L140.04,575.635 C135.985,562.385 136.02,551.45 140.21,543.04 z M266.73,559.115 L260.105,589.385 C256.495,589.615 253.27,588.975 250.47,587.47 C243.29,583.605 240.145,574.865 239,570.615 L262.145,554.525 L266.73,559.115 z M206.725,554.525 L229.875,570.615 C228.75,574.855 225.64,583.545 218.435,587.45 C215.625,588.965 212.395,589.61 208.765,589.375 L202.145,559.115 L206.725,554.525 z M210.545,597.51 C214.795,597.465 218.735,596.525 222.305,594.59 C228.17,591.42 231.99,586.225 234.435,581.385 C236.88,586.225 240.705,591.42 246.565,594.59 C250.135,596.53 254.065,597.505 258.315,597.55 L247.85,645.345 L221.02,645.345 L210.545,597.51 z M253.695,550.5 L234.435,563.9 L216.055,551.115 L216.73,542.39 C222.49,542.705 228.365,542.905 234.435,542.905 C240.825,542.905 247.01,542.7 253.06,542.345 L253.695,550.5 z M199.685,633.825 C199.41,632.78 198.73,631.885 197.8,631.345 L178.655,620.18 L181.955,565.61 L194.05,560.135 L212.77,645.645 C210.095,646.14 207.67,647.285 205.595,648.89 C201.805,647.615 198.195,646.145 194.78,644.49 L199.25,636.915 C199.8,635.99 199.955,634.87 199.685,633.825 z M207.115,662.155 C207.115,657.365 211.015,653.47 215.81,653.47 L256.165,653.47 C260.96,653.47 264.865,657.365 264.865,662.155 C264.865,666.95 260.96,670.845 256.165,670.845 L244.915,670.845 C242.675,670.845 240.855,672.67 240.855,674.91 L240.855,683.47 C240.855,686.71 238.22,689.345 234.975,689.345 C231.73,689.345 229.09,686.71 229.09,683.47 L229.09,674.91 C229.09,672.67 227.27,670.845 225.03,670.845 L215.81,670.845 C211.015,670.845 207.115,666.95 207.115,662.155 z M244.785,697.32 L245.935,692.075 C247.815,689.69 248.98,686.73 248.98,683.47 L248.98,678.97 L256.165,678.97 C259.56,678.97 262.71,677.945 265.355,676.215 L245.005,704.175 C244.905,701.965 244.835,699.675 244.785,697.32 z M279.16,675.575 C270.62,685.97 262.455,699.175 253.77,713.255 C251.525,716.89 249.23,720.615 246.875,724.375 C246.515,722.17 246.185,719.59 245.895,716.765 L279.16,671.055 L279.16,675.575 z M272.505,658.315 C272.145,656.78 271.54,655.345 270.785,653.995 C299.14,642.005 316.405,619.065 324.6,605.515 C325.37,606.135 326.195,606.695 327.135,607.135 C327.64,607.375 328.175,607.51 328.7,607.68 C320.205,621.77 302.2,645.785 272.505,658.315 z M336.475,597.62 C335.465,599.78 332.71,600.775 330.565,599.78 C328.345,598.74 327.385,596.09 328.425,593.865 C338.89,571.435 340.74,553.115 333.925,539.415 C331.375,534.305 327.81,530.345 324.065,527.285 C327.08,526.03 330.01,524.675 332.86,523.26 C336.225,526.515 339.355,530.445 341.78,535.26 C349.98,551.545 348.195,572.52 336.475,597.62 z M200.61,669.24 C203.295,674.97 209.075,678.97 215.81,678.97 L220.065,678.97 L220.965,683.095 L220.965,683.47 C220.965,685.615 221.49,687.62 222.355,689.435 L223.78,695.94 C223.79,698.96 223.835,701.86 223.925,704.615 L196.745,667.965 C198.005,668.425 199.31,668.825 200.61,669.24 z M362.46,871.53 C361.575,746.255 361.7,704.59 362.25,597.595 C371.975,600.835 405.76,628.74 415.575,858.55 C412.645,861.71 400.94,871.97 372.825,871.97 C369.5,871.97 366.035,871.82 362.46,871.53 z M401.425,424.05 C401.715,420.005 401.66,417.43 401.645,417.055 L401.645,360.795 C402.935,360.74 404.255,360.81 405.575,361.03 C416.24,362.705 423.545,372.755 421.86,383.42 C421.515,385.635 423.025,387.715 425.24,388.07 C425.455,388.1 425.67,388.115 425.88,388.115 C427.84,388.115 429.57,386.69 429.885,384.69 C432.27,369.59 421.935,355.385 406.845,352.995 C405.095,352.72 403.355,352.635 401.645,352.69 L401.645,338.245 C404.87,337.175 408.3,336.565 411.88,336.565 C429.785,336.565 444.355,351.135 444.355,369.045 C444.355,387.06 435.165,420.155 401.425,424.05 z M431.58,333.57 C425.74,330.315 419.03,328.44 411.88,328.44 C408.34,328.44 404.92,328.95 401.64,329.8 L401.64,266.81 C404.44,267.095 407.23,267.385 410.115,267.615 C410.225,267.63 410.335,267.635 410.445,267.635 C412.54,267.635 414.32,266.02 414.49,263.89 C414.67,261.655 413,259.7 410.76,259.525 C256.145,247.22 238.605,151.615 238.44,150.645 C238.12,148.68 236.42,147.24 234.435,147.24 L234.425,147.24 C232.435,147.245 230.74,148.685 230.425,150.655 C230.27,151.615 213.135,247.19 58.11,259.525 C55.875,259.7 54.205,261.655 54.385,263.89 C54.56,266.125 56.565,267.85 58.755,267.615 C61.635,267.385 64.42,267.095 67.21,266.82 L67.21,329.795 C63.94,328.95 60.53,328.44 56.99,328.44 C49.82,328.44 43.085,330.325 37.23,333.605 C15.42,284.035 4.075,213.68 49.12,133.16 C101.83,38.955 167.625,19.175 213.545,19.175 C220.34,19.175 227.19,19.62 233.91,20.49 C234.265,20.54 234.605,20.54 234.955,20.49 C241.675,19.62 248.525,19.175 255.325,19.175 C301.235,19.175 367.025,38.955 419.735,133.16 C464.75,213.615 453.395,283.985 431.58,333.57 z M56.99,336.565 C60.565,336.565 63.995,337.17 67.21,338.24 L67.215,352.7 C65.51,352.635 63.775,352.72 62.025,352.995 C54.715,354.155 48.295,358.09 43.94,364.075 C39.59,370.055 37.825,377.375 38.985,384.69 C39.3,386.69 41.03,388.115 42.995,388.115 C43.205,388.115 43.42,388.1 43.635,388.07 C45.85,387.715 47.36,385.635 47.01,383.42 C46.19,378.255 47.435,373.08 50.515,368.845 C53.59,364.615 58.125,361.845 63.295,361.03 C64.615,360.81 65.925,360.74 67.215,360.795 L67.215,416.89 C67.2,417.305 67.145,419.945 67.44,424.05 C33.7,420.155 24.51,387.06 24.51,369.045 C24.51,351.135 39.08,336.565 56.99,336.565" fill="#000000"/>
    <path d="M295.365,1085.39 L246.28,1085.39 L246.28,1196.225 C251.29,1206.165 262.63,1215.695 268.04,1219.845 C273.275,1214.405 279.49,1212.055 285.13,1211.185 C284.85,1210.95 284.555,1210.7 284.28,1210.48 C283.23,1209.63 282.67,1208.315 282.79,1206.965 C284.04,1193.03 285.035,1181.45 285.9,1171.38 C288.94,1135.995 290.385,1119.19 295.365,1085.39" fill="#F6CBAD"/>
    <path d="M298.32,1219.72 C297.075,1219.43 294.34,1218.92 290.985,1218.92 C282.675,1218.92 276.28,1221.895 271.97,1227.775 C270.685,1229.555 268.21,1229.975 266.39,1228.725 C265.665,1228.22 250.75,1217.855 242.05,1205.05 C240.77,1207.96 239.53,1212.22 239.385,1217.99 C239.305,1220.785 242.525,1226.99 249.875,1234.535 C262.95,1247.96 285.095,1261.505 305.115,1261.505 C307.32,1261.505 309.49,1261.345 311.565,1261.015 C311.495,1261.015 319.955,1258.79 321.365,1252.485 C322.345,1248.135 320.62,1238.11 298.32,1219.72" fill="#1B1815"/>
    <path d="M184.675,1211.185 C190.315,1212.055 196.52,1214.405 201.755,1219.845 C207.17,1215.68 218.515,1206.145 223.515,1196.225 L223.515,1085.39 L174.41,1085.39 C179.455,1119.635 180.905,1136.49 183.9,1171.32 C184.765,1181.41 185.765,1193 187.015,1206.965 C187.135,1208.315 186.575,1209.63 185.52,1210.48 C185.25,1210.7 184.955,1210.95 184.675,1211.185" fill="#F6CBAD"/>
    <path d="M227.745,1205.05 C219.045,1217.855 204.135,1228.22 203.41,1228.725 C201.6,1229.975 199.12,1229.555 197.825,1227.775 C193.52,1221.895 187.125,1218.92 178.815,1218.92 C175.46,1218.92 172.725,1219.43 171.475,1219.72 C149.175,1238.11 147.455,1248.135 148.435,1252.485 C149.86,1258.85 158.475,1261.055 158.565,1261.085 C160.31,1261.345 162.48,1261.505 164.685,1261.505 C184.695,1261.505 206.85,1247.96 219.925,1234.535 C227.275,1226.985 230.495,1220.785 230.415,1217.99 C230.265,1212.22 229.03,1207.96 227.745,1205.05" fill="#1B1815"/>
    <path d="M315.005,530.795 C299.045,536.41 281.07,540.06 261.165,541.76 L261.445,545.385 C262.845,544.965 264.405,545.295 265.49,546.38 L269.965,550.86 C270.02,550.83 270.055,550.775 270.11,550.74 C271.2,550.2 272.49,550.17 273.605,550.665 L327.04,574.82 C330.835,561.95 330.75,551.28 326.65,543.04 C323.83,537.365 319.29,533.44 315.005,530.795" fill="#54473E"/>
    <path d="M432.25,513.865 C424.67,492.53 420.965,458.82 419.205,427.54 C413.805,430 407.6,431.645 400.5,432.24 C398.105,448.295 390.805,474.365 368.605,497.43 C360.46,505.89 351,513.135 340.355,519.25 C343.6,522.715 346.6,526.78 349.04,531.615 C356.55,546.525 356.79,564.535 350.045,585.215 L358.795,589.175 C359.19,589.135 359.525,589.065 360.03,589.065 C366.56,589.065 376.86,593.615 387.42,616.35 C404.06,586.135 402.19,551.51 402.16,550.975 C402.04,549.135 403.175,547.45 404.92,546.865 C406.665,546.26 408.585,546.935 409.6,548.475 C418.98,562.69 416.96,589.905 415.005,604.43 C430.805,589.935 446.61,554.24 432.25,513.865" fill="#54473E"/>
    <path d="M198.765,550.74 C198.82,550.775 198.845,550.825 198.9,550.85 L203.375,546.38 C204.7,545.05 206.73,544.845 208.315,545.795 L208.625,541.845 C187.8,540.135 169.095,536.28 152.57,530.315 C148.095,532.945 143.22,536.99 140.21,543.04 C136.02,551.45 135.985,562.385 140.04,575.635 L195.27,550.665 C196.385,550.17 197.675,550.2 198.765,550.74" fill="#54473E"/>
    <path d="M59.72,546.865 C61.47,547.45 62.6,549.135 62.485,550.975 C62.445,551.53 60.42,589.365 79.625,620.445 C90.81,594.14 101.94,589.065 108.845,589.065 C109.345,589.065 109.685,589.135 110.08,589.175 L117.085,586.01 C110.065,564.99 110.215,546.715 117.825,531.615 C120.435,526.43 123.705,522.135 127.225,518.52 C117.1,512.555 108.075,505.555 100.26,497.43 C78.075,474.385 70.765,448.335 68.37,432.24 C59.42,431.49 51.84,429.12 45.555,425.535 C43.835,457.365 40.14,492.075 32.39,513.865 C18.035,554.24 33.85,589.945 49.645,604.43 C47.69,589.905 45.665,562.69 55.045,548.475 C56.06,546.935 57.97,546.26 59.72,546.865" fill="#54473E"/>
    <path d="M234.435,542.905 C228.365,542.905 222.49,542.705 216.73,542.39 L216.055,551.115 L234.435,563.9 L253.695,550.5 L253.06,542.345 C247.01,542.7 240.825,542.905 234.435,542.905" fill="#F6CBAD"/>
    <path d="M247.85,645.345 L258.315,597.55 C254.065,597.505 250.135,596.53 246.565,594.59 C240.705,591.42 236.88,586.225 234.435,581.385 C231.99,586.225 228.17,591.42 222.305,594.59 C218.735,596.525 214.795,597.465 210.545,597.51 L221.02,645.345 L247.85,645.345" fill="#FFFFFF"/>
    <path d="M239,570.615 C240.145,574.865 243.29,583.605 250.47,587.47 C253.27,588.975 256.495,589.615 260.105,589.385 L266.73,559.115 L262.145,554.525 L239,570.615" fill="#FFFFFF"/>
    <path d="M208.765,589.375 C212.395,589.61 215.625,588.965 218.435,587.45 C225.64,583.545 228.75,574.855 229.875,570.615 L206.725,554.525 L202.145,559.115 L208.765,589.375" fill="#FFFFFF"/>
    <path d="M390.215,915.04 C390.595,914.93 390.98,914.875 391.365,914.875 C392.775,914.875 394.115,915.615 394.86,916.875 C399.505,924.76 422.73,949.555 437.64,949.555 C440.355,949.555 444.29,948.8 447.14,942.315 C456.255,921.525 420.135,891.655 405.45,881.895 C404.45,881.24 403.79,880.16 403.655,878.96 L403.255,875.325 C396.97,877.6 388.96,879.405 378.81,879.925 L379.645,882.815 C379.825,883.45 379.855,884.105 379.725,884.745 C376.505,900.755 375.115,928.8 380.265,936.32 C380.72,936.99 381.155,937.365 381.555,937.435 C382.265,937.57 382.85,937.68 383.745,936.75 C386.845,933.52 387.48,923.47 387.305,919.105 C387.225,917.245 388.425,915.575 390.215,915.04" fill="#F6CBAD"/>
    <path d="M90.065,879.925 C79.91,879.405 71.895,877.595 65.61,875.325 L65.21,878.96 C65.08,880.16 64.42,881.24 63.42,881.895 C48.73,891.655 12.615,921.525 21.735,942.315 C24.58,948.8 28.515,949.555 31.23,949.555 C46.135,949.555 69.36,924.75 74.015,916.875 C74.955,915.28 76.87,914.525 78.655,915.04 C80.44,915.575 81.64,917.24 81.565,919.1 C81.35,924.67 82.31,933.82 85.125,936.75 C86.015,937.685 86.61,937.57 87.315,937.435 C87.715,937.365 88.15,936.99 88.61,936.32 C93.755,928.8 92.37,900.755 89.145,884.745 C89.02,884.105 89.05,883.45 89.23,882.815 L90.065,879.925" fill="#F6CBAD"/>
    <path d="M320.68,1077.265 C323.725,1061.24 326.135,1045.58 328,1030.405 L246.755,1030.405 C244.68,1030.405 242.94,1028.845 242.715,1026.78 L234.435,950.35 L226.155,1026.78 C225.935,1028.845 224.195,1030.405 222.12,1030.405 L136.475,1030.405 C138.485,1045.58 140.97,1061.24 144.035,1077.265 L320.68,1077.265" fill="#363533"/>
    <path d="M372.825,871.97 C400.94,871.97 412.645,861.71 415.575,858.55 C405.76,628.74 371.975,600.835 362.25,597.595 C361.7,704.59 361.575,746.255 362.46,871.53 C366.035,871.82 369.5,871.97 372.825,871.97" fill="#FFFFFF"/>
    <path d="M106.405,871.53 C107.3,746.26 107.17,704.6 106.62,597.595 C96.9,600.835 63.11,628.75 53.295,858.55 C56.185,861.675 67.88,871.97 96.05,871.97 C99.37,871.97 102.835,871.82 106.405,871.53" fill="#FFFFFF"/>
    <path d="M294.3,568.94 L297.515,622.19 C297.605,623.72 296.83,625.17 295.51,625.94 L277.74,636.3 L280.005,640.15 C301.905,626.76 314.705,606.955 320.01,597.265 C319.725,595 320.03,592.635 321.065,590.425 C322.325,587.715 323.43,585.11 324.42,582.55 L294.3,568.94" fill="#FFFFFF"/>
    <path d="M256.165,678.97 L248.98,678.97 L248.98,683.47 C248.98,686.73 247.815,689.69 245.935,692.075 L244.785,697.32 C244.835,699.675 244.905,701.965 245.005,704.175 L265.355,676.215 C262.71,677.945 259.56,678.97 256.165,678.97" fill="#FFFFFF"/>
    <path d="M223.78,695.94 L222.355,689.435 C221.49,687.62 220.965,685.615 220.965,683.47 L220.965,683.095 L220.065,678.97 L215.81,678.97 C209.075,678.97 203.295,674.97 200.61,669.24 C199.31,668.825 198.005,668.425 196.745,667.965 L223.925,704.615 C223.835,701.86 223.79,698.96 223.78,695.94" fill="#FFFFFF"/>
    <path d="M268.665,636.91 C268.12,635.99 267.965,634.87 268.24,633.825 C268.51,632.78 269.19,631.885 270.12,631.345 L289.26,620.18 L285.94,565.16 L274.825,560.135 L256.165,645.345 C259.26,645.345 262.125,646.24 264.615,647.7 C267.485,646.605 270.25,645.405 272.895,644.08 L268.665,636.91" fill="#FFFFFF"/>
    <path d="M194.78,644.49 C198.195,646.145 201.805,647.615 205.595,648.89 C207.67,647.285 210.095,646.14 212.77,645.645 L194.05,560.135 L181.955,565.61 L178.655,620.18 L197.8,631.345 C198.73,631.885 199.41,632.78 199.685,633.825 C199.955,634.87 199.8,635.99 199.25,636.915 L194.78,644.49" fill="#FFFFFF"/>
    <path d="M187.64,640.61 L190.18,636.3 L172.405,625.94 C171.085,625.17 170.31,623.72 170.4,622.19 L173.59,569.385 L142.74,583.33 C143.655,585.635 144.67,587.995 145.8,590.425 C146.83,592.635 147.125,594.99 146.845,597.26 C152.21,607.06 165.265,627.21 187.64,640.61" fill="#FFFFFF"/>
    <path d="M245.895,716.765 C246.185,719.59 246.515,722.17 246.875,724.375 C249.23,720.615 251.525,716.89 253.77,713.255 C262.455,699.175 270.62,685.97 279.16,675.575 L279.16,671.055 L245.895,716.765" fill="#FFFFFF"/>
    <path d="M354.13,595.99 L347.3,592.905 C346.23,595.59 345.125,598.295 343.835,601.065 C342.72,603.45 340.87,605.315 338.67,606.575 C332.12,618.595 315.73,643.955 287.2,660.095 L295.61,660.095 C301.735,656.07 308.24,653.72 315.42,653.72 C319.735,653.72 323.445,656.35 325.035,660.095 L337.42,660.095 C339.665,660.095 341.485,661.915 341.485,664.16 L341.485,722.66 C341.485,724.895 339.665,726.72 337.42,726.72 L283.22,726.72 C280.98,726.72 279.16,724.895 279.16,722.66 L279.16,711.97 C276.65,715.95 274.11,720.05 271.55,724.195 C268.715,728.79 265.815,733.495 262.815,738.24 C261.085,740.975 257.235,747.005 251.455,749.975 C252.87,752.66 253.745,755.655 253.745,758.9 C253.745,769.545 245.085,778.2 234.435,778.2 C223.79,778.2 215.125,769.545 215.125,758.9 C215.125,749.82 221.44,742.245 229.885,740.19 C227.62,735.115 226,728.325 225,719.705 L181.56,661.125 C151.89,645.05 134.905,618.85 128.195,606.58 C125.99,605.315 124.145,603.45 123.03,601.07 C121.855,598.55 120.875,596.105 119.89,593.66 L114.74,595.99 C115.47,738.655 115.47,765.215 113.345,1022.28 L218.47,1022.28 L230.395,912.2 C230.62,910.135 232.36,908.57 234.435,908.57 C236.51,908.57 238.245,910.135 238.47,912.2 L250.4,1022.28 L355.525,1022.28 C353.405,765.21 353.405,738.64 354.13,595.99 z M254.21,813.35 C254.21,824.005 245.545,832.67 234.895,832.67 C224.255,832.67 215.59,824.005 215.59,813.35 C215.59,802.705 224.255,794.045 234.895,794.045 C245.545,794.045 254.21,802.705 254.21,813.35 z M234.895,893.155 C224.255,893.155 215.59,884.49 215.59,873.845 C215.59,863.2 224.255,854.545 234.895,854.545 C245.545,854.545 254.21,863.2 254.21,873.845 C254.21,884.49 245.545,893.155 234.895,893.155" fill="#FFFFFF"/>
    <path d="M234.895,802.17 C228.73,802.17 223.715,807.19 223.715,813.35 C223.715,819.525 228.73,824.545 234.895,824.545 C241.065,824.545 246.085,819.525 246.085,813.35 C246.085,807.19 241.065,802.17 234.895,802.17" fill="#7E8080"/>
    <path d="M234.895,794.045 C224.255,794.045 215.59,802.705 215.59,813.35 C215.59,824.005 224.255,832.67 234.895,832.67 C245.545,832.67 254.21,824.005 254.21,813.35 C254.21,802.705 245.545,794.045 234.895,794.045 z M234.895,824.545 C228.73,824.545 223.715,819.525 223.715,813.35 C223.715,807.19 228.73,802.17 234.895,802.17 C241.065,802.17 246.085,807.19 246.085,813.35 C246.085,819.525 241.065,824.545 234.895,824.545" fill="#000000"/>
    <path d="M234.895,862.67 C228.73,862.67 223.715,867.68 223.715,873.845 C223.715,880.01 228.73,885.03 234.895,885.03 C241.065,885.03 246.085,880.01 246.085,873.845 C246.085,867.68 241.065,862.67 234.895,862.67" fill="#7E8080"/>
    <path d="M254.21,873.845 C254.21,863.2 245.545,854.545 234.895,854.545 C224.255,854.545 215.59,863.2 215.59,873.845 C215.59,884.49 224.255,893.155 234.895,893.155 C245.545,893.155 254.21,884.49 254.21,873.845 z M234.895,885.03 C228.73,885.03 223.715,880.01 223.715,873.845 C223.715,867.68 228.73,862.67 234.895,862.67 C241.065,862.67 246.085,867.68 246.085,873.845 C246.085,880.01 241.065,885.03 234.895,885.03" fill="#000000"/>
    <path d="M223.25,758.9 C223.25,765.06 228.265,770.075 234.435,770.075 C240.6,770.075 245.62,765.06 245.62,758.9 C245.62,756.085 244.54,753.535 242.815,751.575 C242.005,751.465 241.205,751.305 240.42,751.065 C238.41,750.445 236.605,749.32 234.97,747.765 C234.79,747.76 234.62,747.715 234.435,747.715 C228.265,747.715 223.25,752.725 223.25,758.9" fill="#7E8080"/>
    <path d="M333.36,668.22 L325.035,668.22 C323.445,671.97 319.735,674.595 315.42,674.595 C306.675,674.595 297.22,685.115 287.285,699.575 L287.285,718.595 L333.36,718.595 L333.36,668.22" fill="#FFFFFF"/>
    <path d="M328.7,607.68 C328.175,607.51 327.64,607.375 327.135,607.135 C326.195,606.695 325.37,606.135 324.6,605.515 C316.405,619.065 299.14,642.005 270.785,653.995 C271.54,655.345 272.145,656.78 272.505,658.315 C302.2,645.785 320.205,621.77 328.7,607.68" fill="#7E8080"/>
    <path d="M341.78,535.26 C339.355,530.445 336.225,526.515 332.86,523.26 C330.01,524.675 327.08,526.03 324.065,527.285 C327.81,530.345 331.375,534.305 333.925,539.415 C340.74,553.115 338.89,571.435 328.425,593.865 C327.385,596.09 328.345,598.74 330.565,599.78 C332.71,600.775 335.465,599.78 336.475,597.62 C348.195,572.52 349.98,551.545 341.78,535.26" fill="#363533"/>
    <path d="M200.3,655.66 C169.43,644.25 150.855,619.725 142.26,605.515 C141.495,606.135 140.67,606.695 139.735,607.135 C139.24,607.365 138.695,607.5 138.175,607.67 C147.135,622.505 166.645,648.34 199.19,660.2 C199.375,658.615 199.7,657.08 200.3,655.66" fill="#7E8080"/>
    <path d="M136.29,599.78 C138.51,598.74 139.47,596.085 138.435,593.865 C127.97,571.43 126.12,553.115 132.935,539.415 C135.655,533.955 139.49,529.835 143.455,526.715 C140.45,525.41 137.515,524.045 134.665,522.595 C131.045,525.97 127.665,530.13 125.08,535.26 C116.88,551.545 118.665,572.52 130.39,597.63 C131.405,599.785 134.115,600.795 136.29,599.78" fill="#363533"/>
    <path d="M260.705,717.49 C257.885,722.055 255.01,726.71 252.04,731.43 C250.635,733.64 249.31,735.405 248.095,736.675 C247.175,737.65 245.855,738.095 244.5,737.885 C243.18,737.67 242.045,736.82 241.48,735.6 C238.505,729.245 236.96,713.215 236.66,697.3 C236.1,697.365 235.55,697.47 234.975,697.47 C233.925,697.47 232.91,697.335 231.925,697.115 C232.205,735.425 239.44,742.265 242.82,743.305 C248.66,745.12 254.25,736.585 255.94,733.92 C258.93,729.175 261.815,724.51 264.63,719.95 C282.345,691.25 297.63,666.47 315.42,666.47 C316.695,666.47 317.735,665.43 317.735,664.16 C317.735,662.885 316.695,661.845 315.42,661.845 C295.055,661.845 279.135,687.63 260.705,717.49" fill="#7E8080"/>
    <path d="M215.81,670.845 L225.03,670.845 C227.27,670.845 229.09,672.67 229.09,674.91 L229.09,683.47 C229.09,686.71 231.73,689.345 234.975,689.345 C238.22,689.345 240.855,686.71 240.855,683.47 L240.855,674.91 C240.855,672.67 242.675,670.845 244.915,670.845 L256.165,670.845 C260.96,670.845 264.865,666.95 264.865,662.155 C264.865,657.365 260.96,653.47 256.165,653.47 L215.81,653.47 C211.015,653.47 207.115,657.365 207.115,662.155 C207.115,666.95 211.015,670.845 215.81,670.845" fill="#363533"/>
    <path d="M255.325,19.175 C248.525,19.175 241.675,19.62 234.955,20.49 C234.605,20.54 234.265,20.54 233.91,20.49 C227.19,19.62 220.34,19.175 213.545,19.175 C167.625,19.175 101.83,38.955 49.12,133.16 C4.075,213.68 15.42,284.035 37.23,333.605 C43.085,330.325 49.82,328.44 56.99,328.44 C60.53,328.44 63.94,328.95 67.21,329.795 L67.21,266.82 C64.42,267.095 61.635,267.385 58.755,267.615 C56.565,267.85 54.56,266.125 54.385,263.89 C54.205,261.655 55.875,259.7 58.11,259.525 C213.135,247.19 230.27,151.615 230.425,150.655 C230.74,148.685 232.435,147.245 234.425,147.24 L234.435,147.24 C236.42,147.24 238.12,148.68 238.44,150.645 C238.605,151.615 256.145,247.22 410.76,259.525 C413,259.7 414.67,261.655 414.49,263.89 C414.32,266.02 412.54,267.635 410.445,267.635 C410.335,267.635 410.225,267.63 410.115,267.615 C407.23,267.385 404.44,267.095 401.64,266.81 L401.64,329.8 C404.92,328.95 408.34,328.44 411.88,328.44 C419.03,328.44 425.74,330.315 431.58,333.57 C453.395,283.985 464.75,213.615 419.735,133.16 C367.025,38.955 301.235,19.175 255.325,19.175 z M63.92,135.425 C69.715,115.66 81.31,102.85 89.825,106.825 C98.335,110.805 100.545,130.055 94.765,149.82 C88.97,169.595 77.375,182.405 68.865,178.43 C60.345,174.455 58.14,155.205 63.92,135.425 z M112.865,194.21 C100.225,188.305 94.14,169.375 99.245,151.915 C104.345,134.465 118.73,125.095 131.365,130.995 C144.015,136.885 151.945,155.375 188.775,193.715 C141.05,192.57 125.51,200.11 112.865,194.21" fill="#54473E"/>
    <path d="M411.88,336.565 C408.3,336.565 404.87,337.175 401.645,338.245 L401.645,352.69 C403.355,352.635 405.095,352.72 406.845,352.995 C421.935,355.385 432.27,369.59 429.885,384.69 C429.57,386.69 427.84,388.115 425.88,388.115 C425.67,388.115 425.455,388.1 425.24,388.07 C423.025,387.715 421.515,385.635 421.86,383.42 C423.545,372.755 416.24,362.705 405.575,361.03 C404.255,360.81 402.935,360.74 401.645,360.795 L401.645,417.055 C401.66,417.43 401.715,420.005 401.425,424.05 C435.165,420.155 444.355,387.06 444.355,369.045 C444.355,351.135 429.785,336.565 411.88,336.565" fill="#F6CBAD"/>
    <path d="M67.44,424.05 C67.145,419.945 67.2,417.305 67.215,416.89 L67.215,360.795 C65.925,360.74 64.615,360.81 63.295,361.03 C58.125,361.845 53.59,364.615 50.515,368.845 C47.435,373.08 46.19,378.255 47.01,383.42 C47.36,385.635 45.85,387.715 43.635,388.07 C43.42,388.1 43.205,388.115 42.995,388.115 C41.03,388.115 39.3,386.69 38.985,384.69 C37.825,377.375 39.59,370.055 43.94,364.075 C48.295,358.09 54.715,354.155 62.025,352.995 C63.775,352.72 65.51,352.635 67.215,352.7 L67.21,338.24 C63.995,337.17 60.565,336.565 56.99,336.565 C39.08,336.565 24.51,351.135 24.51,369.045 C24.51,387.06 33.7,420.155 67.44,424.05" fill="#F6CBAD"/>
    <path d="M234.435,534.78 C292.05,534.78 335.19,520.355 362.65,491.905 C394.615,458.78 393.54,417.615 393.525,417.2 L393.52,265.885 C280.7,251.78 244.91,191.99 234.435,165.11 C223.955,191.99 188.17,251.785 75.33,265.885 L75.335,417.055 C75.315,417.615 74.245,458.78 106.21,491.905 C133.67,520.355 176.815,534.78 234.435,534.78 z M281.97,352.8 C281.97,343.175 289.025,335.37 297.73,335.37 C306.425,335.37 313.49,343.175 313.49,352.8 C313.49,362.43 306.425,370.24 297.73,370.24 C289.025,370.24 281.97,362.43 281.97,352.8 z M171.145,335.37 C179.85,335.37 186.91,343.175 186.91,352.8 C186.91,362.43 179.85,370.24 171.145,370.24 C162.44,370.24 155.38,362.43 155.38,352.8 C155.38,343.175 162.44,335.37 171.145,335.37 z M234.435,494.19 C196.535,494.19 188.775,464.405 186.25,438.46 C186.135,437.32 186.515,436.185 187.285,435.335 C188.055,434.49 189.145,434.005 190.295,434.005 L278.57,434.005 C279.715,434.005 280.805,434.49 281.575,435.335 C282.35,436.185 282.725,437.32 282.615,438.455 C280.095,464.405 272.345,494.19 234.435,494.19 z M388.235,402.17 C388.235,418.305 367.965,431.38 342.965,431.38 C317.955,431.38 297.68,418.305 297.68,402.17 C297.68,386.045 317.955,372.97 342.965,372.97 C367.965,372.97 388.235,386.045 388.235,402.17 z M283.385,264.675 C286.135,261.925 306.56,249.385 330.73,260.095 C355.625,271.105 363.335,292.53 363.655,293.44 C364.39,295.555 363.27,297.87 361.155,298.615 C360.71,298.76 360.26,298.84 359.815,298.84 C358.14,298.84 356.575,297.795 355.98,296.12 C355.915,295.93 349,277.055 327.445,267.52 C307.935,258.885 290.99,268.66 289.115,270.425 C287.5,271.95 284.925,271.935 283.38,270.345 C281.83,268.74 281.81,266.24 283.385,264.675 z M105.22,293.44 C105.53,292.53 113.245,271.105 138.125,260.095 C162.33,249.385 182.735,261.925 185.485,264.675 C187.065,266.265 187.065,268.84 185.48,270.425 C183.885,272.01 181.325,272.005 179.73,270.42 C177.865,268.655 160.925,258.89 141.415,267.52 C119.72,277.12 112.955,295.925 112.885,296.115 C112.305,297.785 110.735,298.84 109.05,298.84 C108.61,298.84 108.16,298.76 107.715,298.605 C105.595,297.87 104.48,295.555 105.22,293.44 z M80.635,402.17 C80.635,386.045 100.91,372.97 125.91,372.97 C150.92,372.97 171.175,386.045 171.175,402.17 C171.175,418.305 150.92,431.38 125.91,431.38 C100.91,431.38 80.635,418.305 80.635,402.17" fill="#F6CBAD"/>
    <path d="M289.115,270.425 C290.99,268.66 307.935,258.885 327.445,267.52 C349,277.055 355.915,295.93 355.98,296.12 C356.575,297.795 358.14,298.84 359.815,298.84 C360.26,298.84 360.71,298.76 361.155,298.615 C363.27,297.87 364.39,295.555 363.655,293.44 C363.335,292.53 355.625,271.105 330.73,260.095 C306.56,249.385 286.135,261.925 283.385,264.675 C281.81,266.24 281.83,268.74 283.38,270.345 C284.925,271.935 287.5,271.95 289.115,270.425" fill="#000000"/>
    <path d="M107.715,298.605 C108.16,298.76 108.61,298.84 109.05,298.84 C110.735,298.84 112.305,297.785 112.885,296.115 C112.955,295.925 119.72,277.12 141.415,267.52 C160.925,258.89 177.865,268.655 179.73,270.42 C181.325,272.005 183.885,272.01 185.48,270.425 C187.065,268.84 187.065,266.265 185.485,264.675 C182.735,261.925 162.33,249.385 138.125,260.095 C113.245,271.105 105.53,292.53 105.22,293.44 C104.48,295.555 105.595,297.87 107.715,298.605" fill="#000000"/>
    <path d="M342.965,372.97 C317.955,372.97 297.68,386.045 297.68,402.17 C297.68,418.305 317.955,431.38 342.965,431.38 C367.965,431.38 388.235,418.305 388.235,402.17 C388.235,386.045 367.965,372.97 342.965,372.97" fill="#EC9EAC"/>
    <path d="M125.91,431.38 C150.92,431.38 171.175,418.305 171.175,402.17 C171.175,386.045 150.92,372.97 125.91,372.97 C100.91,372.97 80.635,386.045 80.635,402.17 C80.635,418.305 100.91,431.38 125.91,431.38" fill="#EC9EAC"/>
    <path d="M194.83,442.13 C198.74,473.26 210.415,486.065 234.435,486.065 C258.46,486.065 270.135,473.26 274.035,442.13 L194.83,442.13" fill="#FFFFFF"/>
    <path d="M278.57,434.005 L190.295,434.005 C189.145,434.005 188.055,434.49 187.285,435.335 C186.515,436.185 186.135,437.32 186.25,438.46 C188.775,464.405 196.535,494.19 234.435,494.19 C272.345,494.19 280.095,464.405 282.615,438.455 C282.725,437.32 282.35,436.185 281.575,435.335 C280.805,434.49 279.715,434.005 278.57,434.005 z M274.035,442.13 C270.135,473.26 258.46,486.065 234.435,486.065 C210.415,486.065 198.74,473.26 194.83,442.13 L274.035,442.13" fill="#000000"/>
    <path d="M94.765,149.82 C100.545,130.055 98.335,110.805 89.825,106.825 C81.31,102.85 69.715,115.66 63.92,135.425 C58.14,155.205 60.345,174.455 68.865,178.43 C77.375,182.405 88.97,169.595 94.765,149.82" fill="#927E72"/>
    <path d="M131.365,130.995 C118.73,125.095 104.345,134.465 99.245,151.915 C94.14,169.375 100.225,188.305 112.865,194.21 C125.51,200.11 141.05,192.57 188.775,193.715 C151.945,155.375 144.015,136.885 131.365,130.995" fill="#927E72"/>
    <path d="M313.49,352.8 C313.49,343.175 306.425,335.37 297.73,335.37 C289.025,335.37 281.97,343.175 281.97,352.8 C281.97,362.43 289.025,370.24 297.73,370.24 C306.425,370.24 313.49,362.43 313.49,352.8" fill="#000000"/>
    <path d="M171.145,370.24 C179.85,370.24 186.91,362.43 186.91,352.8 C186.91,343.175 179.85,335.37 171.145,335.37 C162.44,335.37 155.38,343.175 155.38,352.8 C155.38,362.43 162.44,370.24 171.145,370.24" fill="#000000"/>
  </g>
</svg>
