<?xml version="1.0" encoding="UTF-8"?>
<!DOCTYPE svg PUBLIC "-//W3C//DTD SVG 1.1//EN" "http://www.w3.org/Graphics/SVG/1.1/DTD/svg11.dtd">
<svg version="1.1" xmlns="http://www.w3.org/2000/svg" xmlns:xlink="http://www.w3.org/1999/xlink" x="0" y="0" width="470" height="614" viewBox="0, 0, 470, 614">
  <defs>
    <clipPath id="Clip_1">
      <path d="M0.06,0.773 L469.237,0.773 L469.237,614 L0.06,614 z"/>
    </clipPath>
    <radialGradient id="Gradient_1" gradientUnits="userSpaceOnUse" cx="356.515" cy="275.683" r="31.434" gradientTransform="matrix(1, 0, 0, 0.714, 0, 78.829)">
      <stop offset="0" stop-color="#EFA496"/>
      <stop offset="1" stop-color="#EFA496" stop-opacity="0"/>
    </radialGradient>
    <radialGradient id="Gradient_2" gradientUnits="userSpaceOnUse" cx="117.207" cy="299.277" r="31.452" gradientTransform="matrix(1, 0, 0, 0.714, 0, 85.736)">
      <stop offset="0" stop-color="#EFA496"/>
      <stop offset="1" stop-color="#EFA496" stop-opacity="0"/>
    </radialGradient>
  </defs>
  <g id="Layer_1">
    <path d="M241.065,405.64 C337.706,463.156 406.253,383.812 406.253,383.812 C378.737,385.132 371.487,359.773 371.487,359.773 C415.69,385.898 448.042,342.586 448.042,342.586 C420.682,345.429 412.385,324.781 412.385,324.781 C471.729,333.96 469.221,280.445 469.221,280.445 C437.526,300.656 443.034,261.007 429.151,211.078 L33.815,231.625 C25.19,282.726 34.776,321.593 1.159,304.789 C1.159,304.789 4.213,358.273 62.284,342.992 C62.284,342.992 56.167,364.382 28.666,364.382 C28.666,364.382 65.338,404.109 106.596,373.554 C106.596,373.554 102.01,399.531 74.502,401.062 C74.502,401.062 150.916,472.874 241.065,405.64" fill="#5C4842" id="path28132"/>
    <path d="M105.417,392.187 C103.174,391.734 99.01,391.132 97.237,391.718 C95.471,392.312 89.073,393.492 86.213,395.031 C83.385,396.57 80.893,398.586 77.565,401.421 C74.252,404.265 69.87,409.25 67.51,413.632 C65.135,418.023 63.471,427.14 65.479,433.296 C67.51,439.461 69.276,447.875 77.807,453.679 C86.338,459.476 91.44,461.609 97.479,463.273 C103.526,464.929 110.752,463.984 115.018,462.328 C119.284,460.664 124.377,457.109 129.823,453.086 C135.284,449.054 140.377,442.296 141.784,436.148 C143.213,429.984 144.276,420.39 142.151,414.336 C140.018,408.304 134.917,402.609 132.432,400.718 C129.94,398.828 126.854,396.109 123.776,394.687 C120.706,393.242 115.37,392.312 112.174,392.312 C108.979,392.312 107.776,392.671 105.417,392.187" fill="#B73E37" id="path28134"/>
    <path d="M96.291,400.242 C96.291,400.242 90.838,398.703 88.002,396.929 C85.151,395.14 83.112,394.609 80.174,394.343 C77.252,394.086 74.76,393.546 73.073,391.867 C71.393,390.179 69.159,388.211 68.542,387.242 C67.909,386.257 67.479,387.148 68.182,388.211 C68.901,389.281 71.479,392.398 72.799,393.367 C74.151,394.343 75.737,395.5 77.69,395.5 C79.651,395.5 82.229,396.304 84.627,397.804 C87.01,399.328 91.916,403.5 91.916,403.5 C91.916,403.5 87.104,404.929 84.541,405.273 C81.963,405.632 79.377,408.031 78.932,410.601 C78.502,413.187 78.409,413.804 78.315,414.695 C78.229,415.593 78.932,415.14 79.198,414.257 C79.471,413.359 80.26,410.703 81.166,409.453 C82.049,408.203 83.026,407.046 84.627,406.89 C86.213,406.703 88.885,405.992 90.838,405.906 C92.799,405.82 94.932,405.82 96.26,406.351 C97.596,406.89 100.432,408.57 101.768,409.289 C103.096,409.992 105.307,412.718 106.221,415.757 C106.479,416.656 106.924,417.007 106.924,416.109 C106.924,415.234 107.018,410.789 107.018,409.289 C107.018,407.765 108.526,406.429 110.479,406.429 C112.448,406.429 115.37,406.523 116.698,407.671 C118.034,408.836 120.885,413.187 121.495,416.031 C122.127,418.867 122.127,418.789 122.292,419.851 C122.471,420.914 123.01,420.109 123.01,419.132 C123.01,418.156 123.104,415.054 121.948,412.476 C120.799,409.898 118.557,405.726 115.995,404.742 C113.417,403.773 110.042,403.953 110.042,403.953 C110.042,403.953 113.143,400.117 115.276,398.437 C117.409,396.742 123.901,392.398 125.049,391.414 C126.206,390.437 128.698,389.109 130.917,388.656 C133.135,388.211 141.932,387.859 142.479,387.859 C143.002,387.859 141.932,387.242 140.956,387.242 C139.987,387.242 133.94,387.414 131.182,387.679 C128.44,387.961 125.229,389.546 121.417,391.507 C117.588,393.468 114.752,395.586 112.354,396.484 C109.94,397.367 108.62,398.265 107.643,399.5 C106.651,400.742 105.768,401.281 105.768,401.281 C105.768,401.281 103.026,394.968 101.963,393.632 C100.885,392.312 100.002,390.609 98.752,387.859 C98.752,387.859 99.909,381.648 101.151,379.859 C102.393,378.093 106.127,375.421 107.643,374.796 C109.143,374.171 107.807,374 106.924,374.257 C106.042,374.531 102.042,376.851 100.432,378.539 C98.838,380.226 97.69,382.625 97.596,384.656 C97.51,386.703 97.87,390.273 98.127,392.398 C98.393,394.531 97.299,398.757 96.291,400.242" fill="#54785B" id="path28136"/>
    <path d="M98.932,405.093 C98.932,405.093 99.729,406.171 100.971,406.617 C102.213,407.046 103.643,406.07 104.002,405.093 C104.002,405.093 103.284,402.789 102.831,401.82 C102.393,400.836 99.909,400.836 99.635,401.898 C99.385,402.968 98.932,405.093 98.932,405.093" fill="#46674E" id="path28138"/>
    <path d="M82.752,423.054 C82.752,418.75 86.252,415.265 90.549,415.265 C94.854,415.265 98.346,418.75 98.346,423.054 C98.346,427.367 94.854,430.859 90.549,430.859 C86.252,430.859 82.752,427.367 82.752,423.054" fill="#D5937C" id="path28140"/>
    <path d="M85.315,423.054 C85.315,420.171 87.674,417.828 90.549,417.828 C93.448,417.828 95.784,420.171 95.784,423.054 C95.784,425.937 93.448,428.296 90.549,428.296 C87.674,428.296 85.315,425.937 85.315,423.054" fill="#FFFFFE" id="path28142"/>
    <path d="M140.596,470.195 L104.549,524.265 L120.534,556.156 C135.104,553.257 146.088,540.711 158.62,525.828 C171.151,510.945 180.182,485.882 180.182,485.882 L140.596,470.195" fill="#F3B991" id="path28144"/>
    <path d="M154.495,423.281 C146.198,436.203 140.448,442.648 127.276,478.023 L189.174,507.812 L154.495,423.281" fill="#FFFFFE" id="path28146"/>
    <path d="M309.659,536.296 L332.831,478.343 C352.331,438.281 329.682,418.265 310.713,411.398 C291.737,404.562 255.909,395.304 255.909,395.304 L228.159,395.304 C228.159,395.304 192.487,405 173.354,411.398 C145.299,420.82 136.573,454.898 176.643,477.242 L174.401,536.296 L309.659,536.296" fill="#FFFFFE" id="path28148"/>
    <path d="M256.112,348.117 C256.112,348.117 258.065,377.359 258.065,384.187 C258.065,391.015 267.268,399.859 275.26,401.414 C275.26,401.414 281.831,448.054 242.034,448.054 C202.221,448.054 208.807,401.414 208.807,401.414 C216.792,399.859 226.002,391.015 226.002,384.187 C226.002,377.359 227.948,348.117 227.948,348.117 L256.112,348.117" fill="#F6C395" id="path28150"/>
    <path d="M343.448,470.195 L369.667,540.921 L332.698,544.109 L303.862,485.882 L343.448,470.195" fill="#F6C395" id="path28152"/>
    <path d="M329.557,423.281 C337.862,436.203 343.596,442.648 356.784,478.023 L294.87,507.812 L329.557,423.281" fill="#FFFFFE" id="path28154"/>
    <path d="M298.002,568.929 C298.002,568.929 310.534,556.39 318.377,535.242 C324.526,518.625 314.471,492.914 314.471,492.914 C324.651,485.867 323.088,481.156 318.377,467.054 C330.135,457.64 333.26,445.89 322.292,429.437 C341.096,419.242 331.698,395.734 331.698,395.734 C331.698,395.734 317.971,389.89 308.674,403.343 L289.377,395.734 C289.377,395.734 297.213,424.734 291.737,465.484 C291.737,465.484 266.752,469.398 242.034,469.398 C217.292,469.398 192.315,465.484 192.315,465.484 C186.823,424.734 194.667,395.734 194.667,395.734 L175.362,403.343 C166.088,389.89 152.354,395.734 152.354,395.734 C152.354,395.734 142.948,419.242 161.752,429.437 C150.776,445.89 153.924,457.64 165.667,467.054 C160.971,481.156 159.393,485.867 169.588,492.914 C169.588,492.914 159.518,518.625 165.667,535.242 C173.502,556.39 186.042,568.929 186.042,568.929 L172.901,614 L311.268,614 L298.002,568.929" fill="#EAE522" id="path28156"/>
    <path d="M376.026,535.046 L383.721,448.398 C423.174,441.609 415.26,419.195 410.456,405.75 C407.502,397.359 384.042,387.882 384.042,387.882 C384.042,387.882 392.026,366.218 395.956,351.914 C399.823,337.671 382.049,333.968 376.971,348.328 C371.979,362.64 364.995,392.398 364.995,392.398 C334.518,408.586 342.588,434.687 363.596,446.062 L332.37,529.586 C320.385,558.609 369.057,572.507 376.026,535.046" fill="#F9D8AE" id="path28158"/>
    <path d="M377.93,397.477 C377.854,397.621 376.942,399.307 376.015,401.895 C375.097,404.489 374.132,407.98 374.122,411.887 C374.123,414.016 374.421,416.288 375.273,418.538 C375.909,420.221 376.865,421.882 378.182,423.368 C380.155,425.607 382.901,427.394 386.303,428.558 C389.714,429.729 393.793,430.331 398.737,430.333 C400.471,430.333 402.313,430.258 404.273,430.104 C406.712,429.911 408.533,427.778 408.341,425.339 C408.148,422.899 406.015,421.078 403.576,421.27 C401.826,421.408 400.215,421.473 398.737,421.473 C394.988,421.474 392.101,421.056 389.957,420.425 C388.347,419.952 387.155,419.368 386.264,418.759 C384.932,417.834 384.219,416.884 383.714,415.775 C383.22,414.669 382.982,413.348 382.983,411.887 C382.972,409.516 383.643,406.86 384.36,404.876 C384.714,403.883 385.072,403.054 385.332,402.493 C385.462,402.213 385.567,401.999 385.635,401.864 L385.708,401.723 L385.72,401.7 L384.318,400.95 L385.715,401.709 L385.72,401.7 L384.318,400.95 L385.715,401.709 C386.884,399.56 386.088,396.87 383.939,395.701 C381.789,394.532 379.099,395.328 377.93,397.477" fill="#F3B991" id="path28160"/>
    <path d="M363.322,412.716 L362.329,411.667 L363.314,412.724 L363.322,412.716 L362.329,411.667 L363.314,412.724 C363.352,412.685 364.714,411.436 366.56,410.299 C367.48,409.729 368.516,409.189 369.518,408.82 C370.521,408.447 371.475,408.255 372.24,408.259 C372.841,408.261 373.322,408.358 373.789,408.562 C374.254,408.772 374.744,409.095 375.327,409.761 L375.321,409.754 C375.617,410.099 375.747,410.347 375.816,410.523 C375.884,410.701 375.902,410.817 375.904,410.979 C375.904,411.174 375.862,411.459 375.701,411.865 C375.43,412.571 374.753,413.588 373.802,414.595 C372.386,416.119 370.426,417.613 368.857,418.657 C368.072,419.182 367.383,419.601 366.904,419.882 C366.664,420.023 366.476,420.129 366.354,420.196 L366.223,420.269 L366.197,420.282 L366.195,420.284 L367.398,422.539 L366.2,420.281 L366.195,420.284 L367.398,422.539 L366.2,420.281 C364.581,421.139 363.663,422.887 363.875,424.707 C364.087,426.527 365.382,428.017 367.155,428.481 L367.844,425.848 L367.112,428.47 L367.155,428.481 L367.844,425.848 L367.112,428.47 L367.224,428.069 L367.109,428.469 L367.112,428.47 L367.224,428.069 L367.109,428.469 C367.12,428.471 367.578,428.606 368.213,428.91 C369.175,429.364 370.491,430.197 371.459,431.403 C371.949,432.01 372.369,432.706 372.682,433.563 C372.993,434.422 373.204,435.452 373.206,436.776 L373.205,436.911 C373.182,439.358 375.147,441.36 377.594,441.383 C380.041,441.406 382.043,439.441 382.065,436.994 L382.067,436.776 C382.073,433.561 381.3,430.732 380.088,428.46 C379.182,426.752 378.051,425.359 376.893,424.251 C375.151,422.587 373.359,421.545 371.976,420.888 C370.59,420.233 369.6,419.963 369.397,419.909 L368.276,424.195 L370.352,428.109 C370.5,428.025 373.7,426.339 377.1,423.582 C378.801,422.193 380.566,420.542 382.037,418.522 C382.77,417.51 383.432,416.398 383.932,415.145 C384.43,413.895 384.765,412.488 384.765,410.979 C384.767,409.768 384.542,408.503 384.072,407.304 C383.604,406.103 382.904,404.977 382.028,403.964 L382.021,403.956 C380.676,402.399 379.076,401.207 377.37,400.457 C375.665,399.702 373.892,399.395 372.24,399.398 C370.041,399.402 368.044,399.905 366.278,400.572 C363.631,401.582 361.457,402.978 359.876,404.125 C358.3,405.274 357.331,406.188 357.229,406.283 C355.453,407.965 355.377,410.769 357.059,412.546 C358.742,414.323 361.546,414.399 363.322,412.716" fill="#F3B991" id="path28162"/>
    <path d="M161.745,381.617 C159.502,381.171 155.346,380.562 153.573,381.156 C151.799,381.742 145.401,382.929 142.549,384.468 C139.713,386.007 137.229,388.023 133.901,390.859 C130.581,393.695 126.206,398.687 123.838,403.062 C121.463,407.461 119.799,416.578 121.815,422.734 C123.838,428.898 125.604,437.312 134.135,443.109 C142.667,448.914 147.768,451.046 153.815,452.711 C159.854,454.367 167.081,453.421 171.354,451.765 C175.612,450.093 180.706,446.539 186.151,442.523 C191.612,438.492 196.706,431.734 198.12,425.586 C199.549,419.421 200.604,409.82 198.479,403.773 C196.346,397.734 191.252,392.039 188.76,390.156 C186.276,388.265 183.182,385.539 180.104,384.117 C177.034,382.679 171.698,381.742 168.502,381.742 C165.315,381.742 164.112,382.101 161.745,381.617" fill="#B73E37" id="path28164"/>
    <path d="M152.627,389.679 C152.627,389.679 147.167,388.14 144.331,386.367 C141.479,384.578 139.448,384.046 136.51,383.781 C133.581,383.515 131.088,382.984 129.401,381.296 C127.721,379.617 125.487,377.648 124.877,376.679 C124.245,375.695 123.807,376.578 124.51,377.648 C125.229,378.718 127.807,381.836 129.127,382.804 C130.479,383.781 132.065,384.929 134.018,384.929 C135.979,384.929 138.557,385.742 140.956,387.242 C143.346,388.765 148.245,392.937 148.245,392.937 C148.245,392.937 143.432,394.359 140.877,394.711 C138.292,395.07 135.713,397.468 135.26,400.039 C134.831,402.625 134.737,403.242 134.643,404.132 C134.557,405.023 135.26,404.578 135.526,403.687 C135.799,402.796 136.596,400.132 137.495,398.89 C138.377,397.64 139.354,396.484 140.956,396.32 C142.549,396.132 145.213,395.429 147.167,395.336 C149.135,395.257 151.26,395.257 152.596,395.781 C153.924,396.32 156.768,398.007 158.096,398.718 C159.432,399.429 161.635,402.148 162.549,405.195 C162.807,406.093 163.26,406.437 163.26,405.546 C163.26,404.664 163.346,400.226 163.346,398.718 C163.346,397.203 164.862,395.867 166.815,395.867 C168.776,395.867 171.698,395.953 173.034,397.109 C174.362,398.273 177.213,402.625 177.831,405.461 C178.463,408.304 178.463,408.218 178.627,409.289 C178.807,410.351 179.338,409.546 179.338,408.57 C179.338,407.593 179.432,404.484 178.284,401.906 C177.127,399.328 174.885,395.156 172.331,394.171 C169.752,393.203 166.37,393.382 166.37,393.382 C166.37,393.382 169.479,389.554 171.604,387.867 C173.737,386.179 180.237,381.836 181.385,380.851 C182.542,379.875 185.026,378.539 187.245,378.093 C189.463,377.648 198.268,377.296 198.807,377.296 C199.331,377.296 198.268,376.679 197.292,376.679 C196.315,376.679 190.276,376.851 187.518,377.117 C184.776,377.398 181.565,378.976 177.745,380.937 C173.917,382.898 171.081,385.023 168.682,385.921 C166.268,386.804 164.948,387.703 163.971,388.937 C162.987,390.179 162.104,390.718 162.104,390.718 C162.104,390.718 159.354,384.406 158.299,383.07 C157.213,381.742 156.331,380.046 155.081,377.296 C155.081,377.296 156.237,371.086 157.479,369.289 C158.729,367.531 162.463,364.859 163.971,364.234 C165.471,363.609 164.143,363.437 163.26,363.695 C162.37,363.961 158.37,366.281 156.768,367.976 C155.174,369.656 154.018,372.054 153.924,374.093 C153.846,376.14 154.198,379.703 154.456,381.836 C154.721,383.968 153.627,388.195 152.627,389.679" fill="#54785B" id="path28166"/>
    <path d="M155.268,394.531 C155.268,394.531 156.057,395.609 157.307,396.054 C158.549,396.484 159.971,395.507 160.331,394.531 C160.331,394.531 159.612,392.218 159.159,391.257 C158.729,390.273 156.237,390.273 155.971,391.336 C155.713,392.398 155.268,394.531 155.268,394.531" fill="#46674E" id="path28168"/>
    <path d="M139.081,412.492 C139.081,408.187 142.581,404.703 146.885,404.703 C151.19,404.703 154.682,408.187 154.682,412.492 C154.682,416.796 151.19,420.289 146.885,420.289 C142.581,420.289 139.081,416.796 139.081,412.492" fill="#D5937C" id="path28170"/>
    <path d="M141.651,412.492 C141.651,409.609 144.002,407.265 146.885,407.265 C149.776,407.265 152.112,409.609 152.112,412.492 C152.112,415.375 149.776,417.726 146.885,417.726 C144.002,417.726 141.651,415.375 141.651,412.492" fill="#FFFFFE" id="path28172"/>
    <path d="M141.104,431.507 C138.87,431.062 134.706,430.453 132.932,431.046 C131.167,431.632 124.76,432.82 121.909,434.359 C119.073,435.898 116.588,437.914 113.26,440.75 C109.948,443.586 105.565,448.578 103.206,452.953 C100.831,457.351 99.166,466.461 101.174,472.625 C103.206,478.781 104.963,487.203 113.495,493 C122.034,498.804 127.127,500.937 133.174,502.601 C139.221,504.257 146.44,503.304 150.713,501.648 C154.979,499.984 160.073,496.429 165.51,492.414 C170.979,488.382 176.073,481.625 177.479,475.468 C178.909,469.312 179.971,459.711 177.846,453.664 C175.713,447.625 170.612,441.929 168.127,440.039 C165.635,438.156 162.549,435.429 159.471,434.007 C156.401,432.562 151.065,431.632 147.87,431.632 C144.674,431.632 143.471,431.992 141.104,431.507" fill="#B73E37" id="path28174"/>
    <path d="M131.987,439.57 C131.987,439.57 126.534,438.031 123.698,436.257 C120.846,434.461 118.807,433.937 115.87,433.664 C112.94,433.406 110.456,432.867 108.76,431.187 C107.081,429.5 104.846,427.531 104.237,426.57 C103.604,425.586 103.174,426.468 103.87,427.531 C104.596,428.609 107.174,431.726 108.487,432.687 C109.838,433.664 111.432,434.82 113.385,434.82 C115.346,434.82 117.924,435.625 120.323,437.132 C122.706,438.656 127.612,442.828 127.612,442.828 C127.612,442.828 122.799,444.25 120.237,444.601 C117.651,444.961 115.073,447.359 114.62,449.929 C114.19,452.515 114.096,453.132 114.01,454.015 C113.917,454.914 114.62,454.468 114.893,453.578 C115.167,452.687 115.956,450.023 116.854,448.781 C117.745,447.523 118.721,446.375 120.323,446.211 C121.909,446.023 124.581,445.312 126.534,445.226 C128.495,445.148 130.62,445.148 131.956,445.671 C133.292,446.211 136.127,447.89 137.456,448.609 C138.792,449.32 141.002,452.039 141.909,455.086 C142.174,455.976 142.62,456.328 142.62,455.429 C142.62,454.554 142.706,450.117 142.706,448.609 C142.706,447.086 144.221,445.757 146.174,445.757 C148.143,445.757 151.065,445.843 152.393,447 C153.729,448.164 156.581,452.515 157.19,455.351 C157.823,458.187 157.823,458.109 157.987,459.171 C158.167,460.242 158.706,459.437 158.706,458.461 C158.706,457.484 158.792,454.375 157.643,451.796 C156.487,449.218 154.252,445.046 151.69,444.062 C149.112,443.093 145.737,443.273 145.737,443.273 C145.737,443.273 148.838,439.445 150.971,437.757 C153.096,436.07 159.596,431.726 160.745,430.742 C161.901,429.765 164.393,428.429 166.612,427.984 C168.823,427.531 177.627,427.187 178.167,427.187 C178.69,427.187 177.627,426.57 176.651,426.57 C175.682,426.57 169.635,426.734 166.877,427.007 C164.135,427.281 160.924,428.867 157.104,430.828 C153.276,432.789 150.448,434.914 148.042,435.804 C145.635,436.695 144.315,437.586 143.338,438.828 C142.346,440.07 141.463,440.609 141.463,440.609 C141.463,440.609 138.713,434.296 137.659,432.961 C136.573,431.632 135.698,429.929 134.448,427.187 C134.448,427.187 135.596,420.968 136.846,419.179 C138.088,417.414 141.823,414.75 143.338,414.125 C144.838,413.492 143.502,413.328 142.62,413.586 C141.737,413.851 137.729,416.171 136.127,417.867 C134.534,419.546 133.377,421.945 133.292,423.976 C133.206,426.031 133.565,429.593 133.815,431.726 C134.088,433.851 132.987,438.078 131.987,439.57" fill="#54785B" id="path28176"/>
    <path d="M134.627,444.421 C134.627,444.421 135.424,445.492 136.667,445.945 C137.909,446.375 139.331,445.398 139.698,444.421 C139.698,444.421 138.979,442.109 138.526,441.14 C138.088,440.156 135.596,440.156 135.331,441.226 C135.073,442.289 134.627,444.421 134.627,444.421" fill="#46674E" id="path28178"/>
    <path d="M118.448,462.382 C118.448,458.078 121.94,454.593 126.245,454.593 C130.549,454.593 134.042,458.078 134.042,462.382 C134.042,466.687 130.549,470.179 126.245,470.179 C121.94,470.179 118.448,466.687 118.448,462.382" fill="#D5937C" id="path28180"/>
    <path d="M121.01,462.382 C121.01,459.5 123.362,457.148 126.245,457.148 C129.143,457.148 131.479,459.5 131.479,462.382 C131.479,465.265 129.143,467.617 126.245,467.617 C123.362,467.617 121.01,465.265 121.01,462.382" fill="#FFFFFE" id="path28182"/>
    <path d="M75.924,430.109 C73.682,429.664 69.518,429.054 67.745,429.648 C65.979,430.234 59.573,431.421 56.721,432.961 C53.893,434.5 51.401,436.515 48.073,439.351 C44.76,442.187 40.377,447.179 38.018,451.554 C35.643,455.953 33.979,465.07 35.987,471.226 C38.018,477.39 39.784,485.804 48.315,491.601 C56.846,497.406 61.948,499.539 67.987,501.203 C74.034,502.859 81.26,501.914 85.526,500.257 C89.791,498.586 94.885,495.031 100.331,491.015 C105.792,486.984 110.885,480.226 112.292,474.07 C113.721,467.914 114.784,458.312 112.659,452.265 C110.526,446.226 105.424,440.531 102.94,438.648 C100.448,436.757 97.362,434.031 94.284,432.609 C91.213,431.171 85.877,430.234 82.682,430.234 C79.487,430.234 78.284,430.593 75.924,430.109" fill="#B73E37" id="path28184"/>
    <path d="M66.799,438.171 C66.799,438.171 61.346,436.632 58.51,434.859 C55.659,433.07 53.62,432.539 50.682,432.273 C47.76,432.007 45.268,431.476 43.573,429.789 C41.901,428.109 39.667,426.14 39.049,425.171 C38.416,424.187 37.987,425.07 38.69,426.14 C39.409,427.211 41.987,430.328 43.307,431.296 C44.659,432.273 46.245,433.421 48.198,433.421 C50.159,433.421 52.737,434.234 55.135,435.734 C57.518,437.257 62.424,441.429 62.424,441.429 C62.424,441.429 57.612,442.851 55.049,443.203 C52.463,443.562 49.885,445.961 49.44,448.531 C49.01,451.117 48.916,451.734 48.823,452.625 C48.737,453.515 49.44,453.07 49.706,452.179 C49.979,451.289 50.768,448.625 51.667,447.382 C52.557,446.132 53.534,444.976 55.135,444.812 C56.721,444.625 59.393,443.921 61.346,443.828 C63.307,443.75 65.44,443.75 66.768,444.273 C68.104,444.812 70.94,446.5 72.276,447.211 C73.604,447.921 75.815,450.64 76.729,453.687 C76.987,454.586 77.432,454.929 77.432,454.039 C77.432,453.156 77.526,448.718 77.526,447.211 C77.526,445.695 79.034,444.359 80.987,444.359 C82.956,444.359 85.877,444.445 87.206,445.601 C88.541,446.765 91.393,451.117 92.002,453.953 C92.635,456.796 92.635,456.711 92.799,457.781 C92.979,458.843 93.518,458.039 93.518,457.062 C93.518,456.086 93.612,452.976 92.456,450.398 C91.299,447.82 89.065,443.648 86.502,442.664 C83.924,441.695 80.549,441.875 80.549,441.875 C80.549,441.875 83.651,438.046 85.784,436.359 C87.916,434.671 94.409,430.328 95.557,429.343 C96.713,428.367 99.206,427.031 101.424,426.586 C103.643,426.14 112.44,425.789 112.987,425.789 C113.51,425.789 112.44,425.171 111.463,425.171 C110.495,425.171 104.448,425.343 101.69,425.609 C98.948,425.882 95.737,427.468 91.924,429.429 C88.096,431.39 85.26,433.515 82.862,434.414 C80.448,435.296 79.127,436.195 78.151,437.429 C77.159,438.671 76.276,439.211 76.276,439.211 C76.276,439.211 73.534,432.898 72.471,431.562 C71.393,430.234 70.51,428.539 69.26,425.789 C69.26,425.789 70.417,419.578 71.659,417.781 C72.901,416.023 76.635,413.351 78.151,412.726 C79.651,412.101 78.315,411.929 77.432,412.187 C76.549,412.453 72.541,414.773 70.94,416.468 C69.346,418.148 68.198,420.546 68.104,422.586 C68.018,424.632 68.377,428.195 68.635,430.328 C68.901,432.461 67.807,436.687 66.799,438.171" fill="#54785B" id="path28186"/>
    <path d="M69.44,443.023 C69.44,443.023 70.237,444.101 71.479,444.546 C72.721,444.976 74.151,444 74.51,443.023 C74.51,443.023 73.792,440.711 73.338,439.75 C72.901,438.757 70.417,438.757 70.143,439.828 C69.893,440.89 69.44,443.023 69.44,443.023" fill="#46674E" id="path28188"/>
    <path d="M53.26,460.984 C53.26,456.679 56.752,453.195 61.057,453.195 C65.362,453.195 68.854,456.679 68.854,460.984 C68.854,465.289 65.362,468.781 61.057,468.781 C56.752,468.781 53.26,465.289 53.26,460.984" fill="#D5937C" id="path28190"/>
    <path d="M55.823,460.984 C55.823,458.101 58.182,455.757 61.057,455.757 C63.956,455.757 66.292,458.101 66.292,460.984 C66.292,463.867 63.956,466.218 61.057,466.218 C58.182,466.218 55.823,463.867 55.823,460.984" fill="#FFFFFE" id="path28192"/>
    <path d="M196.096,424.914 C193.87,424.461 189.698,423.843 187.932,424.437 C186.159,425.023 179.76,426.211 176.909,427.75 C174.081,429.289 171.588,431.296 168.26,434.148 C164.948,437 160.565,441.968 158.198,446.351 C155.831,450.742 154.167,459.875 156.174,466.015 C158.198,472.179 159.963,480.593 168.502,486.414 C177.026,492.203 182.127,494.328 188.167,495.992 C194.213,497.656 201.448,496.703 205.713,495.046 C209.971,493.39 215.073,489.836 220.518,485.804 C225.971,481.773 231.073,475.023 232.479,468.859 C233.901,462.703 234.963,453.101 232.838,447.054 C230.713,441.015 225.612,435.336 223.12,433.445 C220.627,431.539 217.542,428.812 214.471,427.39 C211.401,425.976 206.057,425.023 202.87,425.023 C199.674,425.023 198.471,425.382 196.096,424.914" fill="#B73E37" id="path28194"/>
    <path d="M186.987,432.961 C186.987,432.961 181.534,431.429 178.69,429.648 C175.846,427.875 173.807,427.343 170.87,427.07 C167.948,426.796 165.456,426.281 163.76,424.578 C162.081,422.898 159.846,420.945 159.229,419.961 C158.604,418.976 158.167,419.867 158.87,420.945 C159.596,422 162.167,425.117 163.487,426.093 C164.838,427.07 166.432,428.226 168.377,428.226 C170.346,428.226 172.924,429.023 175.323,430.539 C177.706,432.046 182.604,436.218 182.604,436.218 C182.604,436.218 177.792,437.632 175.229,438.007 C172.651,438.367 170.073,440.75 169.62,443.328 C169.182,445.906 169.096,446.531 169.01,447.421 C168.924,448.304 169.62,447.867 169.893,446.984 C170.159,446.086 170.956,443.414 171.854,442.164 C172.737,440.929 173.713,439.765 175.323,439.601 C176.909,439.429 179.581,438.711 181.534,438.617 C183.495,438.531 185.62,438.531 186.956,439.062 C188.292,439.601 191.127,441.289 192.456,442 C193.792,442.711 196.002,445.429 196.917,448.484 C197.167,449.375 197.62,449.718 197.62,448.843 C197.62,447.953 197.706,443.507 197.706,442 C197.706,440.5 199.221,439.156 201.174,439.156 C203.135,439.156 206.057,439.242 207.393,440.406 C208.729,441.554 211.573,445.906 212.19,448.75 C212.823,451.601 212.823,451.507 212.987,452.586 C213.167,453.64 213.706,452.836 213.706,451.851 C213.706,450.882 213.792,447.789 212.643,445.187 C211.487,442.632 209.252,438.461 206.69,437.461 C204.104,436.484 200.737,436.664 200.737,436.664 C200.737,436.664 203.838,432.836 205.971,431.148 C208.096,429.476 214.588,425.117 215.745,424.14 C216.901,423.148 219.393,421.82 221.604,421.39 C223.831,420.945 232.627,420.586 233.174,420.586 C233.698,420.586 232.627,419.961 231.651,419.961 C230.682,419.961 224.635,420.14 221.877,420.406 C219.135,420.664 215.924,422.265 212.096,424.218 C208.284,426.187 205.448,428.32 203.042,429.203 C200.627,430.086 199.315,430.984 198.338,432.226 C197.346,433.461 196.463,434.007 196.463,434.007 C196.463,434.007 193.713,427.679 192.651,426.367 C191.581,425.023 190.69,423.343 189.448,420.586 C189.448,420.586 190.596,414.367 191.846,412.593 C193.088,410.812 196.823,408.14 198.338,407.515 C199.838,406.906 198.502,406.726 197.62,406.984 C196.729,407.242 192.729,409.562 191.127,411.257 C189.534,412.937 188.377,415.336 188.292,417.39 C188.198,419.421 188.557,422.984 188.815,425.117 C189.088,427.25 187.995,431.476 186.987,432.961" fill="#54785B" id="path28196"/>
    <path d="M189.627,437.828 C189.627,437.828 190.424,438.89 191.659,439.336 C192.909,439.765 194.338,438.796 194.69,437.828 C194.69,437.828 193.979,435.507 193.526,434.539 C193.088,433.546 190.596,433.546 190.331,434.625 C190.073,435.703 189.627,437.828 189.627,437.828" fill="#46674E" id="path28198"/>
    <path d="M173.448,455.773 C173.448,451.468 176.94,447.984 181.245,447.984 C185.542,447.984 189.042,451.468 189.042,455.773 C189.042,460.086 185.542,463.562 181.245,463.562 C176.94,463.562 173.448,460.086 173.448,455.773" fill="#D5937C" id="path28200"/>
    <path d="M176.01,455.773 C176.01,452.89 178.37,450.546 181.245,450.546 C184.135,450.546 186.471,452.89 186.471,455.773 C186.471,458.664 184.135,461.023 181.245,461.023 C178.37,461.023 176.01,458.664 176.01,455.773" fill="#FFFFFE" id="path28202"/>
    <path d="M32.534,474.984 L32.534,498.796 C32.534,530.609 78.315,547.257 134.76,547.257 C191.245,547.257 237.01,530.609 237.01,498.796 L237.01,474.984 L32.534,474.984" fill="#FFFFFE" fill-opacity="0.531" id="path28204"/>
    <path d="M237.01,469.121 L32.534,469.121 C29.296,469.121 26.671,471.746 26.671,474.984 C26.671,478.222 29.296,480.847 32.534,480.847 L237.01,480.847 C240.248,480.847 242.873,478.222 242.873,474.984 C242.873,471.746 240.248,469.121 237.01,469.121" fill="#C5A773" id="path28206"/>
    <path d="M135.104,530.531 C135.776,537.859 134.338,557.468 134.338,557.468 C133.51,564.664 121.042,566.086 116.549,561.171 C110.573,568.453 98.596,565.586 95.135,557.921 C86.612,562.742 76.674,560.89 73.393,551.757 C59.846,555.961 53.135,542.882 56.807,536.539 C60.424,530.218 82.135,500.14 86.057,494.648 C90.002,489.203 101.502,492.718 100.768,499.218 C105.862,493.546 113.831,495.601 114.745,504.578 C118.721,502.281 125.627,502.601 124.565,512.039 C128.674,510.515 134.932,511.664 135.104,530.531" fill="#F9D8AE" id="path28208"/>
    <path d="M96.926,497.013 L72.785,539.075 C71.567,541.198 72.3,543.905 74.422,545.123 C76.544,546.341 79.252,545.608 80.47,543.486 L104.611,501.424 C105.829,499.301 105.096,496.594 102.973,495.376 C100.851,494.158 98.144,494.891 96.926,497.013" fill="#F3B991" id="path28210"/>
    <path d="M110.624,502.95 L93.773,545.598 C92.873,547.874 93.989,550.447 96.265,551.346 C98.541,552.246 101.114,551.13 102.013,548.854 L118.865,506.206 C119.764,503.93 118.648,501.356 116.373,500.457 C114.097,499.558 111.523,500.674 110.624,502.95" fill="#F3B991" id="path28212"/>
    <g clip-path="url(#Clip_1)" id="g28222">
      <path d="M120.689,514.499 L116.525,549.452 C116.236,551.882 117.971,554.086 120.4,554.375 C122.83,554.665 125.034,552.93 125.324,550.5 L129.488,515.547 C129.777,513.117 128.042,510.913 125.612,510.624 C123.183,510.334 120.979,512.069 120.689,514.499" fill="#F3B991" id="path28214"/>
      <path d="M22.628,192.296 C13.377,98.375 97.862,13.179 211.346,1.992 C324.831,-9.196 424.315,57.882 433.573,151.804 C442.83,245.718 358.37,330.914 244.87,342.109 C131.385,353.273 31.885,286.218 22.628,192.296" fill="#5C4842" id="path28216"/>
      <path d="M408.784,185.82 C419.221,164.976 449.557,169.453 459.495,194.593 C469.456,219.765 437.956,266.414 393.112,253.398 L408.784,185.82" fill="#F6C395" id="path28218"/>
      <path d="M48.409,221.328 C34.081,202.937 5.237,213.234 0.401,239.843 C-4.451,266.484 35.549,306.078 76.971,284.57 L48.409,221.328" fill="#F6C395" id="path28220"/>
    </g>
    <path d="M245.651,376.601 C353.721,365.945 436.901,312.562 425.135,193.054 C416.182,102.351 320.643,30.351 212.581,41 C104.526,51.64 24.862,140.921 33.815,231.625 C45.581,351.132 137.604,387.25 245.651,376.601" fill="#F9D8AE" id="path28224"/>
    <path d="M121.268,245.164 C119.924,231.461 128.167,219.414 139.729,218.265 C151.268,217.132 161.737,227.343 163.081,241.039 C164.44,254.757 156.174,266.812 144.635,267.937 C133.073,269.086 122.612,258.875 121.268,245.164" fill="#1A1919" id="path28226"/>
    <path d="M239.993,313.93 C238.229,314.102 236.282,314.198 234.222,314.198 C228.126,314.203 221.054,313.341 214.614,311.294 C211.393,310.274 208.33,308.962 205.602,307.357 C202.872,305.75 200.483,303.856 198.535,301.664 C196.49,299.364 192.968,299.157 190.667,301.202 C188.367,303.246 188.16,306.769 190.204,309.069 C193.042,312.261 196.375,314.859 199.95,316.963 C205.319,320.117 211.235,322.183 217.123,323.493 C223.015,324.798 228.886,325.342 234.222,325.344 C236.628,325.343 238.925,325.232 241.075,325.023 C244.138,324.724 246.379,321.999 246.08,318.935 C245.781,315.872 243.056,313.631 239.993,313.93" fill="#E77C56" id="path28228"/>
    <path d="M165.5,164.748 C158.678,159.913 151.283,157.674 144.207,157.68 C136.381,157.679 128.98,160.386 123.033,165.041 C117.083,169.695 112.564,176.313 110.468,184.14 C109.938,186.122 111.114,188.159 113.096,188.69 C115.078,189.221 117.115,188.044 117.646,186.062 C119.321,179.807 122.911,174.572 127.611,170.893 C132.314,167.216 138.102,165.111 144.207,165.11 C149.733,165.116 155.547,166.815 161.208,170.814 C162.883,171.999 165.202,171.602 166.387,169.927 C167.572,168.252 167.175,165.933 165.5,164.748" fill="#1A1919" id="path28230"/>
    <path d="M341.995,223.406 C340.651,209.703 330.174,199.5 318.643,200.64 C307.088,201.773 298.854,213.843 300.198,227.539 C301.542,241.242 311.995,251.445 323.549,250.32 C335.081,249.171 343.354,237.117 341.995,223.406" fill="#1A1919" id="path28232"/>
    <path d="M215.317,237.885 L215.302,237.939 C215.128,238.552 213.475,244.331 210.877,251.793 C208.286,259.248 204.723,268.414 200.874,275.631 L198.479,280.13 L202.878,282.703 C203.062,282.809 206.381,284.745 211.543,286.698 C216.708,288.641 223.716,290.64 231.424,290.651 C232.741,290.651 234.077,290.591 235.426,290.459 C238.342,290.173 240.475,287.577 240.189,284.661 C239.903,281.746 237.307,279.613 234.391,279.899 C233.409,279.996 232.418,280.041 231.424,280.041 C225.607,280.053 219.681,278.441 215.294,276.773 C213.1,275.944 211.288,275.111 210.049,274.498 C209.43,274.191 208.954,273.94 208.644,273.772 C208.489,273.688 208.376,273.625 208.307,273.586 L208.237,273.546 L205.557,278.125 L210.24,280.618 C212.457,276.452 214.498,271.908 216.335,267.412 C221.833,253.939 225.499,240.864 225.532,240.754 C226.324,237.934 224.68,235.005 221.859,234.212 C219.038,233.42 216.109,235.064 215.317,237.885" fill="#F3B991" id="path28234"/>
    <path d="M240.065,325.109 C243.797,324.745 247.903,324.005 252.156,322.857 C258.533,321.132 265.238,318.498 271.366,314.725 C274.428,312.836 277.346,310.658 279.983,308.144 C282.617,305.631 284.972,302.777 286.864,299.554 C288.421,296.9 287.532,293.485 284.877,291.927 C282.223,290.37 278.808,291.259 277.251,293.914 C275.52,296.865 273.114,299.541 270.206,301.917 C265.853,305.481 260.377,308.326 254.805,310.344 C249.24,312.368 243.576,313.573 238.987,314.015 C235.923,314.313 233.681,317.038 233.979,320.101 C234.277,323.165 237.002,325.407 240.065,325.109" fill="#E77C56" id="path28236"/>
    <path d="M31.995,211.711 C39.62,24.312 246.401,12.75 297.651,49.742 C297.651,49.742 288.073,122.679 199.276,141.984 C199.276,141.984 219.346,120.046 233.042,80.218 C233.042,80.218 203.245,138.703 136.635,147.39 C136.635,147.39 152.838,127.406 162.581,87.937 C162.581,87.937 101.549,187.804 31.995,211.711" fill="#6F5751" id="path28238"/>
    <path d="M297.651,49.742 C297.651,49.742 297.01,156.929 423.971,184.312 C428.877,96.836 352.182,44.086 297.651,49.742" fill="#6F5751" id="path28240"/>
    <path d="M288.277,158.305 C291.426,154.985 294.841,152.639 298.354,151.109 C301.867,149.58 305.484,148.866 309.051,148.865 C319.282,148.863 329.124,154.789 334.004,164.717 C334.91,166.558 337.137,167.317 338.978,166.412 C340.819,165.506 341.578,163.279 340.672,161.438 C334.55,148.992 322.151,141.436 309.051,141.435 C304.487,141.434 299.841,142.356 295.387,144.296 C290.933,146.234 286.679,149.188 282.884,153.194 C281.473,154.683 281.536,157.034 283.025,158.446 C284.514,159.857 286.865,159.795 288.277,158.305" fill="#1A1919" id="path28242"/>
    <path d="M354.341,298.129 C338.938,298.128 326.259,290.006 325.159,278.773 C323.94,266.507 337.01,255.171 354.331,253.453 C355.811,253.307 357.272,253.237 358.711,253.237 C374.136,253.237 386.769,261.36 387.87,272.593 C389.088,284.859 376.065,296.195 358.713,297.914 C357.236,298.059 355.778,298.129 354.341,298.129 z" fill="url(#Gradient_1)" id="path28244"/>
    <path d="M115.004,321.719 C99.596,321.719 86.945,313.586 85.831,302.359 C84.635,290.086 97.69,278.757 115.018,277.054 C116.51,276.906 117.985,276.835 119.436,276.835 C134.849,276.835 147.481,284.947 148.581,296.179 C149.799,308.445 136.76,319.796 119.409,321.5 C117.921,321.647 116.45,321.719 115.004,321.719 z" fill="url(#Gradient_2)" id="path28246"/>
  </g>
</svg>
