<?xml version="1.0" encoding="UTF-8"?>
<!DOCTYPE svg PUBLIC "-//W3C//DTD SVG 1.1//EN" "http://www.w3.org/Graphics/SVG/1.1/DTD/svg11.dtd">
<svg version="1.1" xmlns="http://www.w3.org/2000/svg" xmlns:xlink="http://www.w3.org/1999/xlink" x="0" y="0" width="256" height="406" viewBox="0, 0, 256, 406">
  <defs>
    <clipPath id="Clip_1">
      <path d="M255.742,-2.638 L255.742,403.18 L0.256,403.18 L0.256,-2.638 L255.742,-2.638 z"/>
    </clipPath>
  </defs>
  <g id="Layer_1">
    <g clip-path="url(#Clip_1)">
      <path d="M140.33,234.617 C140.33,234.617 139.412,234.844 138.102,235.168 L138.112,235.154 C114.247,230.859 101.516,228.486 88.716,226.641 C80.174,225.41 70.735,224.336 61.949,223.606 L86.888,204.825 C99.671,219.048 117.568,228.711 140.885,230.451 L140.491,234.617 z M202.629,419.451 L202.629,415.174 L206.436,414.941 C204.989,416.154 203.669,417.639 202.629,419.451 M198.351,426.758 L198.461,423.391 L200.352,423.391 C199.648,424.569 198.965,425.694 198.351,426.758 M234.695,128.039 C234.671,127.506 234.64,126.972 234.61,126.439 C235.561,115.345 240.899,46.291 227.418,35.261 C221.397,30.335 216.178,28.333 212.114,27.68 C207.828,22.967 198.373,14.048 183.159,7.261 L185.825,13.928 C185.825,13.928 174.698,5.392 161.493,5.261 C148.289,5.13 140.493,4.594 140.493,4.594 L142.825,11.261 C142.825,11.261 128.16,5.595 113.827,9.261 L116.493,14.261 C116.493,14.261 99.493,10.927 84.159,21.594 L85.827,26.594 C85.827,26.594 83.827,23.261 69.159,35.261 C54.493,47.261 62.101,127.949 62.101,127.949 L62.472,127.949 C62.471,127.979 62.469,128.009 62.467,128.039 C55.756,129.969 49.329,134.984 49.329,147.142 C49.329,158.74 55.152,165.427 67.037,167.985 C68.229,172.108 69.659,176.127 71.312,180.018 C56.668,187.355 32.701,200.325 16.095,214.185 C6.431,222.25 1.8,237.558 24.239,248.88 L29.277,250.67 C34.186,252.617 40.616,254.872 47.731,257.225 L47.742,257.229 C69.731,264.5 98.274,272.708 108.841,275.709 L109.576,278.075 L108.904,282.559 C104.401,282.785 101.214,283.103 101.221,283.484 L99.672,292.431 C99.692,293.735 100.595,294.776 101.687,294.758 L102.821,294.739 C102.821,294.766 102.821,294.791 102.821,294.82 L100.768,321.164 C100.808,323.502 101.32,325.668 102.159,327.478 L91.825,396.314 L94.532,408.392 L94.533,408.392 L94.533,423.391 L98.117,423.391 L102.468,555.563 C102.423,583.953 104.85,638.521 105.273,642.054 C106.172,649.558 111.037,653.896 111.037,653.896 C111.037,653.896 105.669,661.775 106.922,663.642 C107.292,664.194 110.069,664.418 113.787,664.462 C111.412,665.334 109.266,666.494 107.616,668.044 C100.975,674.281 105.07,676.28 105.07,676.28 L136.916,676.28 L136.916,663.642 C136.916,663.642 140.754,660.643 140.754,657.976 C140.754,656.084 139.107,651.771 138.147,649.416 L138.231,646.819 C139.676,644.856 142.676,640.385 142.422,637.338 C142.16,634.202 146.883,456.275 146.883,456.275 L148.289,454.719 L149.696,456.275 C149.696,456.275 154.42,634.202 154.157,637.338 C153.903,640.385 156.903,644.856 158.348,646.819 L158.432,649.416 C157.471,651.771 155.823,656.084 155.823,657.976 C155.823,660.643 159.66,663.642 159.66,663.642 L159.66,676.28 L191.508,676.28 C191.508,676.28 195.604,674.281 188.963,668.044 C187.313,666.494 185.167,665.334 182.791,664.462 C186.51,664.418 189.287,664.194 189.657,663.642 C190.909,661.775 185.543,653.896 185.543,653.896 C185.543,653.896 190.407,649.558 191.305,642.054 C191.729,638.521 194.159,583.953 194.114,555.563 L198.032,436.487 C198.229,436.584 198.438,436.678 198.666,436.766 C203.524,438.626 206.977,430.169 206.977,430.169 C206.977,430.169 208.053,467.589 218.149,462.808 C228.246,458.028 224.502,427.528 224.148,419.353 C224.048,417.051 223.635,415.286 223.1,413.918 L224.492,413.832 C224.492,413.832 201.129,247.878 197.575,245.95 C190.58,242.156 161.451,235.832 161.451,235.832 L161.176,235.832 L156.247,234.617 L156.086,234.617 L155.695,230.486 C196.264,227.696 220.571,201.043 230.124,167.985 C242.011,165.428 247.833,158.74 247.833,147.142 C247.833,134.983 241.406,129.969 234.695,128.039" fill="#797979"/>
      <path d="M140.33,234.617 C140.33,234.617 139.412,234.844 138.102,235.168 L138.112,235.154 C114.247,230.859 101.516,228.486 88.716,226.641 C80.174,225.41 70.735,224.336 61.949,223.606 L86.888,204.825 C99.671,219.048 117.568,228.711 140.885,230.451 L140.491,234.617 L140.33,234.617 z M202.629,419.451 L202.629,415.174 L206.436,414.941 C204.989,416.154 203.669,417.639 202.629,419.451 z M198.351,426.758 L198.461,423.391 L200.352,423.391 C199.648,424.569 198.965,425.694 198.351,426.758 z M234.695,128.039 C234.671,127.506 234.64,126.972 234.61,126.439 C235.561,115.345 240.899,46.291 227.418,35.261 C221.397,30.335 216.178,28.333 212.114,27.68 C207.828,22.967 198.373,14.048 183.159,7.261 L185.825,13.928 C185.825,13.928 174.698,5.392 161.493,5.261 C148.289,5.13 140.493,4.594 140.493,4.594 L142.825,11.261 C142.825,11.261 128.16,5.595 113.827,9.261 L116.493,14.261 C116.493,14.261 99.493,10.927 84.159,21.594 L85.827,26.594 C85.827,26.594 83.827,23.261 69.159,35.261 C54.493,47.261 62.101,127.949 62.101,127.949 L62.472,127.949 C62.471,127.979 62.469,128.009 62.467,128.039 C55.756,129.969 49.329,134.984 49.329,147.142 C49.329,158.74 55.152,165.427 67.037,167.985 C68.229,172.108 69.659,176.127 71.312,180.018 C56.668,187.355 32.701,200.325 16.095,214.185 C6.431,222.25 1.8,237.558 24.239,248.88 L29.277,250.67 C34.186,252.617 40.616,254.872 47.731,257.225 L47.742,257.229 C69.731,264.5 98.274,272.708 108.841,275.709 L109.576,278.075 L108.904,282.559 C104.401,282.785 101.214,283.103 101.221,283.484 L99.672,292.431 C99.692,293.735 100.595,294.776 101.687,294.758 L102.821,294.739 C102.821,294.766 102.821,294.791 102.821,294.82 L100.768,321.164 C100.808,323.502 101.32,325.668 102.159,327.478 L91.825,396.314 L94.532,408.392 L94.533,408.392 L94.533,423.391 L98.117,423.391 L102.468,555.563 C102.423,583.953 104.85,638.521 105.273,642.054 C106.172,649.558 111.037,653.896 111.037,653.896 C111.037,653.896 105.669,661.775 106.922,663.642 C107.292,664.194 110.069,664.418 113.787,664.462 C111.412,665.334 109.266,666.494 107.616,668.044 C100.975,674.281 105.07,676.28 105.07,676.28 L136.916,676.28 L136.916,663.642 C136.916,663.642 140.754,660.643 140.754,657.976 C140.754,656.084 139.107,651.771 138.147,649.416 L138.231,646.819 C139.676,644.856 142.676,640.385 142.422,637.338 C142.16,634.202 146.883,456.275 146.883,456.275 L148.289,454.719 L149.696,456.275 C149.696,456.275 154.42,634.202 154.157,637.338 C153.903,640.385 156.903,644.856 158.348,646.819 L158.432,649.416 C157.471,651.771 155.823,656.084 155.823,657.976 C155.823,660.643 159.66,663.642 159.66,663.642 L159.66,676.28 L191.508,676.28 C191.508,676.28 195.604,674.281 188.963,668.044 C187.313,666.494 185.167,665.334 182.791,664.462 C186.51,664.418 189.287,664.194 189.657,663.642 C190.909,661.775 185.543,653.896 185.543,653.896 C185.543,653.896 190.407,649.558 191.305,642.054 C191.729,638.521 194.159,583.953 194.114,555.563 L198.032,436.487 C198.229,436.584 198.438,436.678 198.666,436.766 C203.524,438.626 206.977,430.169 206.977,430.169 C206.977,430.169 208.053,467.589 218.149,462.808 C228.246,458.028 224.502,427.528 224.148,419.353 C224.048,417.051 223.635,415.286 223.1,413.918 L224.492,413.832 C224.492,413.832 201.129,247.878 197.575,245.95 C190.58,242.156 161.451,235.832 161.451,235.832 L161.176,235.832 L156.247,234.617 L156.086,234.617 L155.695,230.486 C196.264,227.696 220.571,201.043 230.124,167.985 C242.011,165.428 247.833,158.74 247.833,147.142 C247.833,134.983 241.406,129.969 234.695,128.039 z" fill-opacity="0" stroke="#797979" stroke-width="8" stroke-linecap="round" stroke-linejoin="round"/>
      <path d="M99.088,389.308 L97.996,419.712 L102.468,555.563 C102.423,583.953 104.85,638.521 105.273,642.054 C106.172,649.558 111.037,653.896 111.037,653.896 C111.037,653.896 105.669,661.775 106.922,663.642 C108.175,665.509 136.916,663.642 136.916,663.642 C136.916,663.642 140.754,660.643 140.754,657.976 C140.754,656.084 139.107,651.771 138.147,649.416 L138.231,646.819 C139.676,644.856 142.676,640.385 142.422,637.338 C142.16,634.202 146.883,456.275 146.883,456.275 L148.289,454.719 L148.289,389.684 z" fill="#CADCDE"/>
      <path d="M99.088,389.308 L97.996,419.712 L102.468,555.563 C102.423,583.953 104.85,638.521 105.273,642.054 C106.172,649.558 111.037,653.896 111.037,653.896 C111.037,653.896 105.669,661.775 106.922,663.642 C108.175,665.509 136.916,663.642 136.916,663.642 C136.916,663.642 140.754,660.643 140.754,657.976 C140.754,656.084 139.107,651.771 138.147,649.416 L138.231,646.819 C139.676,644.856 142.676,640.385 142.422,637.338 C142.16,634.202 146.883,456.275 146.883,456.275 L148.289,454.719 L148.289,389.684 L99.088,389.308 z" fill-opacity="0" stroke="#797979" stroke-width="4" stroke-linecap="round" stroke-linejoin="round"/>
      <path d="M197.491,389.308 L198.582,419.712 L194.114,555.563 C194.159,583.953 191.729,638.521 191.305,642.054 C190.407,649.558 185.543,653.896 185.543,653.896 C185.543,653.896 190.909,661.775 189.657,663.642 C188.405,665.509 159.66,663.642 159.66,663.642 C159.66,663.642 155.823,660.643 155.823,657.976 C155.823,656.084 157.471,651.771 158.432,649.416 L158.348,646.819 C156.903,644.856 153.903,640.385 154.157,637.338 C154.42,634.202 149.696,456.275 149.696,456.275 L148.289,454.719 L148.289,389.684 z" fill="#CADCDE"/>
      <path d="M197.491,389.308 L198.582,419.712 L194.114,555.563 C194.159,583.953 191.729,638.521 191.305,642.054 C190.407,649.558 185.543,653.896 185.543,653.896 C185.543,653.896 190.909,661.775 189.657,663.642 C188.405,665.509 159.66,663.642 159.66,663.642 C159.66,663.642 155.823,660.643 155.823,657.976 C155.823,656.084 157.471,651.771 158.432,649.416 L158.348,646.819 C156.903,644.856 153.903,640.385 154.157,637.338 C154.42,634.202 149.696,456.275 149.696,456.275 L148.289,454.719 L148.289,389.684 L197.491,389.308 z" fill-opacity="0" stroke="#797979" stroke-width="4" stroke-linecap="round" stroke-linejoin="round"/>
      <path d="M69.159,35.261 C83.827,23.261 85.827,26.594 85.827,26.594 L84.159,21.594 C99.493,10.927 116.493,14.261 116.493,14.261 L113.827,9.261 C128.16,5.595 142.825,11.261 142.825,11.261 L140.493,4.594 C140.493,4.594 148.289,5.13 161.493,5.261 C174.698,5.392 185.825,13.928 185.825,13.928 L183.159,7.261 C198.373,14.048 207.828,22.967 212.114,27.68 C216.178,28.333 221.397,30.335 227.418,35.261 C242.084,47.261 234.477,127.949 234.477,127.949 L148.289,127.949 L62.101,127.949 C62.101,127.949 54.493,47.261 69.159,35.261" fill="#AC9A6D"/>
      <path d="M69.159,35.261 C83.827,23.261 85.827,26.594 85.827,26.594 L84.159,21.594 C99.493,10.927 116.493,14.261 116.493,14.261 L113.827,9.261 C128.16,5.595 142.825,11.261 142.825,11.261 L140.493,4.594 C140.493,4.594 148.289,5.13 161.493,5.261 C174.698,5.392 185.825,13.928 185.825,13.928 L183.159,7.261 C198.373,14.048 207.828,22.967 212.114,27.68 C216.178,28.333 221.397,30.335 227.418,35.261 C242.084,47.261 234.477,127.949 234.477,127.949 L148.289,127.949 L62.101,127.949 C62.101,127.949 54.493,47.261 69.159,35.261 z" fill-opacity="0" stroke="#797979" stroke-width="4" stroke-linecap="round" stroke-linejoin="round"/>
      <path d="M197.575,245.95 C190.58,242.156 161.451,235.832 161.451,235.832 L135.711,235.832 C135.711,235.832 106.582,242.156 99.588,245.95 L112.526,287.558 L184.637,287.558 z" fill="#CADCDE"/>
      <path d="M197.575,245.95 C190.58,242.156 161.451,235.832 161.451,235.832 L135.711,235.832 C135.711,235.832 106.582,242.156 99.588,245.95 L112.526,287.558 L184.637,287.558 L197.575,245.95 z" fill-opacity="0" stroke="#797979" stroke-width="4" stroke-linecap="round" stroke-linejoin="round"/>
      <path d="M156.246,236.317 L154.778,220.8 L148.289,216.58 L141.798,220.8 L140.33,236.317 C140.33,236.317 138.582,247.742 148.289,247.742 C157.996,247.742 156.246,236.317 156.246,236.317" fill="#FFEFD9"/>
      <path d="M156.246,236.317 L154.778,220.8 L148.289,216.58 L141.798,220.8 L140.33,236.317 C140.33,236.317 138.582,247.742 148.289,247.742 C157.996,247.742 156.246,236.317 156.246,236.317 z" fill-opacity="0" stroke="#797979" stroke-width="4" stroke-linecap="round" stroke-linejoin="round"/>
      <path d="M161.451,235.832 C161.451,235.832 190.58,242.156 197.575,245.95 C201.129,247.878 224.492,413.832 224.492,413.832 L200.455,415.308 L184.148,285.393" fill="#CADCDE"/>
      <path d="M161.451,235.832 C161.451,235.832 190.58,242.156 197.575,245.95 C201.129,247.878 224.492,413.832 224.492,413.832 L200.455,415.308 L184.148,285.393" fill-opacity="0" stroke="#797979" stroke-width="4" stroke-linecap="round" stroke-linejoin="round"/>
      <path d="M138.112,235.154 C114.247,230.859 101.516,228.486 88.716,226.641 C68.826,223.775 44.059,221.752 34.05,222.975 C21.605,224.495 15.24,243.417 21.55,247.141 C34.966,255.058 113.015,276.888 113.015,276.888" fill="#CADCDE"/>
      <path d="M138.112,235.154 C114.247,230.859 101.516,228.486 88.716,226.641 C68.826,223.775 44.059,221.752 34.05,222.975 C21.605,224.495 15.24,243.417 21.55,247.141 C34.966,255.058 113.015,276.888 113.015,276.888" fill-opacity="0" stroke="#797979" stroke-width="4" stroke-linecap="round" stroke-linejoin="round"/>
      <path d="M110.18,274.053 L91.825,396.314 L94.532,408.392 L202.627,408.392 L205.334,396.314 L186.982,282.558" fill="#CADCDE"/>
      <path d="M110.18,274.053 L91.825,396.314 L94.532,408.392 L202.627,408.392 L205.334,396.314 L186.982,282.558" fill-opacity="0" stroke="#797979" stroke-width="4" stroke-linecap="round" stroke-linejoin="round"/>
      <path d="M140.33,234.617 C140.33,234.617 129.085,237.398 129.082,237.414 C129.048,237.609 132.89,254.475 148.26,254.475 C163.631,254.475 167.491,237.389 167.491,237.389 L156.247,234.617" fill="#FFEFD9"/>
      <path d="M140.33,234.617 C140.33,234.617 129.085,237.398 129.082,237.414 C129.048,237.609 132.89,254.475 148.26,254.475 C163.631,254.475 167.491,237.389 167.491,237.389 L156.247,234.617" fill-opacity="0" stroke="#797979" stroke-width="4" stroke-linecap="round" stroke-linejoin="round"/>
      <path d="M148.289,247.825 C141.564,247.825 137.182,246.918 134.323,245.683 L148.289,299.058 L162.256,245.683 C159.398,246.918 155.016,247.825 148.289,247.825" fill="#797979"/>
      <path d="M148.289,247.825 C141.564,247.825 137.182,246.918 134.323,245.683 L148.289,299.058 L162.256,245.683 C159.398,246.918 155.016,247.825 148.289,247.825 z" fill-opacity="0" stroke="#797979" stroke-width="4" stroke-linecap="round" stroke-linejoin="round"/>
      <path d="M151.789,408.558 L144.264,408.558 L144.264,281.766 L151.789,281.766 z" fill="#CADCDE"/>
      <path d="M151.789,408.558 L144.264,408.558 L144.264,281.766 L151.789,281.766 L151.789,408.558 z" fill-opacity="0" stroke="#797979" stroke-width="4" stroke-linecap="round" stroke-linejoin="round"/>
      <path d="M148.289,285.477 L131.573,236.929 L113.831,261.901 z" fill="#CADCDE"/>
      <path d="M148.289,285.477 L131.573,236.929 L113.831,261.901 L148.289,285.477 z" fill-opacity="0" stroke="#797979" stroke-width="4" stroke-linecap="round" stroke-linejoin="round"/>
      <path d="M148.289,285.477 L165.006,236.929 L182.746,261.901 z" fill="#CADCDE"/>
      <path d="M148.289,285.477 L165.006,236.929 L182.746,261.901 L148.289,285.477 z" fill-opacity="0" stroke="#797979" stroke-width="4" stroke-linecap="round" stroke-linejoin="round"/>
      <path d="M158.366,320.476 C158.258,326.893 161.707,332.157 166.073,332.23 L187.707,332.65 C192.073,332.724 195.7,327.579 195.809,321.164 L193.756,294.82 C193.866,288.406 192.891,284.436 188.526,284.362 L168.024,284.014 C163.659,283.941 158.899,289.01 158.789,295.425 z" fill="#CADCDE"/>
      <path d="M158.366,320.476 C158.258,326.893 161.707,332.157 166.073,332.23 L187.707,332.65 C192.073,332.724 195.7,327.579 195.809,321.164 L193.756,294.82 C193.866,288.406 192.891,284.436 188.526,284.362 L168.024,284.014 C163.659,283.941 158.899,289.01 158.789,295.425 L158.366,320.476 z" fill-opacity="0" stroke="#797979" stroke-width="4" stroke-linecap="round" stroke-linejoin="round"/>
      <path d="M177.729,295.059 L178.639,332.473" fill="#CADCDE"/>
      <path d="M177.729,295.059 L178.639,332.473" fill-opacity="0" stroke="#797979" stroke-width="4" stroke-linecap="round" stroke-linejoin="round"/>
      <path d="M157.313,291.739 C157.293,293.042 158.159,294.114 159.248,294.131 L194.891,294.758 C195.983,294.776 196.885,293.735 196.907,292.431 L195.357,283.484 C195.379,282.179 158.053,281.612 158.03,282.915 z" fill="#CADCDE"/>
      <path d="M157.313,291.739 C157.293,293.042 158.159,294.114 159.248,294.131 L194.891,294.758 C195.983,294.776 196.885,293.735 196.907,292.431 L195.357,283.484 C195.379,282.179 158.053,281.612 158.03,282.915 L157.313,291.739 z" fill-opacity="0" stroke="#797979" stroke-width="4" stroke-linecap="round" stroke-linejoin="round"/>
      <path d="M138.211,320.476 C138.319,326.893 134.869,332.157 130.504,332.23 L108.87,332.65 C104.505,332.724 100.878,327.579 100.768,321.164 L102.821,294.82 C102.712,288.406 103.686,284.436 108.052,284.362 L128.553,284.014 C132.918,283.941 137.678,289.01 137.787,295.425 z" fill="#CADCDE"/>
      <path d="M138.211,320.476 C138.319,326.893 134.869,332.157 130.504,332.23 L108.87,332.65 C104.505,332.724 100.878,327.579 100.768,321.164 L102.821,294.82 C102.712,288.406 103.686,284.436 108.052,284.362 L128.553,284.014 C132.918,283.941 137.678,289.01 137.787,295.425 L138.211,320.476 z" fill-opacity="0" stroke="#797979" stroke-width="4" stroke-linecap="round" stroke-linejoin="round"/>
      <path d="M118.848,295.059 L117.938,332.473" fill="#CADCDE"/>
      <path d="M118.848,295.059 L117.938,332.473" fill-opacity="0" stroke="#797979" stroke-width="4" stroke-linecap="round" stroke-linejoin="round"/>
      <path d="M139.264,291.739 C139.285,293.042 138.42,294.114 137.328,294.131 L101.687,294.758 C100.595,294.776 99.692,293.735 99.672,292.431 L101.221,283.484 C101.198,282.179 138.525,281.612 138.547,282.915 z" fill="#CADCDE"/>
      <path d="M139.264,291.739 C139.285,293.042 138.42,294.114 137.328,294.131 L101.687,294.758 C100.595,294.776 99.692,293.735 99.672,292.431 L101.221,283.484 C101.198,282.179 138.525,281.612 138.547,282.915 L139.264,291.739 z" fill-opacity="0" stroke="#797979" stroke-width="4" stroke-linecap="round" stroke-linejoin="round"/>
      <path d="M77.472,127.506 C77.472,127.506 49.329,121.699 49.329,147.142 C49.329,162.109 59.018,168.905 78.936,169.19" fill="#FFEFD9"/>
      <path d="M77.472,127.506 C77.472,127.506 49.329,121.699 49.329,147.142 C49.329,162.109 59.018,168.905 78.936,169.19" fill-opacity="0" stroke="#797979" stroke-width="4" stroke-linecap="round" stroke-linejoin="round"/>
      <path d="M60.054,148.519 C60.054,148.519 63.743,146.816 67.258,146.837" fill="#FFEFD9"/>
      <path d="M60.054,148.519 C60.054,148.519 63.743,146.816 67.258,146.837" fill-opacity="0" stroke="#797979" stroke-width="4" stroke-linecap="round" stroke-linejoin="round"/>
      <path d="M219.691,127.506 C219.691,127.506 247.833,121.699 247.833,147.142 C247.833,162.109 238.145,168.905 218.227,169.19" fill="#FFEFD9"/>
      <path d="M219.691,127.506 C219.691,127.506 247.833,121.699 247.833,147.142 C247.833,162.109 238.145,168.905 218.227,169.19" fill-opacity="0" stroke="#797979" stroke-width="4" stroke-linecap="round" stroke-linejoin="round"/>
      <path d="M237.11,148.519 C237.11,148.519 233.42,146.816 229.905,146.837" fill="#FFEFD9"/>
      <path d="M237.11,148.519 C237.11,148.519 233.42,146.816 229.905,146.837" fill-opacity="0" stroke="#797979" stroke-width="4" stroke-linecap="round" stroke-linejoin="round"/>
      <path d="M148.58,230.742 C27.821,230.742 39.505,29.292 148.58,29.292 C257.658,29.292 269.341,230.742 148.58,230.742" fill="#FFEFD9"/>
      <path d="M148.58,230.742 C27.821,230.742 39.505,29.292 148.58,29.292 C257.658,29.292 269.341,230.742 148.58,230.742 z" fill-opacity="0" stroke="#797979" stroke-width="4" stroke-linecap="round" stroke-linejoin="round"/>
      <path d="M77.572,52.959 L78.535,65.467 C90.028,55.724 102.37,51.45 102.37,51.45 L101.296,60.721 C107.887,51.753 128.534,46.091 128.534,46.091 L127.673,56.729 C140.071,48.77 157.545,48.109 157.545,48.109 L152.047,57.203 C160.256,53.457 184.516,48.549 184.516,48.549 L181.539,58.271 C208.223,58.005 216.645,56.196 216.645,56.196 C216.645,56.196 210.621,30.938 201.868,26.125 C193.114,21.313 159.012,16.132 146.364,15.449 C133.713,14.765 88.304,27.335 83.636,33.425 C78.966,39.515 77.572,52.959 77.572,52.959" fill="#AC9A6D"/>
      <path d="M216.645,56.196 C216.645,56.196 208.223,58.005 181.539,58.271 L184.516,48.549 C184.516,48.549 160.256,53.457 152.047,57.203 L157.545,48.109 C157.545,48.109 140.071,48.77 127.673,56.729 L128.534,46.091 C128.534,46.091 107.887,51.753 101.296,60.721 L102.37,51.45 C102.37,51.45 90.028,55.724 78.535,65.467 L77.572,52.959" fill-opacity="0" stroke="#797979" stroke-width="4" stroke-linecap="round" stroke-linejoin="round"/>
      <path d="M100.581,101.847 C100.581,101.847 111.581,97.019 123.081,89.683" fill-opacity="0" stroke="#797979" stroke-width="4" stroke-linecap="round" stroke-linejoin="round"/>
      <path d="M196.581,101.847 C196.581,101.847 185.581,97.019 174.081,89.683" fill-opacity="0" stroke="#797979" stroke-width="4" stroke-linecap="round" stroke-linejoin="round"/>
      <path d="M175.581,132.795 C175.581,132.795 176.559,139.961 182.821,142.128 C189.081,144.295 193.081,137.295 193.081,137.295" fill-opacity="0" stroke="#797979" stroke-width="4" stroke-linecap="round" stroke-linejoin="round"/>
      <path d="M121.581,132.795 C121.581,132.795 120.604,139.961 114.343,142.128 C108.081,144.295 104.081,137.295 104.081,137.295" fill-opacity="0" stroke="#797979" stroke-width="4" stroke-linecap="round" stroke-linejoin="round"/>
      <path d="M187.621,152.809 C187.621,152.809 197.682,170.921 195.109,181.368 C192.864,190.483 184.348,190.672 181.912,180.901 C180.694,176.01 182.121,168.987 183.854,163.187" fill="#B4E2EB"/>
      <path d="M187.621,152.809 C187.621,152.809 197.682,170.921 195.109,181.368 C192.864,190.483 184.348,190.672 181.912,180.901 C180.694,176.01 182.121,168.987 183.854,163.187" fill-opacity="0" stroke="#797979" stroke-width="4" stroke-linecap="round" stroke-linejoin="round"/>
      <path d="M144.662,170.225 C144.662,170.225 143.329,176.225 148.581,175.892" fill-opacity="0" stroke="#797979" stroke-width="4" stroke-linecap="round" stroke-linejoin="round"/>
      <path d="M147.996,191.179 C154.785,191.179 160.138,199.277 164.016,204.275" fill-opacity="0" stroke="#797979" stroke-width="4" stroke-linecap="round" stroke-linejoin="round"/>
      <path d="M148.581,191.179 C141.793,191.179 136.441,199.277 132.562,204.275" fill-opacity="0" stroke="#797979" stroke-width="4" stroke-linecap="round" stroke-linejoin="round"/>
      <path d="M138.091,168.486 C133.057,157.216 127.698,143.512 109.283,150.402 C97.718,154.727 94.216,169.019 93.282,174.513 L80.308,180.93 L84.774,197.455 L99.206,192.098 C102.79,197.023 110.241,205.058 118.089,200.224 C129.026,193.491 146.1,186.412 138.091,168.486" fill="#FFEFD9"/>
      <path d="M138.091,168.486 C133.057,157.216 127.698,143.512 109.283,150.402 C97.718,154.727 94.216,169.019 93.282,174.513 L80.308,180.93 L84.774,197.455 L99.206,192.098 C102.79,197.023 110.241,205.058 118.089,200.224 C129.026,193.491 146.1,186.412 138.091,168.486 z" fill-opacity="0" stroke="#797979" stroke-width="4" stroke-linecap="round" stroke-linejoin="round"/>
      <path d="M124.744,194.752 C124.744,194.752 116.412,193.729 115.413,178.794 L125.064,175.936" fill="#FFEFD9"/>
      <path d="M124.744,194.752 C124.744,194.752 116.412,193.729 115.413,178.794 L125.064,175.936" fill-opacity="0" stroke="#797979" stroke-width="4" stroke-linecap="round" stroke-linejoin="round"/>
      <path d="M53.05,230.308 L95.499,198.34 L84.256,173.805 C84.256,173.805 41.535,192.95 16.095,214.185 C6.431,222.25 1.8,237.558 24.239,248.88 L47.742,257.229" fill="#CADCDE"/>
      <path d="M53.05,230.308 L95.499,198.34 L84.256,173.805 C84.256,173.805 41.535,192.95 16.095,214.185 C6.431,222.25 1.8,237.558 24.239,248.88 L47.742,257.229" fill-opacity="0" stroke="#797979" stroke-width="4" stroke-linecap="round" stroke-linejoin="round"/>
    </g>
  </g>
</svg>
