<?xml version="1.0" encoding="UTF-8"?>
<!DOCTYPE svg PUBLIC "-//W3C//DTD SVG 1.1//EN" "http://www.w3.org/Graphics/SVG/1.1/DTD/svg11.dtd">
<svg version="1.1" xmlns="http://www.w3.org/2000/svg" xmlns:xlink="http://www.w3.org/1999/xlink" x="0" y="0" width="808" height="918" viewBox="0, 0, 808, 918">
  <defs>
    <clipPath id="Clip_1">
      <path d="M0.06,0.755 L807.788,0.755 L807.788,917.94 L0.06,917.94 z"/>
    </clipPath>
  </defs>
  <g id="Layer_1">
    <g clip-path="url(#Clip_1)">
      <path d="M379.445,909.966 C378.273,916.742 376.725,918.133 370.515,917.99 C365.632,917.878 363.989,916.072 363.177,909.939 C360.227,887.658 358.147,865.286 356.198,842.9 C356.085,841.604 356.265,840.23 355.21,838.867 C350.864,841.806 346.662,844.962 342.164,847.617 C334.486,852.151 326.261,854.93 317.173,855.228 C305.446,855.614 296.627,850.599 289.862,841.477 C282.777,831.924 279.327,820.822 276.841,809.392 C276.24,806.631 274.856,804.903 272.763,803.017 C250.583,783.032 229.174,762.292 215.243,735.35 C206.761,718.947 208.154,702.544 217.222,686.746 C218.971,683.699 219.038,681.251 217.879,677.997 C208.538,651.76 203.861,624.661 203.523,596.818 C203.44,589.907 203.865,589.209 209.449,585.255 C193.404,573.686 178.746,560.654 165.647,545.917 C138.122,514.951 118.766,479.812 111.9,438.565 C107.561,412.5 107.332,386.179 108.914,359.866 C112.547,299.474 127.489,241.934 155.443,188.298 C206.06,91.178 285.526,30.667 392.565,8.247 C461.027,-6.094 528.641,0.477 594.247,25.178 C606.112,29.645 617.275,35.582 627.003,43.916 C631.594,47.848 635.923,52.138 638.52,57.573 C640.76,62.26 644.119,64.619 648.766,66.667 C697.317,88.063 732.646,123.705 757.019,170.164 C779.955,213.882 795.411,260.373 802.735,309.254 C811.457,367.456 810.036,425.073 789.338,481.045 C773.846,522.941 749.18,558.166 712.931,584.809 C711.073,586.174 709.43,587.047 711.576,589.703 C713.448,592.02 712.796,595.14 712.74,597.941 C712.292,620.343 709.18,642.371 702.911,663.89 C702.078,666.747 702.863,667.946 704.837,669.68 C718.352,681.556 726.335,696.209 726.231,714.552 C726.179,723.747 722.879,732.106 718.535,740.082 C710.076,755.613 697.944,768.234 686.069,781.057 C679.395,788.263 672.961,795.713 665.141,801.761 C658.624,806.802 651.604,810.907 643.385,812.343 C640.422,812.861 639.355,814.336 638.695,817.064 C637.206,823.213 634.922,829.117 631.918,834.697 C621.746,853.59 605.963,859.677 585.711,852.499 C576.483,849.229 568.528,843.828 561.195,837.444 C559.709,836.151 558.256,834.821 556.264,833.039 C554.899,846.051 553.654,858.419 552.29,870.774 C550.865,883.677 549.429,896.581 547.794,909.46 C546.928,916.28 545.302,917.882 540.331,917.99 C534.217,918.124 532.839,916.897 531.302,909.95 C529.583,903.953 531.55,898.075 532.234,892.244 C534.172,875.718 535.705,859.151 537.611,842.624 C538.17,837.779 537.563,837.226 532.806,838.699 C514.433,844.387 495.635,848.155 476.485,849.228 C443.836,851.059 411.629,848.133 380.371,837.746 C378.231,837.034 376.171,835.758 373.382,836.2 C374.427,850.502 375.783,864.705 377.278,878.898 C378.22,887.833 379.153,896.767 380.241,905.686 C380.425,907.198 380.486,908.683 379.445,909.966" fill="#6E4100"/>
      <path d="M379.445,909.966 C375.765,884.636 373.804,859.132 371.388,833.251 C387.188,838.631 402.837,842.792 418.938,845.231 C458.215,851.18 496.829,848.401 534.711,836.482 C539.127,835.093 539.909,835.603 539.408,840.146 C536.841,863.431 534.923,886.789 531.302,909.951 C480.683,909.956 430.064,909.961 379.445,909.966" fill="#B9DEFE"/>
      <path d="M50.096,217.457 C45.415,217.049 41.944,215.465 40.889,210.132 C38.923,200.192 36.441,190.354 34.411,180.426 C33.832,177.594 32.606,176.19 29.797,175.471 C22.075,173.494 14.454,171.122 6.736,169.127 C2.137,167.939 0.036,165.014 0.001,160.513 C-0.036,155.893 1.786,152.649 6.72,151.406 C14.449,149.459 22.067,147.077 29.784,145.079 C32.545,144.365 33.829,142.995 34.412,140.149 C36.48,130.06 38.786,120.018 41.11,109.983 C42.214,105.217 45.414,102.903 50.568,103.125 C55.059,103.318 58.545,104.864 59.616,109.943 C61.74,120.021 64.215,130.026 66.288,140.114 C66.873,142.962 68.103,144.356 70.897,145.074 C78.618,147.057 86.234,149.45 93.964,151.39 C98.907,152.63 100.729,155.906 100.705,160.498 C100.682,164.976 98.582,167.938 93.974,169.13 C86.255,171.127 78.633,173.495 70.912,175.482 C68.121,176.2 66.882,177.568 66.295,180.423 C64.258,190.346 61.94,200.213 59.662,210.087 C58.495,215.143 55.283,217.548 50.096,217.457" fill="#FFCF00"/>
    </g>
    <path d="M205.498,433.102 C202.706,411.577 201.929,390.018 204.143,368.379 C204.428,365.592 205.334,364.058 207.957,362.832 C332.763,304.467 450.474,233.634 565.911,158.828 C568.864,156.915 570.951,156.887 573.93,158.448 C627.632,186.575 664.376,229.749 686.062,285.868 C700.058,322.089 708.702,359.557 708.077,398.71 C707.921,408.52 707.315,418.322 706.082,428.07 C702.96,429.033 702.606,426.225 701.608,424.594 C697.4,417.713 692.457,411.463 685.872,406.747 C666.677,392.999 641.449,394.273 623.069,409.714 C608.652,421.827 599.977,437.228 597.951,455.865 C596.283,471.212 601.765,484.696 613.093,494.904 C629.149,509.371 648.466,513.961 669.693,510.453 C673.805,509.773 677.626,508.031 681.311,506.035 C682.839,505.208 684.332,503.729 686.329,505.017 C673.617,536.321 654.092,562.586 628.018,584.043 C625.944,585.75 623.706,585.499 621.417,585.5 C587.777,585.512 554.138,585.507 520.498,585.509 C510.357,585.51 509.306,586.353 507.145,596.166 C501.383,622.319 477.545,641.308 450.832,641.024 C424.052,640.74 400.707,621.363 395.432,595.038 C393.807,586.929 392.102,585.518 383.667,585.514 C352.525,585.5 321.384,585.447 290.243,585.586 C286.342,585.604 283.326,584.652 280.348,582.087 C254.796,560.073 235.571,533.598 223.412,502.074 C225.039,501.374 226.277,502.371 227.605,503.019 C239.149,508.66 251.281,512.087 264.19,511.671 C275.337,511.312 285.479,508.015 293.425,499.615 C297.541,495.263 302.084,491.329 305.663,486.456 C314.991,473.759 318.711,459.909 314.052,444.521 C309.324,428.904 302.005,414.867 287.99,405.412 C271.215,394.094 247.569,394.659 231.112,406.587 C222.199,413.047 215.107,421.058 209.709,430.657 C208.976,431.96 208.773,435.606 205.498,433.102" fill="#FEF8EA"/>
    <path d="M341.367,40.114 C363.734,29.909 387.396,24.311 411.597,20.97 C435.696,17.644 459.914,16.665 484.267,17.881 C516.425,19.486 547.48,26.412 577.96,36.25 C591.136,40.503 603.807,46.015 614.799,54.763 C620.505,59.304 625.18,64.545 627.59,71.61 C628.794,75.141 631.577,77.148 635.03,78.479 C683.311,97.083 717.881,131.191 741.886,175.969 C765.648,220.294 780.761,267.829 787.933,317.659 C795.206,368.182 793.415,418.237 777.221,467.098 C761.927,513.244 735.574,551.284 694.292,578.092 C691.929,579.627 689.325,580.921 688.269,583.829 C687.816,585.076 686.91,585.701 685.614,585.702 C674.373,585.712 663.132,585.708 650.877,585.708 C658.139,577.793 664.925,571.023 670.832,563.448 C690.35,538.421 703.814,510.405 712.265,479.927 C713.269,476.306 714.578,474.931 718.567,474.934 C742.461,474.95 760.419,458.422 763.269,434.381 C764.714,422.188 764.67,410.099 760.868,398.328 C755.784,382.585 744.877,374.706 728.37,374.861 C724.628,374.896 723.557,374.087 723.063,370.094 C715.896,312.183 698.613,258.055 662.356,211.256 C642.309,185.38 617.883,164.529 589.29,148.59 C586.842,147.226 584.737,146.419 586.653,142.783 C588.309,139.639 586.764,136.465 584.051,134.4 C580.561,131.743 576.876,132.382 573.376,134.676 C561.678,142.343 550.04,150.102 538.278,157.67 C469.092,202.187 398.745,244.77 326.634,284.404 C281.254,309.347 235.277,333.103 187.997,354.281 C179.153,358.242 178.433,364.377 186.077,370.149 C187.209,371.004 187.506,371.845 187.394,373.067 C187.246,374.688 186.044,374.73 184.845,374.756 C181.353,374.832 177.849,374.662 174.411,375.537 C163.946,378.198 156.993,384.866 152.688,394.548 C151.882,396.361 151.192,398.226 150.449,400.066 C148.684,398.531 149.092,396.419 149.034,394.471 C147.089,329.105 160.172,266.668 185.687,206.661 C186.925,203.749 188.316,200.904 189.584,198.002 C191.773,192.993 193.295,192.312 198.566,193.944 C207.815,196.809 217.161,199.38 226.815,200.227 C244.262,201.758 261.493,201.5 277.26,192.161 C280.564,190.205 283.65,188.037 287.176,184.931 C281.419,185.293 276.634,186.523 271.69,186.472 C247.03,186.216 230.468,173.573 219.157,152.642 C217.381,149.355 218.278,146.64 220.222,143.842 C226.983,134.112 234.436,124.922 242.196,115.996 C262.106,93.092 285.064,73.67 310.459,57.121 C318.687,51.759 327.081,46.635 336.169,42.796 C337.837,41.781 339.706,41.15 341.367,40.114" fill="#DBA76F"/>
    <path d="M251.054,601.96 C252.714,601.884 254.373,601.742 256.033,601.741 C295.67,601.729 335.307,601.785 374.944,601.647 C378.81,601.634 380.772,602.488 382.088,606.474 C392.247,637.253 420.058,657.256 451.9,657.022 C483.503,656.791 511.238,636.474 520.998,606.048 C522.184,602.35 523.955,601.664 527.376,601.671 C571.176,601.763 614.977,601.735 658.777,601.723 C660.938,601.722 663.099,601.587 665.26,601.515 C665.722,601.882 666.05,602.344 666.25,602.897 C667.321,611.281 665.399,619.449 664.208,627.632 C662.89,636.687 660.533,645.547 657.956,654.335 C657.286,656.619 656.53,658.771 654.406,660.127 C653.381,663.498 650.135,665.428 648.965,668.798 C647.691,672.468 647.257,676.18 647.16,679.992 C645.887,685.221 643.432,689.884 640.337,694.241 C632.735,698.809 627.886,705.192 627.116,714.27 C624.371,721.86 618.64,727.372 613.431,733.099 C585.638,763.659 551.888,784.685 511.885,795.352 C488.217,801.664 464.201,803.663 439.718,801.542 C407.599,798.758 377.974,788.74 350.348,772.428 C342.747,767.941 335.593,762.77 328.611,757.368 C327.013,756.132 325.62,754.729 324.639,752.948 C324.531,748.06 323.629,743.341 321.19,739.061 C317.655,732.858 311.789,730.49 304.809,729.84 C307.173,724.381 309.479,719.132 308.772,713.324 C307.488,702.773 300.188,694.521 289.641,692.249 C286.221,691.513 286.265,690.549 287.158,687.718 C289.703,679.641 289.886,671.647 284.396,664.505 C280.512,659.453 275.291,656.878 268.858,656.897 C266.03,656.906 263.202,656.891 260.374,656.887 C259.137,655.95 258.37,654.714 257.928,653.23 C253.548,638.53 250.485,623.593 249.909,608.22 C249.829,606.077 249.722,603.871 251.054,601.96" fill="#FF7164"/>
    <path d="M337.268,42.998 C306.262,59.402 278.409,80.041 253.989,105.241 C241.919,117.696 230.943,131.069 220.885,145.213 C219.056,147.785 219.138,149.717 220.501,152.39 C233.41,177.709 256.886,189.206 284.85,183.727 C286.444,183.415 287.99,182.813 290.356,183.317 C282.318,192.305 272.523,197.309 261.575,199.973 C240.531,205.096 219.936,202.075 199.647,195.647 C193.034,193.552 193.122,193.509 190.28,199.734 C171.629,240.592 159.648,283.369 153.629,327.823 C150.384,351.792 149.542,375.899 150.449,400.067 C147.606,413.521 147.082,426.971 150.172,440.488 C151.714,447.233 154.942,453.147 158.466,458.963 C162.975,466.803 164.715,475.734 168.378,483.933 C178.026,505.529 190.754,525.028 206.297,542.847 C218.951,557.354 233.165,570.009 248.768,581.188 C249.97,582.05 251.75,583.002 251.31,584.559 C250.787,586.416 248.727,585.467 247.386,585.459 C244.425,585.443 241.427,585.961 238.498,585.101 C237.454,583.531 235.926,582.606 234.333,581.646 C184.727,551.749 149.127,510.453 131.946,454.533 C124.329,429.741 123.771,404.013 124.259,378.356 C125.623,306.623 143.714,239.238 179.711,177.2 C215.901,114.832 268.761,70.913 334.621,42.263 C335.068,42.069 335.593,42.053 336.082,41.954 C337.2,41.481 337.405,42.046 337.268,42.998" fill="#FEFEFE"/>
    <path d="M205.498,433.102 C207.289,434.08 207.169,432.5 207.694,431.564 C214.635,419.188 223.421,408.578 236.363,402.031 C262.703,388.707 292.317,397.823 306.611,423.727 C312.098,433.671 316.778,443.977 317.285,455.565 C317.901,469.661 312.197,481.469 303.064,491.714 C298.869,496.42 294.473,501.166 289.397,504.823 C277,513.754 262.942,514.653 248.421,511.547 C239.616,509.663 231.096,506.952 223.412,502.074 C215.392,484.098 210.765,465.149 207.351,445.86 C206.602,441.63 206.109,437.356 205.498,433.102" fill="#FFD5BA"/>
    <path d="M686.329,505.017 C680.041,507.917 674.076,511.521 666.933,512.327 C648.16,514.447 630.884,510.582 615.863,499.005 C602.376,488.61 595.634,474.436 596.464,457.416 C597.135,443.651 602.466,431.14 610.881,420.351 C620.284,408.298 632.06,399.332 647.716,396.769 C667.908,393.463 684.178,400.247 697.21,415.777 C700.486,419.68 701.936,424.84 706.082,428.069 C703.273,454.025 697.283,479.187 687.303,503.352 C687.06,503.941 686.657,504.464 686.329,505.017" fill="#FFD5BA"/>
    <path d="M612.235,745.116 C610.435,752.441 611.138,759.331 615.905,765.452 C617.183,767.094 616.814,767.868 614.964,768.639 C606.871,772.01 599.779,776.377 598.125,786.051 C597.852,787.648 596.128,788.199 594.926,789.041 C565.139,809.902 532.347,823.431 496.399,829.086 C444.812,837.201 395.68,829.486 349.068,805.889 C347.731,805.213 346.387,804.546 345.086,803.807 C342.191,802.164 338.812,800.976 336.568,798.684 C333.651,795.704 337.876,792.846 337.96,789.644 C338.084,784.859 336.856,780.795 333.916,777.159 C331.788,774.526 328.945,772.787 326.156,770.948 C323.985,769.516 320.042,769.551 319.732,767.08 C319.469,764.975 321.94,762.529 323.201,760.234 C347.271,780.301 374.704,793.953 404.989,801.419 C450.579,812.657 495.506,809.913 539.192,792.33 C564.308,782.221 586.679,767.662 606.185,748.79 C607.877,747.153 609.165,744.591 612.235,745.116" fill="#AAD874"/>
    <path d="M263.916,672.872 C272.318,672.766 274.697,675.944 271.795,682.887 C268.35,691.126 262.023,696.605 253.521,699.427 C247.479,701.432 245.015,704.976 246.399,709.949 C247.656,714.47 251.737,716.512 257.802,714.91 C264.211,713.218 270.471,710.955 276.781,708.893 C279.17,708.112 281.6,707.53 284.104,707.648 C290.763,707.961 294.217,713.293 291.67,719.438 C288.99,725.903 284.173,730.763 279.102,735.364 C276.774,737.476 275.047,739.764 275.344,743.102 C275.736,747.509 279.095,750.352 283.933,750.265 C289.989,750.157 295.628,747.827 301.53,746.891 C303.539,746.572 305.892,744.972 307.354,747.613 C308.877,750.363 309.218,753.287 307.087,756.038 C304.39,759.52 300.601,761.73 297.288,764.494 C295.492,765.992 293.687,767.44 292.912,769.799 C291.235,774.903 294.643,779.684 300.43,780.157 C306.798,780.678 312.865,782.177 318.553,785.166 C322.24,787.104 322.007,788.881 318.828,791.247 C309.639,798.084 296.7,798.904 286.863,793.113 C280.632,789.445 275.242,784.725 270.417,779.423 C256.776,764.43 242.281,750.218 231.608,732.659 C214.965,705.279 238.281,676.472 260.059,673.203 C261.7,672.957 263.373,672.917 263.916,672.872" fill="#FEF8EA"/>
    <path d="M671.268,672.858 C695.407,672.704 719.85,703.534 706.299,728.884 C701.635,737.609 696.138,745.675 689.645,753.059 C679.98,764.05 670.367,775.104 659.703,785.166 C656.551,788.14 653.123,790.775 649.396,793.013 C639.356,799.041 625.76,798.046 616.607,790.803 C613.639,788.454 614.259,787.047 617.145,785.414 C622.758,782.238 628.822,780.605 635.183,780.229 C639.158,779.994 641.989,778.341 643.114,774.611 C644.22,770.941 643.022,767.774 639.903,765.352 C636.622,762.803 633.348,760.23 630.244,757.473 C628.364,755.802 626.892,753.755 627.478,750.906 C628.16,747.587 629.245,745.548 633.499,746.546 C639.305,747.909 645.026,749.749 651.048,750.227 C655.152,750.552 658.425,749.437 660.041,745.576 C661.62,741.804 660.508,738.458 657.409,735.72 C652.401,731.296 647.742,726.557 644.773,720.443 C643.353,717.52 642.279,714.555 644.589,711.544 C646.913,708.514 649.975,707.292 653.765,707.709 C658.282,708.206 662.462,709.873 666.695,711.347 C671.084,712.876 675.407,714.614 680.049,715.268 C685.178,715.99 688.891,713.666 689.887,709.133 C690.797,704.986 688.446,701.223 683.647,699.84 C677.15,697.967 671.987,694.234 667.841,689.053 C666.409,687.263 665.182,685.203 664.32,683.081 C661.422,675.947 663.689,672.712 671.268,672.858" fill="#FEF8EA"/>
    <path d="M612.235,745.116 C594.506,762.487 574.795,777.089 552.4,787.941 C517.279,804.959 480.128,811.767 441.36,808.815 C398.621,805.561 360.123,790.69 326.13,764.434 C324.727,763.35 322.873,762.536 323.202,760.231 C323.68,757.806 324.158,755.379 324.638,752.949 C333.763,759.321 342.496,766.237 352.091,771.96 C432.043,819.654 534.782,807.791 601.82,743.15 C611.082,734.219 619.252,724.393 627.116,714.269 C627.01,718.301 628.31,722.081 629.21,725.932 C628.664,728.219 627.175,729.729 625.179,730.822 C618.004,732.996 614.456,738.455 612.235,745.116" fill="#FEFEFE"/>
    <path d="M238.498,585.101 C242.473,585.101 246.448,585.101 251.745,585.101 C247.946,582.286 245.065,580.234 242.27,578.07 C202.815,547.514 173.673,509.587 158.948,461.373 C158.71,460.593 158.624,459.767 158.466,458.963 C168.092,469.796 180.177,475.16 194.641,475.005 C197.868,474.971 197.803,477.284 198.361,479.271 C203.871,498.885 211.393,517.666 221.402,535.442 C231.016,552.515 242.583,568.095 256.465,581.943 C257.372,582.847 258.619,583.543 258.918,585.646 C252.038,585.44 245.276,587.238 238.498,585.101" fill="#DBA76F"/>
    <path d="M717.535,459.098 C721.818,437.475 724.046,416.179 724.023,394.685 C724.02,391.153 725.38,390.543 728.383,390.536 C736.425,390.517 741.936,393.559 744.699,401.173 C749.89,415.472 749.819,430.014 743.677,443.96 C738.946,454.703 729.429,458.593 717.535,459.098" fill="#FEF8EA"/>
    <path d="M253.204,658.215 C245.541,660.471 238.35,663.719 231.82,669.039 C226.475,653.552 223.139,638.221 221.34,622.556 C220.678,616.792 220.588,610.962 219.888,605.204 C219.564,602.538 220.139,601.599 222.859,601.675 C229.331,601.856 235.808,601.848 242.282,601.917 C244.29,604.41 244.404,607.51 244.568,610.416 C245.432,625.728 248.42,640.629 252.791,655.287 C253.076,656.245 253.332,657.201 253.204,658.215" fill="#AAD874"/>
    <path d="M182.967,390.574 C185.631,390.055 186.883,391.067 186.9,394.544 C187,415.214 188.766,435.749 192.956,456.015 C193.657,459.409 192.153,459.195 189.889,458.839 C177.694,456.916 169.473,450.326 166.248,438.243 C163.138,426.596 163.107,414.844 166.575,403.271 C169.075,394.928 174.458,390.908 182.967,390.574" fill="#FEF8EA"/>
    <path d="M665.26,601.515 C674.862,601.591 684.464,601.683 694.066,601.732 C696.204,601.743 696.459,603.09 696.397,604.727 C695.734,622.388 692.896,639.706 688.297,656.759 C687.613,659.293 686.075,659.376 684.143,658.731 C677.695,656.576 671.042,656.834 664.397,656.94 C663.391,654.93 664.318,653.026 664.823,651.154 C668.068,639.125 670.168,626.89 671.587,614.526 C671.624,614.197 671.675,613.869 671.708,613.539 C672.504,605.546 672.367,605.291 665.532,602.023 C665.364,601.895 665.274,601.726 665.26,601.515" fill="#AAD874"/>
    <path d="M600.509,839.182 C588.622,838.398 579.474,832.015 570.862,824.471 C569.056,822.889 570.125,822.5 571.478,821.806 C582.414,816.204 593.052,810.092 603.095,802.995 C604.469,802.025 605.375,802.297 606.537,803.259 C610.823,806.809 615.863,808.956 621.085,810.655 C622.758,811.2 623.773,811.689 623.102,813.695 C620.727,820.789 618.338,827.868 613.262,833.62 C609.896,837.433 605.886,839.801 600.509,839.182" fill="#FEF8EA"/>
    <path d="M347.923,823.353 C338.546,831.483 329.34,838.574 316.715,839.194 C311.648,839.443 307.669,837.534 304.407,833.831 C299.226,827.95 296.573,820.858 294.323,812.963 C303.232,813.766 311.464,812.273 319.376,809.023 C320.552,808.54 321.576,808.587 322.65,809.28 C330.599,814.41 338.951,818.838 347.923,823.353" fill="#FEF8EA"/>
    <path d="M665.532,602.023 C673.621,601.919 673.831,601.934 673.267,610.2 C672.181,626.12 669.438,641.757 664.396,656.941 C661.066,658.002 657.735,659.065 654.405,660.127 C660.745,642.961 663.724,625.117 665.142,606.957 C665.27,605.312 665.402,603.667 665.532,602.023" fill="#FEFEFE"/>
    <path d="M253.204,658.215 C249.622,654.722 249.713,649.8 248.565,645.471 C244.787,631.222 243.213,616.605 242.282,601.917 C245.21,601.308 248.136,601.331 251.056,601.961 C251.362,620.744 255.159,638.936 260.373,656.887 C257.984,657.329 255.594,657.772 253.204,658.215" fill="#FEFEFD"/>
    <path d="M640.337,694.241 C641.517,688.968 644.617,684.615 647.16,679.994 C648.039,683.817 648.919,687.641 649.839,691.646 C646.508,691.915 643.414,693.048 640.337,694.241" fill="#FBF9F8"/>
    <path d="M625.179,730.822 C626.237,728.957 627.414,727.19 629.21,725.933 C630.221,726.992 631.005,728.15 630.882,729.879 C628.971,730.195 627.075,730.508 625.179,730.822" fill="#A9CF73"/>
    <path d="M337.268,42.998 C336.873,42.65 336.477,42.302 336.082,41.954 C337.696,40.919 339.258,39.733 341.366,40.113 C340.758,42.151 338.879,42.384 337.268,42.998" fill="#F1EBE4"/>
    <path d="M453.828,555.366 C413.056,554.579 382.564,535.163 359.12,502.963 C356.744,499.699 356.404,496.467 359.799,493.726 C362.702,491.384 366.357,492.447 369.093,496.195 C385.624,518.844 406.465,535.456 434.455,541.253 C458.981,546.333 482.352,542.266 504.47,530.572 C507.289,529.082 507.856,527.903 505.955,525.017 C500.839,517.248 497.489,508.684 497.871,499.252 C498.681,479.247 520.952,468.013 538.261,478.592 C543.851,482.008 547.628,487.414 552.935,491.194 C555.885,493.295 554.44,496.905 552.712,499.814 C540.624,520.167 523.791,535.25 502.287,545.074 C486.941,552.084 470.772,555.367 453.828,555.366" fill="#6E4100"/>
    <path d="M316.566,338.072 C320.498,338.486 322.225,341.299 322.318,345.486 C322.439,351.004 324.132,355.875 327.885,360.038 C330.044,362.433 332.369,363.216 335.709,363.028 C352.144,362.101 364.096,370.829 368.717,386.699 C370.212,391.833 368.25,395.977 363.622,397.465 C359.307,398.852 355.381,396.669 353.488,391.83 C349.37,381.305 344.535,377.852 335.581,379.04 C326.775,380.208 319.237,388.029 318.199,397.097 C318.029,398.582 317.997,400.084 317.798,401.564 C317.216,405.893 313.775,409.177 309.75,408.806 C305.533,408.418 302.437,406.239 302.14,401.677 C301.366,389.801 305.53,379.774 314.541,372.101 C317.595,369.5 318.519,368.149 315.637,364.603 C310.98,358.87 309.759,351.689 309.699,344.432 C309.668,340.652 312.484,338.057 316.566,338.072" fill="#6E4100"/>
    <path d="M575.085,378.895 C567.744,378.731 563.587,382.391 560.781,387.995 C560.117,389.32 559.787,390.808 559.234,392.194 C557.46,396.645 553.446,398.794 549.34,397.525 C544.879,396.146 542.755,392.113 544.02,387.281 C545.929,379.986 549.663,373.772 555.652,369.165 C557.915,367.424 558.508,366.432 556.662,363.779 C552.876,358.337 551.485,351.98 551.302,345.376 C551.19,341.298 552.924,338.431 557.144,338.154 C561.373,337.876 563.564,340.471 563.823,344.565 C564.21,350.7 565.508,356.387 570.326,360.761 C571.88,362.171 573.4,362.873 575.581,362.955 C595.127,363.687 610.59,379.481 611.086,399.048 C611.223,404.471 607.897,408.657 603.282,408.868 C598.741,409.077 595.651,405.802 595.112,400.211 C593.875,387.353 585.644,378.874 575.085,378.895" fill="#6E4100"/>
    <path d="M554.445,243.182 C551.956,243.216 550.325,241.947 549.561,239.68 C548.761,237.309 549.585,235.124 551.699,234.111 C560.382,229.955 569.134,225.938 577.954,222.082 C580.308,221.053 582.725,221.92 583.922,224.314 C585.06,226.591 584.875,229.363 582.517,230.519 C573.586,234.9 564.482,238.928 555.434,243.071 C555.148,243.202 554.778,243.15 554.445,243.182" fill="#6E4300"/>
    <path d="M457.919,414.056 C453.014,413.956 446.045,403.489 447.914,399.029 C449.576,395.06 454.814,393.918 457.732,397.236 C460.002,399.817 461.932,402.825 463.431,405.925 C465.4,409.994 462.392,414.147 457.919,414.056" fill="#6F4400"/>
    <path d="M381.422,144.002 C381.741,147.437 379.422,149.607 377.055,151.783 C357.208,170.032 337.265,188.177 317.558,206.576 C284.092,237.821 250.791,269.243 218.493,301.705 C213.447,306.777 208.651,312.098 203.672,317.24 C199.685,321.357 194.848,321.676 191.335,318.183 C188.266,315.131 188.39,309.842 192.03,306.075 C212.285,285.118 232.863,264.485 254.065,244.479 C270.653,228.828 287.077,213.002 303.752,197.446 C324.684,177.918 345.814,158.601 366.819,139.151 C369.761,136.426 372.939,135.073 376.786,136.768 C379.762,138.078 381.499,140.394 381.422,144.002" fill="#6E4100"/>
    <path d="M464.315,738.22 C464.302,746.331 459.894,750.241 453.742,748.417 C447.482,746.561 447.316,738.395 449.071,733.009 C450.504,728.609 455.518,726.983 459.832,729.005 C464.011,730.964 464.586,734.624 464.315,738.22" fill="#6F4100"/>
    <path d="M586.418,691.463 C586.416,696.054 583.158,699.397 578.644,699.44 C573.661,699.488 566.815,693.073 566.866,688.404 C566.913,684.071 570.537,680.401 574.798,680.371 C579.848,680.335 586.421,686.608 586.418,691.463" fill="#6E4100"/>
    <path d="M393.314,682.515 C397.788,682.378 401.523,685.643 401.392,690.15 C401.214,696.277 398.559,703.006 392.398,703.029 C387.91,703.046 383.987,699.853 384.292,695.43 C384.813,687.898 387.241,683.02 393.314,682.515" fill="#FEFDFD"/>
    <path d="M521.299,723.026 C526.408,723.134 530.672,729.12 530.422,735.836 C530.251,740.444 526.889,743.602 522.343,743.425 C517.113,743.221 512.937,737.383 513.187,730.622 C513.351,726.178 516.818,722.932 521.299,723.026" fill="#6E4100"/>
    <path d="M343.016,648.404 C338.344,648.343 335.193,645.215 335.192,640.637 C335.191,635.46 341.057,630.957 347.678,631.051 C352.062,631.114 355.454,634.598 355.459,639.043 C355.464,644.515 350.172,648.496 343.016,648.404" fill="#FEFEFE"/>
    <path d="M528.138,512.288 C525.224,514.984 522.312,517.682 519.395,520.375 C518.206,521.474 517.111,522.388 515.906,520.271 C512.607,514.475 509.453,508.662 508.967,501.794 C508.519,495.457 511.266,490.953 516.551,487.739 C521.754,484.575 526.84,484.734 532.03,487.869 C541.946,493.859 542.25,495.979 534.206,505.049 C531.638,504.94 530.859,502.601 529.429,501.123 C528.161,499.813 527.169,498.242 526.085,496.766 C524.42,494.498 522.466,492.163 519.544,494.2 C516.121,496.588 518.522,499.224 520.153,501.472 C522.303,504.436 524.442,507.417 526.83,510.201 C527.373,510.834 527.95,511.437 528.138,512.288" fill="#FFA691"/>
    <path d="M528.138,512.288 C522.756,508.946 520.045,503.341 516.723,498.346 C515.31,496.221 516.745,493.785 519.077,492.589 C521.601,491.295 523.883,491.857 525.667,494.138 C528.512,497.776 531.36,501.412 534.206,505.049 C532.184,507.462 530.161,509.875 528.138,512.288" fill="#FEFDFD"/>
  </g>
</svg>
